<?xml version="1.0" standalone="no"?>
<!DOCTYPE svg PUBLIC "-//W3C//DTD SVG 1.1//EN" "http://www.w3.org/Graphics/SVG/1.1/DTD/svg11.dtd" >
<svg xmlns="http://www.w3.org/2000/svg" xmlns:xlink="http://www.w3.org/1999/xlink" version="1.1">
<metadata>
Created by FontForge 20161003 at Thu Oct  4 07:08:15 2018
 By www-data
Copyright (c) 2009 by Hannes von Dhren. All rights reserved.
</metadata>
<defs>
<font id="BrandonGrotesque-BlackItalic" horiz-adv-x="601" >
  <font-face 
    font-family="Brandon Grotesque Black"
    font-weight="500"
    font-style="italic"
    font-stretch="normal"
    units-per-em="1000"
    panose-1="2 11 10 3 2 2 3 13 2 2"
    ascent="700"
    descent="-300"
    x-height="400"
    cap-height="700"
    bbox="-182 -389.633 1080.05 1066.02"
    underline-thickness="50"
    underline-position="-100"
    slope="-8"
    stemh="147"
    stemv="85"
    unicode-range="U+0020-FB02"
  />
<missing-glyph horiz-adv-x="599" 
d="M50 30v640c0 21 9 30 30 30h439c21 0 30 -9 30 -30v-640c0 -21 -9 -30 -30 -30h-439c-21 0 -30 9 -30 30zM262 314c0 -7 7 -12 14 -12h36c9 0 15 4 15 13v26c0 48 105 63 105 150c0 65 -54 111 -125 111c-87 0 -130 -61 -130 -61c-4 -6 -6 -13 0 -18l22 -22
c6 -4 11 -4 17 0c13 12 36 41 84 41c40 0 61 -25 61 -52c0 -63 -99 -72 -99 -147v-29zM245 156c0 -26 22 -48 48 -48c27 0 49 22 49 48s-22 48 -49 48c-26 0 -48 -22 -48 -48z" />
    <glyph glyph-name="fi" unicode="fi" horiz-adv-x="543" 
d="M44 273c-10 0 -16 9 -15 19l13 89c1 11 9 19 19 19h32l13 93c19 135 111 217 242 217c53 0 111 -25 136 -43c9 -7 10 -17 4 -27l-48 -79c-4 -7 -12 -16 -28 -7c-17 9 -39 18 -71 18c-40 0 -75 -29 -82 -81l-13 -91h244c10 0 16 -8 15 -19l-51 -362
c-2 -10 -10 -19 -20 -19h-113c-10 0 -15 9 -14 19l36 254h-115l-75 -554c-1 -10 -11 -19 -20 -19h-119c-9 0 -15 9 -14 19l75 554h-31z" />
    <glyph glyph-name="fl" unicode="fl" horiz-adv-x="569" 
d="M42 273c-9 0 -15 9 -14 19l13 89c1 11 9 19 19 19h34l13 93c21 148 105 217 215 217c97 0 152 -62 152 -62l21 41c3 5 11 11 17 11h47c9 0 15 -9 14 -19l-93 -662c-1 -10 -11 -19 -20 -19h-115c-9 0 -15 9 -14 19l73 518c-6 10 -35 35 -70 35c-42 0 -68 -31 -75 -80
l-13 -92h51c9 0 16 -8 15 -19l-13 -89c-1 -10 -11 -19 -19 -19h-52l-75 -554c-1 -10 -11 -19 -20 -19h-119c-9 0 -15 9 -14 19l76 554h-34z" />
    <glyph glyph-name="f_f" unicode="ff" horiz-adv-x="631" 
d="M45 273c-10 0 -16 9 -15 19l13 89c1 11 10 19 19 19h31l11 77c20 145 118 223 226 223c71 0 113 -27 135 -49c40 45 95 59 145 59c53 0 101 -22 114 -38c4 -5 5 -16 0 -23l-48 -78c-4 -6 -12 -12 -21 -7c-13 7 -30 11 -47 11c-37 0 -53 -34 -60 -83l-13 -92h78
c10 0 16 -8 15 -19l-13 -89c-1 -10 -10 -19 -20 -19h-77l-75 -554c-2 -10 -11 -19 -20 -19h-120c-9 0 -16 9 -15 19l75 554h-133l-75 -554c-1 -10 -11 -19 -20 -19h-120c-9 0 -16 9 -15 19l75 554h-30zM248 400h133l13 92c2 13 5 30 7 42c-10 15 -30 31 -63 31
c-43 0 -73 -39 -80 -88z" />
    <glyph glyph-name="f_f_i" unicode="ffi" horiz-adv-x="832" 
d="M44 273c-10 0 -16 9 -14 19l12 89c2 11 10 19 20 19h31l12 77c23 145 115 223 226 223c69 0 112 -27 134 -49c40 38 88 59 157 59c59 0 115 -26 140 -41c9 -5 11 -16 4 -27l-53 -83c-5 -8 -16 -11 -23 -7c-20 11 -46 20 -77 20s-57 -25 -65 -80l-13 -92h244
c10 0 16 -8 15 -19l-51 -362c-2 -10 -10 -19 -20 -19h-114c-10 0 -16 9 -14 19l35 254h-113l-73 -554c-2 -10 -11 -19 -20 -19h-121c-9 0 -16 9 -14 19l73 554h-132l-74 -554c-1 -10 -10 -19 -19 -19h-121c-9 0 -16 9 -14 19l73 554h-31zM248 400h132l13 92c2 13 6 29 8 41
c-10 15 -29 32 -64 32c-42 0 -71 -39 -78 -88z" />
    <glyph glyph-name="f_f_l" unicode="ffl" horiz-adv-x="859" 
d="M45 273c-10 0 -16 9 -15 19l13 89c1 11 10 19 19 19h31l11 77c19 140 116 223 225 223c72 0 114 -28 136 -49c32 35 84 59 147 59c97 0 152 -62 152 -62l21 41c3 5 11 11 17 11h47c9 0 15 -9 14 -19l-93 -662c-1 -10 -11 -19 -20 -19h-115c-9 0 -15 9 -14 19l73 518
c-6 10 -35 35 -70 35c-42 0 -68 -31 -75 -80l-14 -92h50c9 0 16 -8 15 -19l-13 -88c-1 -10 -11 -19 -20 -19h-49l-75 -555c-2 -10 -11 -19 -20 -19h-120c-9 0 -16 9 -15 19l75 554h-133l-75 -554c-1 -10 -11 -19 -20 -19h-120c-9 0 -16 9 -15 19l75 554h-30zM248 400h133
l13 92c2 13 5 29 7 41c-10 15 -30 32 -63 32c-43 0 -73 -39 -80 -88z" />
    <glyph glyph-name="f_f_h" unicode="ffh" horiz-adv-x="1101" 
d="M45 273c-10 0 -16 9 -15 19l13 89c1 11 10 19 19 19h31l11 77c19 140 105 223 225 223c72 0 114 -28 136 -49c32 35 84 59 147 59c97 0 152 -62 152 -62l21 41c3 5 11 11 17 11h47c9 0 15 -9 14 -19l-42 -294c29 19 63 23 79 23c106 0 166 -99 150 -210l-25 -181
c-2 -10 -11 -19 -20 -19h-111c-10 0 -15 9 -14 19l25 181c7 44 -13 79 -51 79c-20 0 -50 -11 -59 -79l-25 -181c-2 -13 -7 -19 -23 -19h-113c-9 0 -16 9 -14 19l74 518c-6 10 -35 35 -70 35c-42 0 -68 -31 -75 -80l-14 -92h50c9 0 16 -8 15 -19l-13 -89
c-1 -10 -11 -19 -20 -19h-49l-75 -554c-2 -10 -11 -19 -20 -19h-120c-9 0 -16 9 -15 19l75 554h-133l-75 -554c-1 -10 -11 -19 -20 -19h-120c-9 0 -16 9 -15 19l75 554h-30zM248 400h133l13 92c2 13 5 29 7 41c-10 15 -30 32 -63 32c-43 0 -73 -39 -80 -88z" />
    <glyph glyph-name="f_k" unicode="fk" horiz-adv-x="794" 
d="M42 273c-9 0 -15 9 -14 19l13 89c1 11 9 19 19 19h34l13 93c21 148 106 217 215 217c97 0 152 -62 152 -62l17 33c7 13 15 19 27 19h41c9 0 15 -9 14 -19l-61 -433l112 140c5 6 12 12 24 12h126c16 0 23 -16 11 -31l-143 -168l97 -171c8 -14 -3 -30 -18 -30h-123
c-5 0 -10 3 -12 8l-83 174l-23 -163c-2 -10 -11 -19 -20 -19h-115c-9 0 -16 9 -14 19l73 518c-6 10 -35 35 -70 35c-42 0 -68 -31 -75 -80l-13 -92h51c9 0 16 -8 15 -19l-13 -89c-1 -10 -11 -19 -19 -19h-52l-75 -554c-1 -10 -11 -19 -20 -19h-119c-9 0 -15 9 -14 19l76 554
h-34z" />
    <glyph glyph-name="f_j" unicode="fj" horiz-adv-x="584" 
d="M44 273c-10 0 -16 9 -15 19l13 89c1 11 9 19 19 19h32l13 93c19 135 105 217 252 217c63 0 121 -25 146 -43c9 -7 10 -17 4 -27l-48 -79c-4 -7 -12 -15 -28 -7c-12 6 -47 18 -81 18c-46 0 -85 -29 -92 -81l-13 -91h284c10 0 17 -8 15 -19l-65 -473
c-19 -140 -95 -218 -240 -218c-13 0 -25 2 -23 19l13 107c2 19 16 18 25 18c48 0 70 41 76 80l52 359h-155l-75 -554c-1 -10 -11 -19 -20 -19h-119c-9 0 -15 9 -14 19l75 554h-31z" />
    <glyph glyph-name="f_f_j" unicode="ffj" horiz-adv-x="881" 
d="M44 273c-10 0 -16 9 -14 19l12 89c2 11 10 19 20 19h31l12 77c23 145 117 223 226 223c69 0 113 -27 135 -49c40 38 87 59 156 59c59 0 113 -22 140 -41c8 -6 11 -16 4 -27l-54 -83c-5 -8 -16 -11 -23 -7c-19 10 -46 20 -81 20c-31 0 -52 -25 -60 -80l-13 -92h292
c10 0 17 -8 15 -19l-65 -473c-19 -140 -97 -218 -240 -218c-13 0 -25 2 -23 19l13 107c2 19 16 18 25 18c48 0 70 41 76 80l52 359h-163l-73 -554c-2 -10 -11 -19 -20 -19h-121c-9 0 -16 9 -14 19l73 554h-132l-74 -554c-1 -10 -10 -19 -19 -19h-121c-9 0 -16 9 -14 19
l73 554h-31zM248 400h132l14 95c2 13 5 26 7 38c-10 15 -29 32 -64 32c-42 0 -71 -39 -78 -88z" />
    <glyph glyph-name="f_b" unicode="fb" horiz-adv-x="793" 
d="M42 273c-9 0 -15 9 -14 19l13 89c1 11 9 19 19 19h34l13 93c21 148 104 217 215 217c97 0 152 -62 152 -62l17 33c7 13 15 19 27 19h41c9 0 15 -9 14 -19l-41 -287s29 16 62 16c94 0 164 -82 164 -183c0 -128 -94 -237 -212 -237c-82 0 -115 63 -115 63
c-13 -21 -20 -53 -39 -53h-47c-9 0 -16 9 -14 19l73 518c-6 10 -35 35 -70 35c-42 0 -68 -31 -75 -80l-13 -92h51c9 0 16 -8 15 -19l-13 -89c-1 -10 -11 -19 -19 -19h-52l-75 -554c-1 -10 -11 -19 -20 -19h-119c-9 0 -15 9 -14 19l76 554h-34zM487 188c0 -38 24 -68 55 -68
c39 0 77 40 77 92c0 37 -22 67 -53 67c-43 0 -79 -43 -79 -91z" />
    <glyph glyph-name="f_f_k" unicode="ffk" horiz-adv-x="1083" 
d="M45 273c-10 0 -16 9 -15 19l13 89c1 11 10 19 19 19h31l11 77c19 140 116 223 225 223c72 0 114 -28 136 -49c32 35 84 59 147 59c97 0 152 -62 152 -62l21 41c3 5 11 11 17 11h47c9 0 15 -9 14 -19l-61 -432l111 139c5 6 12 12 24 12h126c16 0 23 -16 11 -31l-143 -168
l97 -171c8 -14 -3 -30 -18 -30h-123c-5 0 -10 3 -12 8l-83 172l-22 -161c-2 -10 -11 -19 -20 -19h-115c-9 0 -16 9 -14 19l73 518c-6 10 -35 35 -70 35c-42 0 -68 -31 -75 -80l-14 -92h50c9 0 16 -8 15 -19l-13 -88c-1 -10 -11 -19 -20 -19h-49l-75 -555
c-2 -10 -11 -19 -20 -19h-120c-9 0 -16 9 -15 19l75 554h-133l-75 -554c-1 -10 -11 -19 -20 -19h-120c-9 0 -16 9 -15 19l75 554h-30zM248 400h133l13 92c2 13 5 29 7 41c-10 15 -30 32 -63 32c-43 0 -73 -39 -80 -88z" />
    <glyph glyph-name="f_h" unicode="fh" horiz-adv-x="812" 
d="M42 273c-9 0 -15 9 -14 19l13 89c1 11 9 19 19 19h34l13 93c21 148 105 217 215 217c97 0 152 -62 152 -62l17 33c7 13 15 19 27 19h41c9 0 15 -9 14 -19l-42 -294c26 17 63 23 79 23c110 0 166 -99 150 -210l-25 -181c-2 -10 -11 -19 -20 -19h-111c-10 0 -15 9 -14 19
l25 181c7 44 -13 79 -51 79c-20 0 -51 -19 -59 -79l-25 -181c-2 -13 -7 -19 -23 -19h-113c-9 0 -16 9 -14 19l74 518c-6 10 -35 35 -70 35c-42 0 -68 -31 -75 -80l-13 -92h51c9 0 16 -8 15 -19l-13 -89c-1 -10 -11 -19 -19 -19h-52l-75 -554c-1 -10 -11 -19 -20 -19h-119
c-9 0 -15 9 -14 19l76 554h-34z" />
    <glyph glyph-name="f_f_b" unicode="ffb" horiz-adv-x="1083" 
d="M45 273c-10 0 -16 9 -15 19l13 89c1 11 10 19 19 19h31l11 77c19 140 113 223 225 223c72 0 114 -28 136 -49c32 35 84 59 147 59c97 0 152 -62 152 -62l21 41c3 5 11 11 17 11h47c9 0 15 -9 14 -19l-41 -287s29 16 62 16c94 0 164 -82 164 -183
c0 -128 -90 -237 -212 -237c-82 0 -115 63 -115 63c-13 -21 -20 -53 -39 -53h-47c-9 0 -16 9 -14 19l73 518c-6 10 -35 35 -70 35c-42 0 -68 -31 -75 -80l-14 -92h50c9 0 16 -8 15 -19l-13 -88c-1 -10 -11 -19 -20 -19h-49l-75 -555c-2 -10 -11 -19 -20 -19h-120
c-9 0 -16 9 -15 19l75 554h-133l-75 -554c-1 -10 -11 -19 -20 -19h-120c-9 0 -16 9 -15 19l75 554h-30zM248 400h133l13 92c2 13 5 29 7 41c-10 15 -30 32 -63 32c-43 0 -73 -39 -80 -88zM777 188c0 -38 24 -68 55 -68c39 0 77 40 77 92c0 37 -22 67 -53 67
c-43 0 -79 -43 -79 -91z" />
    <glyph glyph-name=".notdef" horiz-adv-x="599" 
d="M50 30v640c0 21 9 30 30 30h439c21 0 30 -9 30 -30v-640c0 -21 -9 -30 -30 -30h-439c-21 0 -30 9 -30 30zM262 314c0 -7 7 -12 14 -12h36c9 0 15 4 15 13v26c0 48 105 63 105 150c0 65 -54 111 -125 111c-87 0 -130 -61 -130 -61c-4 -6 -6 -13 0 -18l22 -22
c6 -4 11 -4 17 0c13 12 36 41 84 41c40 0 61 -25 61 -52c0 -63 -99 -72 -99 -147v-29zM245 156c0 -26 22 -48 48 -48c27 0 49 22 49 48s-22 48 -49 48c-26 0 -48 -22 -48 -48z" />
    <glyph glyph-name=".null" horiz-adv-x="0" 
 />
    <glyph glyph-name="CR" horiz-adv-x="0" 
 />
    <glyph glyph-name="space" unicode=" " horiz-adv-x="224" 
 />
    <glyph glyph-name="exclam" unicode="!" horiz-adv-x="311" 
d="M133 272c-8 0 -15 8 -15 16l-10 279l16 114c1 10 10 19 19 19h143c9 0 16 -9 15 -19l-16 -112l-90 -281c-2 -8 -11 -16 -19 -16h-43zM35 73c0 57 52 107 105 107c47 0 82 -39 82 -85c0 -57 -53 -105 -108 -105c-45 0 -79 38 -79 83z" />
    <glyph glyph-name="quotedbl" unicode="&#x22;" horiz-adv-x="352" 
d="M246 501c-9 0 -15 9 -14 19l23 161c1 10 10 19 19 19h107c12 0 19 -11 13 -25l-69 -159c-3 -8 -11 -15 -19 -15h-60zM78 501c-9 0 -15 9 -14 19l23 161c1 10 10 19 19 19h107c11 0 18 -11 13 -25l-69 -159c-4 -8 -10 -15 -19 -15h-60z" />
    <glyph glyph-name="numbersign" unicode="#" horiz-adv-x="493" 
d="M57 22l42 163h-64c-10 0 -15 9 -14 19l2 17c1 11 10 19 20 19h70l44 161h-66c-9 0 -15 9 -14 19l2 17c1 10 11 19 20 19h72l61 228c2 8 10 16 18 16h18c9 0 16 -10 13 -22l-58 -222h146l60 228c2 8 11 16 19 16h17c11 0 17 -10 14 -22l-58 -222h52c10 0 15 -9 14 -19
l-2 -17c-1 -10 -11 -19 -20 -19h-60l-42 -161h54c9 0 15 -8 14 -19l-2 -17c-1 -10 -12 -19 -21 -19h-61l-44 -169c-2 -9 -10 -16 -19 -16h-16c-11 0 -17 10 -14 22l43 163h-148l-43 -169c-2 -9 -11 -16 -19 -16h-16c-12 0 -17 10 -14 22zM165 240h147l42 161h-146z" />
    <glyph glyph-name="dollar" unicode="$" horiz-adv-x="493" 
d="M12 67c-7 10 -10 14 0 28l53 76c9 13 26 12 32 6c16 -14 44 -41 100 -46l22 154c-64 50 -156 108 -156 214c0 103 70 203 216 210l5 32c2 11 12 19 22 19h9c10 0 17 -8 15 -19l-5 -33c82 -8 140 -51 165 -71c10 -8 14 -25 6 -34l-61 -74c-8 -10 -24 -11 -32 -5
c-18 15 -51 37 -97 48l-20 -134c56 -41 169 -103 169 -224c0 -111 -78 -217 -232 -223l-14 -104c-1 -10 -11 -18 -21 -18h-9c-10 0 -18 8 -17 18l15 104c-91 8 -147 59 -165 76zM245 460l17 117c-34 -7 -47 -32 -47 -56s10 -43 30 -61zM241 126c28 9 48 33 48 69
c0 23 -11 44 -30 64z" />
    <glyph glyph-name="percent" unicode="%" 
d="M165 441c-58 0 -105 52 -105 117c0 84 61 152 142 152c57 0 104 -51 104 -116c0 -85 -63 -153 -141 -153zM56 27l404 663c3 6 8 10 17 10h59c13 0 19 -14 11 -27l-404 -663c-3 -4 -8 -10 -16 -10h-59c-14 0 -20 14 -12 27zM179 538c18 0 29 18 29 43c0 19 -6 32 -22 32
c-18 0 -29 -20 -29 -44c0 -17 7 -31 22 -31zM302 107c0 84 61 152 142 152c57 0 104 -51 104 -116c0 -85 -63 -153 -141 -153c-58 0 -105 52 -105 117zM399 118c0 -17 7 -31 22 -31c18 0 29 18 29 43c0 19 -6 32 -22 32c-18 0 -29 -20 -29 -44z" />
    <glyph glyph-name="ampersand" unicode="&#x26;" horiz-adv-x="663" 
d="M56 180c19 144 162 205 162 205v3l-17 21c-33 42 -52 80 -50 134c3 81 62 167 205 167c100 0 169 -62 169 -158c0 -117 -132 -187 -132 -187l78 -95c15 21 34 56 44 80c9 21 17 39 41 27l64 -33c25 -13 12 -34 7 -46c-31 -71 -81 -127 -81 -129l68 -77
c10 -12 19 -21 -9 -46l-50 -44c-12 -11 -28 -13 -42 3l-52 60s-90 -76 -220 -75c-116 1 -199 86 -185 190zM329 451c0 0 66 27 74 83c4 34 -21 64 -62 64c-35 0 -63 -23 -63 -54s18 -50 33 -71zM196 210c-8 -58 26 -93 76 -93c75 0 110 50 110 50l-102 139s-75 -25 -84 -96z
" />
    <glyph glyph-name="quotesingle" unicode="'" horiz-adv-x="183" 
d="M78 501c-9 0 -15 9 -14 19l23 161c1 10 10 19 19 19h106c11 0 18 -11 13 -25l-69 -159c-4 -8 -11 -15 -19 -15h-59z" />
    <glyph glyph-name="parenleft" unicode="(" horiz-adv-x="329" 
d="M40 206c0 420 171 496 298 503c10 1 16 -8 15 -18l-8 -85c-1 -7 -8 -17 -15 -19c-71 -26 -140 -121 -140 -375c0 -84 19 -150 64 -169c6 -3 10 -12 9 -19l-15 -84c-2 -11 -10 -19 -21 -19c-87 7 -187 72 -187 285z" />
    <glyph glyph-name="parenright" unicode=")" horiz-adv-x="331" 
d="M-4 25c1 7 6 15 15 18c71 27 140 120 140 373c0 85 -18 155 -64 172c-6 2 -12 10 -10 19l16 84c2 10 12 19 22 18c86 -7 186 -74 186 -285c0 -428 -172 -493 -297 -503c-10 0 -18 8 -17 18z" />
    <glyph glyph-name="asterisk" unicode="*" horiz-adv-x="345" 
d="M160 347c-9 0 -17 9 -15 19l15 90l-75 -51c-8 -6 -18 -2 -22 5l-18 35c-5 9 -3 21 7 27l88 51l-72 52c-7 5 -9 18 -2 27l30 35c6 7 15 9 22 4l61 -51l11 91c1 10 10 19 19 19h42c9 0 17 -9 15 -19l-14 -91l76 51c8 5 18 2 22 -5l19 -34c5 -8 1 -22 -9 -28l-86 -51l71 -52
c8 -6 9 -19 2 -26l-31 -35c-7 -7 -17 -10 -23 -5l-60 50l-12 -89c-1 -10 -10 -19 -19 -19h-42z" />
    <glyph glyph-name="plus" unicode="+" horiz-adv-x="506" 
d="M180 147l20 146h-127c-9 0 -15 9 -14 19l10 70c1 10 10 19 19 19h127l21 147c1 10 11 18 20 18h77c9 0 15 -8 14 -18l-21 -147h127c9 0 15 -9 14 -19l-10 -70c-1 -10 -10 -19 -19 -19h-127l-20 -146c-2 -10 -11 -18 -20 -18h-77c-9 0 -16 8 -14 18z" />
    <glyph glyph-name="comma" unicode="," horiz-adv-x="273" 
d="M1 72c0 57 51 106 116 106c42 0 97 -33 97 -122c0 -156 -114 -240 -150 -263c-10 -6 -22 -10 -29 1l-17 27c-3 5 -2 16 8 24c14 10 95 67 108 156c1 0 -23 -11 -55 -11c-44 0 -78 37 -78 82z" />
    <glyph glyph-name="hyphen" unicode="-" horiz-adv-x="337" 
d="M49 178c-10 0 -15 8 -14 18l12 91c1 11 10 19 20 19h210c10 0 15 -8 14 -19l-12 -91c-1 -10 -10 -18 -20 -18h-210z" />
    <glyph glyph-name="period" unicode="." horiz-adv-x="242" 
d="M1 73c0 57 52 107 106 107c46 0 81 -39 81 -85c0 -57 -53 -105 -107 -105c-46 0 -80 38 -80 83z" />
    <glyph glyph-name="slash" unicode="/" horiz-adv-x="354" 
d="M1 0c-12 0 -18 11 -12 25l269 662c3 7 9 13 19 13h102c13 0 18 -11 12 -25l-268 -662c-3 -7 -10 -13 -19 -13h-103z" />
    <glyph glyph-name="zero" unicode="0" horiz-adv-x="577" 
d="M251 -10c-117 0 -193 105 -193 267c0 261 106 434 287 434c116 0 193 -104 193 -266c0 -261 -111 -435 -287 -435zM269 143c68 0 108 128 108 274c0 74 -17 121 -50 121c-66 0 -108 -126 -108 -274c0 -73 18 -121 50 -121z" />
    <glyph glyph-name="one" unicode="1" horiz-adv-x="363" 
d="M95 19l63 450h-91c-9 0 -15 9 -12 19l11 67c1 5 6 12 10 15l148 110h95c9 0 14 -9 13 -19l-90 -642c-1 -10 -10 -19 -19 -19h-114c-10 0 -16 9 -14 19z" />
    <glyph glyph-name="two" unicode="2" horiz-adv-x="483" 
d="M5 0c-10 0 -15 9 -14 19l2 20l266 339c43 55 56 85 56 114c0 40 -31 60 -62 60c-40 0 -72 -29 -90 -50c-8 -8 -19 -8 -25 0l-58 66c-6 6 -5 18 3 26c0 0 71 96 194 96c118 0 188 -75 188 -184c0 -58 -37 -130 -83 -191l-138 -187h143c9 0 15 -9 14 -19l-12 -90
c-1 -10 -11 -19 -20 -19h-364z" />
    <glyph glyph-name="three" unicode="3" horiz-adv-x="480" 
d="M4 79c-5 8 -2 19 5 25l62 59c7 7 17 7 24 0c5 -5 41 -40 84 -40c56 0 88 41 88 89c0 39 -33 72 -85 72h-50c-9 0 -15 9 -14 19l11 83c1 11 9 19 19 19h51c62 0 99 39 99 88c0 36 -22 64 -54 64c-39 0 -62 -25 -76 -40c-7 -8 -18 -8 -24 -1l-56 67c-6 7 -4 19 4 26
c21 20 82 81 185 81c95 0 176 -67 176 -160c0 -92 -68 -160 -117 -183v-3c36 -18 87 -69 87 -144c0 -117 -85 -210 -240 -210c-104 0 -162 63 -179 89z" />
    <glyph glyph-name="four" unicode="4" horiz-adv-x="551" 
d="M14 141c-10 0 -16 9 -15 19l15 106l368 419c3 3 7 6 14 6h75c9 0 16 -8 14 -19l-56 -410h71c9 0 15 -8 14 -18l-11 -83c-1 -10 -11 -19 -20 -19h-71l-16 -123c-1 -10 -11 -19 -20 -19h-110c-9 0 -16 9 -14 19l17 122h-255zM162 265h127l26 179z" />
    <glyph glyph-name="five" unicode="5" horiz-adv-x="492" 
d="M24 73c-10 15 -10 22 3 34c15 14 29 27 64 57c6 6 18 6 24 0c8 -8 40 -39 93 -39c45 0 97 46 97 109c0 46 -28 82 -73 82h-136c-18 0 -25 19 -23 35l44 310c1 10 10 19 20 19h294c9 0 15 -9 14 -19l-12 -88c-1 -10 -11 -19 -20 -19h-177l-15 -107h56
c106 0 175 -86 175 -196c0 -146 -87 -261 -256 -261c-84 0 -151 53 -172 83z" />
    <glyph glyph-name="six" unicode="6" horiz-adv-x="499" 
d="M35 212c0 344 289 472 374 491c10 2 20 -3 23 -17l18 -74c3 -12 -3 -23 -21 -29c-46 -15 -170 -63 -205 -166c0 0 39 19 84 19c77 0 152 -73 152 -185c0 -144 -105 -261 -241 -261c-113 0 -184 96 -184 222zM236 128c52 0 91 51 91 110c0 45 -26 83 -64 83
c-42 0 -81 -31 -89 -97c-6 -52 25 -96 62 -96z" />
    <glyph glyph-name="seven" unicode="7" horiz-adv-x="465" 
d="M12 0c-11 0 -18 7 -16 17l2 13l293 522h-191c-9 0 -16 9 -15 19l13 90c1 10 11 19 20 19h384c9 0 15 -9 14 -19l-1 -7l-369 -642c-4 -7 -10 -12 -21 -12h-113z" />
    <glyph glyph-name="eight" unicode="8" horiz-adv-x="531" 
d="M27 158c0 113 120 186 136 194v3c-28 20 -72 66 -72 133c0 122 94 202 225 202c100 0 189 -63 189 -160c0 -92 -76 -153 -116 -180l-1 -4c33 -23 88 -72 88 -147c0 -116 -93 -209 -249 -209c-116 0 -200 73 -200 168zM285 418c41 19 67 52 67 88c0 27 -17 54 -45 54
c-35 0 -66 -35 -66 -75c0 -26 17 -52 44 -67zM190 181c0 -35 22 -59 53 -59c36 0 72 33 72 81c0 28 -16 61 -50 74c-46 -17 -75 -56 -75 -96z" />
    <glyph glyph-name="nine" unicode="9" horiz-adv-x="499" 
d="M85 0l-18 74c-3 12 3 23 21 29c46 15 170 63 205 166c0 0 -39 -19 -84 -19c-77 0 -152 73 -152 185c0 144 105 261 241 261c113 0 184 -96 184 -222c0 -344 -289 -472 -374 -491c-10 -2 -20 3 -23 17zM254 365c42 0 81 31 89 97c6 52 -25 96 -62 96
c-52 0 -91 -51 -91 -110c0 -45 26 -83 64 -83z" />
    <glyph glyph-name="colon" unicode=":" horiz-adv-x="248" 
d="M120 250c-38 0 -65 31 -65 69c0 49 42 90 87 90c39 0 66 -32 66 -70c0 -49 -42 -89 -88 -89zM19 60c0 49 41 90 87 90c38 0 66 -32 66 -70c0 -49 -42 -89 -88 -89c-38 0 -65 31 -65 69z" />
    <glyph glyph-name="semicolon" unicode=";" horiz-adv-x="230" 
d="M99 250c-38 0 -65 31 -65 69c0 49 42 90 87 90c39 0 66 -32 66 -70c0 -49 -42 -89 -88 -89zM2 52c0 44 38 81 87 81c31 0 71 -25 71 -93c0 -119 -86 -183 -112 -202c-9 -7 -15 -5 -18 -1l-14 19c-5 7 -4 15 5 21c11 7 71 52 82 120c1 0 -18 -7 -42 -7
c-34 0 -59 27 -59 62z" />
    <glyph glyph-name="less" unicode="&#x3c;" horiz-adv-x="398" 
d="M17 210c-4 3 -8 8 -7 17l1 7c1 8 7 12 11 15l347 212c12 7 25 1 23 -13l-15 -95c-1 -7 -4 -11 -9 -14l-179 -113l148 -109c3 -2 6 -6 5 -13l-10 -83c-2 -16 -16 -24 -27 -16z" />
    <glyph glyph-name="equal" unicode="=" horiz-adv-x="454" 
d="M78 331c-9 0 -16 9 -15 19l10 70c1 10 11 19 20 19h313c10 0 15 -9 14 -19l-10 -70c-1 -10 -9 -19 -19 -19h-313zM48 120c-9 0 -16 9 -14 19l10 71c1 10 10 19 19 19h313c10 0 16 -9 15 -19l-10 -71c-1 -10 -10 -19 -20 -19h-313z" />
    <glyph glyph-name="greater" unicode="&#x3e;" horiz-adv-x="398" 
d="M17 5c-11 -7 -25 -1 -23 13l14 95c1 7 5 12 9 14l178 109l-147 113c-3 2 -6 7 -5 13l11 83c2 16 17 24 27 16l287 -212c5 -3 8 -9 7 -15l-1 -9c-1 -6 -6 -12 -11 -15z" />
    <glyph glyph-name="question" unicode="?" horiz-adv-x="425" 
d="M139 272c-9 0 -16 8 -14 19l6 42c13 89 148 131 148 204c0 23 -18 40 -44 40c-37 0 -70 -24 -87 -39c-9 -8 -19 -10 -26 -2l-54 65c-7 7 -5 20 3 27c20 19 82 82 199 82c85 0 168 -62 168 -151c0 -125 -155 -187 -164 -243l-4 -25c-2 -11 -10 -19 -20 -19h-111zM76 73
c0 57 52 107 105 107c47 0 82 -39 82 -85c0 -57 -53 -105 -108 -105c-45 0 -79 38 -79 83z" />
    <glyph glyph-name="at" unicode="@" horiz-adv-x="912" 
d="M17 163c0 310 216 547 511 547c220 0 352 -155 352 -373c0 -153 -80 -347 -265 -347c-62 0 -87 36 -98 78h-7c-26 -42 -74 -78 -132 -78c-87 0 -141 88 -141 181c0 128 93 239 203 239c76 0 104 -62 104 -62l17 38c7 12 13 14 22 14h41c9 0 16 -8 15 -19l-24 -168
c-12 -87 14 -98 34 -98c64 0 92 136 92 219c0 141 -74 250 -233 250c-211 0 -359 -168 -359 -408c0 -125 62 -238 159 -286c6 -4 11 -14 7 -23l-41 -82c-6 -10 -14 -16 -24 -12c-138 54 -233 223 -233 390zM361 179c0 -35 22 -61 48 -61c31 0 69 43 70 105
c1 45 -24 67 -50 67c-34 0 -68 -48 -68 -111z" />
    <glyph glyph-name="A" unicode="A" 
d="M-25 0c-14 0 -19 13 -12 26l379 673c4 6 9 11 17 11h9c7 0 12 -5 14 -11l188 -673c4 -13 -5 -26 -19 -26h-113c-18 0 -28 5 -32 25l-17 79h-221l-39 -80c-6 -13 -19 -24 -40 -24h-114zM239 240h112l-31 167h-1z" />
    <glyph glyph-name="B" unicode="B" horiz-adv-x="568" 
d="M47 19l93 662c1 10 9 19 19 19h212c98 0 172 -72 172 -165c0 -92 -80 -153 -132 -179c41 -20 102 -57 102 -144c0 -121 -98 -212 -225 -212h-227c-10 0 -16 9 -14 19zM257 416h47c43 0 72 37 72 89c0 27 -15 51 -39 51h-60zM220 143h51c49 -1 79 37 79 90
c0 30 -22 53 -48 53h-62z" />
    <glyph glyph-name="C" unicode="C" horiz-adv-x="616" 
d="M45 305c0 228 159 405 375 405c89 0 157 -31 210 -93c6 -8 5 -20 -4 -28l-86 -76c-8 -7 -17 -6 -23 0c-25 28 -68 46 -108 46c-103 0 -191 -110 -191 -237c0 -94 53 -172 135 -172c34 0 81 23 116 52c7 6 19 5 24 -1l68 -90c6 -8 2 -20 -5 -27c-71 -66 -146 -94 -226 -94
c-151 0 -285 139 -285 315z" />
    <glyph glyph-name="D" unicode="D" horiz-adv-x="678" 
d="M47 19l93 662c1 10 10 19 19 19h223c158 0 271 -149 271 -304c0 -217 -158 -396 -369 -396h-224c-9 0 -15 9 -13 19zM222 148h75c103 0 189 105 189 236c0 94 -51 169 -132 169h-75z" />
    <glyph glyph-name="E" unicode="E" horiz-adv-x="544" 
d="M47 19l93 662c1 10 10 19 19 19h377c10 0 16 -9 15 -19l-16 -109c-1 -10 -9 -19 -19 -19h-238l-18 -124h194c9 0 16 -9 15 -19l-16 -109c-2 -11 -11 -19 -20 -19h-193l-19 -135h238c10 0 15 -9 14 -19l-15 -109c-1 -10 -10 -19 -20 -19h-377c-10 0 -16 9 -14 19z" />
    <glyph glyph-name="F" unicode="F" horiz-adv-x="522" 
d="M47 19l93 662c1 10 10 19 19 19h377c10 0 16 -9 15 -19l-16 -109c-1 -10 -9 -19 -19 -19h-238l-20 -144h193c9 0 16 -9 15 -19l-16 -109c-1 -10 -10 -19 -19 -19h-194l-34 -243c-2 -10 -11 -19 -20 -19h-122c-10 0 -16 9 -14 19z" />
    <glyph glyph-name="G" unicode="G" horiz-adv-x="644" 
d="M46 309c0 220 157 401 375 401c72 0 154 -35 207 -94c8 -7 7 -19 -1 -27l-82 -81c-8 -8 -20 -7 -26 -1c-27 27 -67 44 -108 44c-97 0 -191 -106 -191 -230c0 -93 57 -171 136 -171c10 0 41 1 64 16l8 58h-46c-10 0 -16 8 -15 18l14 99c2 11 10 19 20 19h187
c9 0 15 -9 14 -19l-37 -269c-1 -9 -6 -13 -10 -16c0 0 -102 -66 -232 -66c-155 0 -277 142 -277 319z" />
    <glyph glyph-name="H" unicode="H" horiz-adv-x="715" 
d="M47 19l93 662c1 10 11 19 20 19h122c10 0 16 -9 15 -19l-36 -252h234l35 252c1 10 10 19 20 19h123c9 0 16 -9 15 -19l-93 -662c-1 -10 -11 -19 -20 -19h-124c-10 0 -15 9 -14 19l37 263h-233l-37 -263c-2 -10 -10 -19 -20 -19h-123c-9 0 -15 9 -14 19z" />
    <glyph glyph-name="I" unicode="I" horiz-adv-x="325" 
d="M47 19l93 662c1 10 10 19 19 19h125c9 0 15 -9 14 -19l-93 -662c-1 -10 -10 -19 -19 -19h-125c-9 0 -15 9 -14 19z" />
    <glyph glyph-name="J" unicode="J" horiz-adv-x="406" 
d="M-33 63c-5 8 -2 18 4 25l66 65c7 7 16 8 23 0c6 -7 20 -19 43 -19c25 0 52 28 60 83l64 464c1 10 9 19 19 19h125c10 0 17 -9 16 -19l-67 -472c-21 -149 -94 -219 -218 -219c-84 0 -123 53 -135 73z" />
    <glyph glyph-name="K" unicode="K" horiz-adv-x="630" 
d="M48 24l92 652c2 13 12 24 25 24h121c12 0 21 -11 19 -24l-37 -263l208 277c4 6 10 10 18 10h145c17 0 23 -22 12 -37l-239 -304l166 -330c8 -16 -10 -29 -20 -29h-138c-9 0 -16 4 -20 13l-145 309l-42 -298c-1 -13 -13 -24 -25 -24h-121c-13 0 -20 11 -19 24z" />
    <glyph glyph-name="L" unicode="L" horiz-adv-x="471" 
d="M47 19l93 662c1 10 10 19 20 19h124c9 0 15 -9 14 -19l-75 -534h204c10 0 15 -9 14 -19l-15 -109c-1 -10 -10 -19 -20 -19h-344c-10 0 -16 9 -15 19z" />
    <glyph glyph-name="M" unicode="M" horiz-adv-x="809" 
d="M21 0c-10 0 -18 9 -14 22l192 672c3 9 8 16 19 16h14c6 0 12 -4 14 -10l147 -432h2l284 432c4 6 8 10 17 10h15c7 0 13 -7 13 -16l5 -672c0 -13 -11 -22 -21 -22h-123c-8 0 -15 8 -15 16l11 309h-2l-191 -324c-4 -6 -10 -11 -17 -11h-16c-7 0 -12 5 -14 11l-101 324h-2
l-74 -309c-2 -8 -9 -16 -20 -16h-123z" />
    <glyph glyph-name="N" unicode="N" horiz-adv-x="714" 
d="M47 17l94 675c1 10 11 18 20 18h22l298 -386h1l48 357c1 10 9 19 19 19h122c9 0 17 -8 16 -17l-94 -675c-1 -10 -10 -18 -19 -18h-25l-298 398h-1l-45 -369c-2 -10 -10 -19 -20 -19h-123c-8 0 -16 8 -15 17z" />
    <glyph glyph-name="O" unicode="O" horiz-adv-x="724" 
d="M44 300c0 226 168 410 376 410c155 0 279 -140 279 -313c0 -225 -166 -407 -376 -407c-154 0 -279 138 -279 310zM343 150c99 0 192 104 192 228c0 94 -56 172 -136 172c-97 0 -191 -105 -191 -229c0 -93 56 -171 135 -171z" />
    <glyph glyph-name="P" unicode="P" horiz-adv-x="544" 
d="M47 19l93 662c1 10 10 19 20 19h220c100 0 173 -92 173 -198c0 -133 -105 -248 -235 -248h-82l-33 -235c-1 -10 -11 -19 -20 -19h-122c-10 0 -15 9 -14 19zM257 400h72c35 0 69 40 69 91c0 35 -20 62 -47 62h-73z" />
    <glyph glyph-name="Q" unicode="Q" horiz-adv-x="726" 
d="M45 300c0 226 168 410 376 410c155 0 279 -140 279 -313c0 -160 -84 -298 -208 -365l89 -200c6 -14 -4 -30 -18 -30h-135c-7 0 -11 5 -13 10l-70 179c-7 0 -14 -1 -21 -1c-154 0 -279 138 -279 310zM344 150c99 0 192 104 192 228c0 94 -56 172 -136 172
c-97 0 -191 -105 -191 -229c0 -93 56 -171 135 -171z" />
    <glyph glyph-name="R" unicode="R" horiz-adv-x="622" 
d="M47 19l93 662c1 10 10 19 19 19h270c105 0 176 -85 176 -188c0 -107 -61 -197 -164 -229l87 -254c5 -13 -4 -29 -19 -29h-129c-7 0 -13 4 -14 9l-82 265h-44l-36 -255c-1 -10 -10 -19 -19 -19h-124c-10 0 -16 9 -14 19zM257 401h110c47 0 81 44 81 92c0 35 -18 64 -54 64
h-115z" />
    <glyph glyph-name="S" unicode="S" horiz-adv-x="515" 
d="M23 67c-8 10 -6 19 0 28l54 81c9 13 25 11 32 6c13 -10 62 -44 116 -44c37 0 65 28 64 61c-1 36 -23 63 -66 91c-63 42 -149 105 -149 209c0 108 75 211 237 211c95 0 163 -51 190 -73c10 -8 14 -25 6 -34l-63 -77c-8 -10 -25 -11 -32 -5s-59 45 -112 45
c-34 0 -64 -21 -64 -51c0 -35 22 -54 82 -90c50 -30 148 -94 148 -211c0 -115 -80 -224 -250 -224c-106 0 -174 53 -193 77z" />
    <glyph glyph-name="T" unicode="T" horiz-adv-x="465" 
d="M116 19l75 534h-122c-10 0 -16 9 -15 19l16 109c1 10 10 19 19 19h404c10 0 16 -9 15 -19l-16 -109c-1 -10 -9 -19 -19 -19h-123l-75 -534c-1 -10 -11 -19 -20 -19h-124c-9 0 -16 9 -15 19z" />
    <glyph glyph-name="U" unicode="U" horiz-adv-x="668" 
d="M72 260l58 421c1 10 10 19 19 19h127c9 0 16 -9 15 -19l-57 -413c-10 -70 25 -118 80 -118c60 0 109 48 119 118l57 413c1 10 9 19 19 19h126c9 0 16 -9 15 -19l-58 -421c-23 -162 -132 -270 -298 -270c-134 0 -244 118 -222 270z" />
    <glyph glyph-name="V" unicode="V" 
d="M239 1l-188 673c-3 13 6 26 19 26h134c8 0 13 -6 14 -11l79 -365h8l182 365c2 5 9 11 16 11h144c14 0 19 -13 12 -26l-380 -673c-3 -6 -7 -11 -17 -11h-9c-7 0 -12 5 -14 11z" />
    <glyph glyph-name="W" unicode="W" horiz-adv-x="817" 
d="M156 4l-75 672c-2 14 7 24 19 24h121c7 0 14 -7 14 -14l19 -339h4l186 352c3 6 9 11 17 11h16c7 0 13 -5 14 -11l87 -352h3l116 339c3 7 11 14 18 14h120c13 0 19 -10 13 -24l-264 -672c-3 -8 -11 -14 -18 -14h-15c-6 0 -12 5 -14 11l-108 409h-4l-223 -409
c-4 -6 -11 -11 -17 -11h-14c-8 0 -14 6 -15 14z" />
    <glyph glyph-name="X" unicode="X" horiz-adv-x="618" 
d="M1 0c-14 0 -21 15 -10 28l236 336l-139 308c-5 13 4 28 20 28h144c5 0 11 -4 13 -9l70 -191h1l123 191c4 7 11 9 16 9h155c15 0 22 -15 11 -28l-228 -318l144 -326c7 -14 -4 -28 -18 -28h-139c-8 0 -13 6 -14 9l-81 207h-2l-136 -207c-4 -6 -12 -9 -17 -9h-149z" />
    <glyph glyph-name="Y" unicode="Y" horiz-adv-x="540" 
d="M152 19l45 318l-148 334c-5 13 4 29 18 29h126c8 0 12 -4 14 -9l83 -205l141 205c3 4 7 9 16 9h141c15 0 20 -16 11 -29l-245 -333l-44 -319c-1 -10 -11 -19 -20 -19h-124c-10 0 -15 9 -14 19z" />
    <glyph glyph-name="Z" unicode="Z" horiz-adv-x="508" 
d="M7 0c-9 0 -15 9 -14 19l2 18l293 516h-177c-9 0 -16 9 -15 19l16 109c1 10 11 19 20 19h386c9 0 17 -9 15 -19l-2 -13l-283 -521h175c10 0 15 -9 14 -19l-15 -109c-2 -10 -10 -19 -20 -19h-395z" />
    <glyph glyph-name="bracketleft" unicode="[" horiz-adv-x="344" 
d="M132 -182h113c9 0 16 -8 15 -18l-12 -81c-1 -10 -11 -19 -20 -19h-233c-9 0 -16 9 -15 19l136 962c1 10 10 19 19 19h234c9 0 15 -9 14 -19l-11 -80c-2 -11 -11 -19 -20 -19h-112z" />
    <glyph glyph-name="backslash" unicode="\" horiz-adv-x="353" 
d="M156 13l-82 662c-2 14 7 25 20 25h101c7 0 14 -6 15 -13l83 -662c2 -14 -8 -25 -20 -25h-102c-7 0 -14 6 -15 13z" />
    <glyph glyph-name="bracketright" unicode="]" horiz-adv-x="344" 
d="M-30 -182h113l107 764h-112c-9 0 -17 8 -15 19l12 80c1 10 10 19 19 19h234c9 0 16 -9 14 -19l-135 -962c-1 -10 -11 -19 -20 -19h-233c-9 0 -16 9 -15 19l12 81c1 10 10 18 19 18z" />
    <glyph glyph-name="asciicircum" unicode="^" horiz-adv-x="472" 
d="M-26 378c-14 0 -19 15 -10 28l233 298c4 5 9 10 17 10h5c8 0 12 -5 14 -10l145 -298c5 -13 -4 -28 -18 -28h-85c-4 0 -8 4 -10 8l-70 149l-114 -149c-3 -4 -9 -8 -13 -8h-94z" />
    <glyph glyph-name="underscore" unicode="_" horiz-adv-x="404" 
d="M-6 -10h335c10 0 17 -8 15 -19l-7 -51c-1 -10 -10 -18 -20 -18h-335c-10 0 -16 8 -15 18l7 51c2 11 10 19 20 19z" />
    <glyph glyph-name="grave" unicode="`" horiz-adv-x="272" 
d="M164 512l-157 82c-7 4 -11 15 -1 30l39 55c6 9 15 10 24 3l142 -104c5 -3 8 -11 3 -19l-24 -38c-6 -10 -15 -15 -26 -9z" />
    <glyph glyph-name="a" unicode="a" horiz-adv-x="475" 
d="M437 381l-54 -362c-2 -10 -11 -19 -20 -19h-52c-8 0 -14 6 -15 15l-6 35c-20 -22 -71 -60 -135 -60c-93 0 -141 83 -141 185c0 132 95 235 204 235c81 0 119 -63 119 -63l20 41c4 8 10 12 19 12h47c9 0 16 -8 14 -19zM202 120c45 0 79 38 79 89c0 39 -24 70 -56 70
c-37 0 -76 -40 -76 -91c0 -38 22 -68 53 -68z" />
    <glyph glyph-name="b" unicode="b" horiz-adv-x="478" 
d="M16 19l93 662c1 10 10 19 19 19h115c9 0 16 -9 15 -19l-41 -287s29 16 62 16c98 0 164 -84 164 -183c0 -128 -92 -237 -212 -237c-82 0 -115 63 -115 63l-20 -39c-4 -8 -11 -14 -19 -14h-47c-9 0 -16 9 -14 19zM172 188c0 -38 24 -68 55 -68c39 0 77 40 77 92
c0 37 -22 67 -53 67c-43 0 -79 -43 -79 -91z" />
    <glyph glyph-name="c" unicode="c" horiz-adv-x="393" 
d="M12 175c0 133 100 235 223 235c57 0 101 -29 131 -72c6 -9 2 -21 -8 -28l-63 -54c-4 -4 -12 -4 -18 2c-13 13 -29 21 -49 21c-38 0 -74 -41 -74 -92c0 -37 20 -67 50 -67c27 0 43 15 59 30c4 5 14 8 22 0l53 -53c8 -8 10 -18 3 -28c-42 -57 -92 -79 -158 -79
c-94 0 -171 81 -171 185z" />
    <glyph glyph-name="d" unicode="d" horiz-adv-x="480" 
d="M165 -10c-94 0 -151 89 -151 187c0 134 103 233 211 233c43 0 69 -16 69 -16l41 287c2 11 6 19 21 19h113c9 0 16 -9 15 -19l-93 -662c-2 -10 -11 -19 -20 -19h-47c-6 0 -13 6 -15 12l-11 38c-20 -22 -69 -60 -133 -60zM208 120c39 0 77 40 77 89c1 40 -26 70 -57 70
c-39 0 -75 -41 -75 -91c0 -38 24 -68 55 -68z" />
    <glyph glyph-name="e" unicode="e" horiz-adv-x="396" 
d="M12 165c0 135 99 245 234 245c68 0 132 -40 132 -105c0 -87 -89 -135 -235 -135c-1 -27 9 -59 53 -59c19 0 43 12 58 24c6 5 17 6 25 -4l42 -55c6 -7 4 -20 -2 -27c-39 -40 -88 -59 -143 -59c-103 0 -164 83 -164 175zM155 246c0 0 99 3 99 40c0 13 -11 20 -24 20
c-29 0 -65 -26 -75 -60z" />
    <glyph glyph-name="f" unicode="f" horiz-adv-x="343" 
d="M43 273c-10 0 -15 9 -14 19l13 89c1 11 9 19 19 19h32l13 92c20 140 103 218 223 218c46 0 93 -23 106 -38c5 -5 5 -16 0 -23l-48 -78c-4 -6 -14 -11 -21 -7c-11 6 -29 11 -46 11c-37 0 -54 -34 -61 -83l-13 -92h78c10 0 17 -8 16 -19l-13 -89c-1 -10 -11 -19 -21 -19
h-78l-75 -554c-1 -10 -11 -19 -20 -19h-119c-9 0 -15 9 -14 19l75 554h-32z" />
    <glyph glyph-name="g" unicode="g" horiz-adv-x="479" 
d="M46 -97c12 14 25 8 33 0c10 -11 37 -37 77 -37c34 0 69 24 80 102l4 38s-34 -16 -73 -16c-79 0 -153 80 -153 182c0 128 91 237 208 237c91 0 119 -63 119 -63l17 40c4 10 12 14 22 14h47c9 0 16 -8 14 -19l-57 -413c-23 -159 -101 -228 -221 -228c-92 0 -149 57 -160 73
c-6 8 -16 19 -2 36zM206 120c45 0 79 38 79 89c0 39 -24 70 -56 70c-37 0 -76 -40 -76 -91c0 -38 22 -68 53 -68z" />
    <glyph glyph-name="h" unicode="h" horiz-adv-x="498" 
d="M16 19l93 662c1 10 11 19 20 19h115c9 0 16 -9 15 -19l-42 -294c29 19 63 23 79 23c109 0 166 -99 150 -210l-25 -181c-2 -10 -11 -19 -20 -19h-111c-10 0 -15 9 -14 19l25 181c7 44 -13 79 -51 79c-20 0 -50 -11 -59 -79l-25 -181c-2 -13 -7 -19 -23 -19h-113
c-9 0 -16 9 -14 19z" />
    <glyph glyph-name="i" unicode="i" horiz-adv-x="255" 
d="M161 521c-39 0 -67 31 -67 69c0 49 42 90 89 90c39 0 68 -32 68 -70c0 -50 -44 -89 -90 -89zM16 19l51 362c2 11 11 19 20 19h115c9 0 16 -8 15 -19l-51 -362c-1 -10 -11 -19 -20 -19h-115c-9 0 -16 9 -15 19z" />
    <glyph glyph-name="j" unicode="j" horiz-adv-x="256" 
d="M162 521c-39 0 -67 31 -67 69c0 49 42 90 90 90c39 0 67 -32 67 -70c0 -50 -43 -89 -90 -89zM1 -92l66 473c2 11 11 19 20 19h117c9 0 16 -8 14 -19l-67 -473c-19 -140 -99 -218 -223 -218c-46 0 -94 22 -107 38c-4 5 -4 16 0 23l47 80c5 9 16 10 22 7
c10 -5 30 -13 47 -13c40 0 57 34 64 83z" />
    <glyph glyph-name="k" unicode="k" horiz-adv-x="479" 
d="M16 19l93 662c1 10 10 19 19 19h115c9 0 16 -9 15 -19l-61 -433l112 140c5 6 12 12 24 12h126c16 0 23 -16 11 -31l-143 -168l97 -171c8 -14 -3 -30 -18 -30h-123c-5 0 -10 3 -12 8l-83 174l-23 -163c-2 -10 -11 -19 -20 -19h-115c-9 0 -16 9 -14 19z" />
    <glyph glyph-name="l" unicode="l" horiz-adv-x="254" 
d="M16 19l93 662c1 10 11 19 20 19h114c9 0 16 -9 15 -19l-93 -662c-1 -10 -11 -19 -20 -19h-115c-9 0 -15 9 -14 19z" />
    <glyph glyph-name="m" unicode="m" horiz-adv-x="725" 
d="M16 19l50 362c2 11 10 19 20 19h47c6 0 11 -5 14 -11l11 -41c26 29 76 62 130 62c50 0 79 -22 107 -62c24 28 75 62 134 62c108 0 159 -96 143 -210l-25 -181c-2 -10 -10 -19 -20 -19h-109c-10 0 -16 9 -14 19l26 189c6 40 -4 71 -42 71c-30 0 -57 -23 -63 -64l-28 -196
c-2 -10 -10 -19 -20 -19h-99c-10 0 -16 9 -14 19l26 189c6 40 -3 71 -41 71c-30 0 -57 -25 -63 -66l-27 -194c-2 -10 -11 -19 -20 -19h-109c-10 0 -16 9 -14 19z" />
    <glyph glyph-name="n" unicode="n" horiz-adv-x="494" 
d="M16 19l50 362c2 11 11 19 20 19h48c5 0 12 -5 14 -12l11 -40c26 27 71 62 135 62c104 0 165 -96 149 -210l-25 -181c-2 -10 -11 -19 -20 -19h-111c-10 0 -16 9 -14 19l26 189c6 40 -8 71 -47 71c-29 0 -61 -25 -67 -66l-27 -194c-2 -14 -16 -19 -27 -19h-101
c-9 0 -16 9 -14 19z" />
    <glyph glyph-name="o" unicode="o" horiz-adv-x="430" 
d="M13 175c0 127 87 235 217 235c91 0 165 -83 165 -187c0 -128 -92 -233 -217 -233c-90 0 -165 80 -165 185zM193 120c38 0 74 41 74 92c0 37 -22 67 -52 67c-38 0 -73 -41 -73 -92c0 -37 21 -67 51 -67z" />
    <glyph glyph-name="p" unicode="p" horiz-adv-x="480" 
d="M164 6l-41 -287c-2 -16 -17 -19 -25 -19h-109c-9 0 -16 9 -15 19l93 662c2 11 11 19 20 19h47c6 0 13 -5 15 -12l11 -40c25 29 67 62 132 62c87 0 153 -83 153 -181c0 -135 -101 -239 -218 -239c-33 0 -63 16 -63 16zM173 190c-2 -33 21 -70 57 -70c39 0 75 41 75 91
c0 38 -23 68 -54 68c-38 0 -78 -40 -78 -89z" />
    <glyph glyph-name="q" unicode="q" horiz-adv-x="479" 
d="M168 -10c-94 0 -154 85 -154 187c0 128 91 233 208 233c84 0 119 -64 119 -64l20 41c4 8 10 13 19 13h47c9 0 16 -8 14 -19l-93 -663c-1 -10 -10 -19 -19 -19h-115c-9 0 -16 9 -15 19l41 288s-32 -16 -72 -16zM206 120c45 0 79 38 79 89c0 39 -24 70 -56 70
c-37 0 -76 -40 -76 -91c0 -38 22 -68 53 -68z" />
    <glyph glyph-name="r" unicode="r" horiz-adv-x="328" 
d="M16 19l51 362c1 11 10 19 19 19h48c8 0 13 -5 15 -12l12 -44s42 66 105 66c34 0 59 -11 68 -19c7 -6 8 -14 2 -23l-61 -85c-6 -9 -14 -10 -20 -7c-4 2 -10 4 -18 4c-21 0 -44 -20 -49 -54l-29 -207c-2 -12 -6 -19 -22 -19h-107c-9 0 -16 9 -14 19z" />
    <glyph glyph-name="s" unicode="s" horiz-adv-x="347" 
d="M3 24c-6 6 -10 12 -4 21l41 73c4 6 13 11 22 6c19 -11 46 -19 67 -19c18 0 25 9 25 18c0 13 -11 22 -40 39c-54 32 -86 66 -86 115c0 71 56 133 159 133c59 0 109 -23 124 -33c7 -5 8 -13 2 -23l-39 -70c-4 -6 -12 -9 -19 -6c-15 7 -40 18 -71 18c-15 0 -22 -6 -22 -14
c0 -12 12 -20 31 -31c61 -35 106 -66 106 -124c0 -81 -58 -137 -175 -137c-59 0 -106 21 -121 34z" />
    <glyph glyph-name="t" unicode="t" horiz-adv-x="333" 
d="M55 129l20 144h-34c-9 0 -14 9 -13 19l12 89c1 11 10 19 19 19h34l15 111c1 10 11 19 20 19h112c9 0 14 -9 13 -19l-15 -111h58c10 0 15 -8 14 -19l-12 -89c-1 -10 -10 -19 -20 -19h-58l-17 -124c-3 -22 13 -24 21 -24c11 0 18 2 27 4c8 2 17 -2 18 -13l8 -74
c2 -15 -7 -24 -15 -29c-10 -6 -62 -23 -113 -23c-64 0 -107 48 -94 139z" />
    <glyph glyph-name="u" unicode="u" horiz-adv-x="481" 
d="M163 -10c-102 0 -147 78 -129 210l26 181c1 11 10 19 19 19h111c9 0 16 -8 15 -19l-27 -188c-7 -49 5 -73 34 -73c33 0 55 30 60 67l28 194c2 13 6 19 26 19h101c9 0 16 -8 15 -19l-51 -362c-1 -10 -11 -19 -20 -19h-48c-8 0 -12 6 -14 12l-11 39
c-20 -24 -66 -61 -135 -61z" />
    <glyph glyph-name="v" unicode="v" horiz-adv-x="391" 
d="M137 0l-121 373c-5 13 6 27 19 27h103c9 0 13 -5 15 -11l32 -130h3l63 130c4 9 9 11 22 11h114c14 0 20 -14 12 -27l-227 -373c-3 -5 -9 -10 -16 -10h-5c-8 0 -13 5 -14 10z" />
    <glyph glyph-name="w" unicode="w" horiz-adv-x="570" 
d="M94 2l-71 373c-3 13 7 25 19 25h90c7 0 14 -5 15 -12l29 -133h1l103 137c3 4 6 8 15 8h10c6 0 10 -4 12 -8l64 -137h1l62 133c5 9 6 12 21 12h95c13 0 20 -12 14 -25l-178 -373c-3 -7 -8 -12 -17 -12h-4c-7 0 -11 4 -13 8l-91 192l-143 -192c-3 -5 -8 -8 -16 -8h-4
c-8 0 -13 5 -14 12z" />
    <glyph glyph-name="x" unicode="x" horiz-adv-x="439" 
d="M-8 0c-15 0 -20 17 -9 30l150 178l-100 166c-8 13 0 26 15 26h113c7 0 12 -4 14 -8l45 -84h1l57 84c3 4 8 8 16 8h129c15 0 21 -17 10 -30l-146 -174l99 -169c8 -13 -1 -27 -15 -27h-112c-5 0 -11 4 -13 9l-46 92h-2l-65 -93c-3 -4 -8 -8 -16 -8h-125z" />
    <glyph glyph-name="y" unicode="y" horiz-adv-x="424" 
d="M104 45l-84 333c-3 13 4 22 18 22h102c6 0 12 -5 13 -11l44 -183h1l89 183c3 6 9 11 17 11h116c13 0 18 -13 11 -26l-368 -662c-3 -6 -10 -12 -17 -12h-117c-13 0 -18 11 -10 25z" />
    <glyph glyph-name="z" unicode="z" horiz-adv-x="347" 
d="M11 0c-9 0 -17 9 -15 19l2 10l125 240v2h-66c-9 0 -15 9 -14 19l13 91c2 11 10 19 19 19h248c14 0 19 -13 12 -27l-136 -243v-2h68c10 0 15 -8 14 -19l-12 -90c-1 -10 -10 -19 -20 -19h-238z" />
    <glyph glyph-name="braceleft" unicode="{" horiz-adv-x="358" 
d="M52 -19l14 104c6 45 -32 60 -54 64c-7 1 -11 8 -10 18l8 58c1 8 8 16 15 18c0 0 67 23 73 64l15 111c37 259 172 287 266 292c10 1 17 -6 16 -17l-8 -85c-1 -13 -9 -17 -15 -19c-65 -18 -108 -73 -123 -171l-14 -91c-12 -79 -94 -128 -94 -128v-4c21 -11 68 -48 59 -120
l-12 -94c-13 -98 14 -153 75 -171c5 -2 11 -6 9 -19l-16 -84c-2 -10 -11 -18 -20 -17c-92 6 -212 78 -184 291z" />
    <glyph glyph-name="bar" unicode="|" horiz-adv-x="167" 
d="M-21 -282l144 1023c1 11 10 19 19 19h18c9 0 15 -8 14 -19l-144 -1023c-1 -10 -11 -18 -20 -18h-16c-9 0 -16 8 -15 18z" />
    <glyph glyph-name="braceright" unicode="}" horiz-adv-x="357" 
d="M87 -19l13 94c10 72 68 109 93 120v4s-69 49 -58 128l13 91c14 98 -14 153 -75 171c-7 2 -11 11 -10 19l16 85c2 11 11 18 20 17c92 -6 214 -76 185 -292l-15 -111c-6 -41 54 -64 54 -64c5 -2 10 -10 9 -18l-8 -58c-1 -8 -9 -17 -16 -18c-22 -4 -65 -19 -71 -64l-14 -104
c-35 -262 -173 -285 -266 -291c-9 -1 -17 7 -16 17l8 84c1 8 8 17 16 19c64 18 108 73 122 171z" />
    <glyph glyph-name="asciitilde" unicode="~" horiz-adv-x="486" 
d="M70 174l-53 61c-6 6 -5 17 2 24c0 0 74 102 159 102c36 0 60 -19 83 -39c20 -16 35 -31 61 -31c21 0 46 27 62 47c8 10 19 10 26 1l50 -59c5 -6 5 -18 -1 -25c0 0 -69 -101 -155 -101c-46 0 -71 21 -98 44c-16 14 -29 24 -48 24c-21 0 -45 -27 -61 -46
c-9 -10 -20 -10 -27 -2z" />
    <glyph glyph-name="uni00A0" unicode="&#xa0;" horiz-adv-x="224" 
 />
    <glyph glyph-name="Agrave" unicode="&#xc0;" 
d="M-25 0c-14 0 -19 13 -12 26l379 673c4 6 9 11 17 11h9c7 0 12 -5 14 -11l188 -673c4 -13 -5 -26 -19 -26h-113c-18 0 -28 5 -32 25l-17 79h-221l-39 -80c-6 -13 -19 -24 -40 -24h-114zM239 240h112l-31 167h-1zM437 762l-157 82c-7 4 -11 15 -1 30l39 55c6 9 15 10 24 3
l142 -104c5 -3 8 -11 3 -19l-24 -38c-6 -10 -15 -15 -26 -9z" />
    <glyph glyph-name="Aacute" unicode="&#xc1;" 
d="M-25 0c-14 0 -19 13 -12 26l379 673c4 6 9 11 17 11h9c7 0 12 -5 14 -11l188 -673c4 -13 -5 -26 -19 -26h-113c-18 0 -28 5 -32 25l-17 79h-221l-39 -80c-6 -13 -19 -24 -40 -24h-114zM239 240h112l-31 167h-1zM306 762c-13 -6 -19 -1 -23 9l-18 47c-3 8 2 16 8 19
l172 104c6 4 19 6 25 -7l26 -60c6 -15 -1 -26 -10 -30z" />
    <glyph glyph-name="Acircumflex" unicode="&#xc2;" 
d="M-25 0c-14 0 -19 13 -12 26l379 673c4 6 9 11 17 11h9c7 0 12 -5 14 -11l188 -673c4 -13 -5 -26 -19 -26h-113c-18 0 -28 5 -32 25l-17 79h-221l-39 -80c-6 -13 -19 -24 -40 -24h-114zM239 240h112l-31 167h-1zM273 762c-10 -6 -14 -4 -19 4l-27 47c-4 7 0 14 8 19
l139 104c9 6 18 6 24 0l114 -104c4 -4 8 -12 3 -19l-36 -46c-5 -7 -15 -8 -19 -5l-81 60z" />
    <glyph glyph-name="Atilde" unicode="&#xc3;" 
d="M-25 0c-14 0 -19 13 -12 26l379 673c4 6 9 11 17 11h9c7 0 12 -5 14 -11l188 -673c4 -13 -5 -26 -19 -26h-113c-18 0 -28 5 -32 25l-17 79h-221l-39 -80c-6 -13 -19 -24 -40 -24h-114zM239 240h112l-31 167h-1zM268 785l-32 28c-6 6 -5 16 -2 23c9 19 48 84 106 84
c41 0 60 -47 95 -47c15 0 29 17 35 28s14 14 25 5l31 -26c7 -5 3 -15 -3 -29c-7 -16 -41 -78 -99 -78c-47 0 -66 48 -97 48c-15 0 -28 -17 -35 -30c-5 -10 -15 -14 -24 -6z" />
    <glyph glyph-name="Adieresis" unicode="&#xc4;" 
d="M-25 0c-14 0 -19 13 -12 26l379 673c4 6 9 11 17 11h9c7 0 12 -5 14 -11l188 -673c4 -13 -5 -26 -19 -26h-113c-18 0 -28 5 -32 25l-17 79h-221l-39 -80c-6 -13 -19 -24 -40 -24h-114zM239 240h112l-31 167h-1zM490 768c-35 0 -59 32 -53 71c5 39 37 70 72 70
s60 -31 55 -70c-6 -39 -39 -71 -74 -71zM251 768c-35 0 -59 32 -53 71c5 39 37 70 72 70s60 -31 55 -70c-6 -39 -39 -71 -74 -71z" />
    <glyph glyph-name="Amacron" unicode="&#x100;" 
d="M-25 0c-14 0 -19 13 -12 26l379 673c4 6 9 11 17 11h9c7 0 12 -5 14 -11l188 -673c4 -13 -5 -26 -19 -26h-113c-18 0 -28 5 -32 25l-17 79h-221l-39 -80c-6 -13 -19 -24 -40 -24h-114zM239 240h112l-31 167h-1zM258 801c-10 0 -16 8 -15 18l6 41c2 11 10 19 20 19h232
c10 0 16 -8 14 -19l-7 -41c-2 -10 -10 -18 -20 -18h-230z" />
    <glyph glyph-name="Abreve" unicode="&#x102;" 
d="M-25 0c-14 0 -19 13 -12 26l379 673c4 6 9 11 17 11h9c7 0 12 -5 14 -11l188 -673c4 -13 -5 -26 -19 -26h-113c-18 0 -28 5 -32 25l-17 79h-221l-39 -80c-6 -13 -19 -24 -40 -24h-114zM239 240h112l-31 167h-1zM373 763c-63 0 -113 52 -112 120c0 12 9 22 20 22h43
c6 0 12 -6 13 -12c4 -27 21 -48 44 -48c21 0 45 24 56 48c3 7 9 12 17 12h50c11 0 18 -10 15 -22c-16 -69 -71 -120 -146 -120z" />
    <glyph glyph-name="Aring" unicode="&#xc5;" 
d="M-25 0c-14 0 -19 13 -12 26l379 673c4 6 9 11 17 11h9c7 0 12 -5 14 -11l188 -673c4 -13 -5 -26 -19 -26h-113c-18 0 -28 5 -32 25l-17 79h-221l-39 -80c-6 -13 -19 -24 -40 -24h-114zM239 240h112l-31 167h-1zM370 752c-49 0 -92 44 -92 100c0 72 53 130 120 130
c50 0 92 -45 92 -100c0 -72 -52 -130 -120 -130zM378 823c21 0 42 24 42 50c0 20 -13 37 -30 37c-20 0 -42 -23 -42 -49c0 -20 13 -38 30 -38z" />
    <glyph glyph-name="Aringacute" unicode="&#x1fa;" 
d="M325 884c-13 -6 -19 -1 -23 9l-18 47c-3 8 2 16 8 19l172 104c6 4 19 6 25 -7l26 -60c6 -15 -1 -26 -10 -30zM-25 0c-14 0 -19 13 -12 26l353 628c-29 16 -50 50 -50 89c0 72 53 130 120 130c50 0 92 -45 92 -100c0 -58 -34 -107 -82 -124l174 -623c4 -13 -5 -26 -19 -26
h-113c-18 0 -28 5 -32 25l-17 79h-221l-39 -80c-6 -13 -19 -24 -40 -24h-114zM366 714c21 0 42 24 42 50c0 20 -13 37 -30 37c-20 0 -42 -23 -42 -49c0 -20 13 -38 30 -38zM239 240h112l-31 167h-1z" />
    <glyph glyph-name="Aogonek" unicode="&#x104;" 
d="M-25 0c-14 0 -19 13 -12 26l379 673c4 6 9 11 17 11h9c7 0 12 -5 14 -11l188 -673c4 -13 -5 -26 -19 -26h-83c-21 -20 -54 -59 -54 -107c0 -29 15 -55 57 -55c13 0 25 4 34 6c14 3 21 -7 19 -19l-5 -33c-1 -9 -9 -17 -17 -19c-8 -3 -34 -8 -56 -8c-59 0 -116 32 -116 97
c0 80 59 134 79 148l-20 94h-221l-39 -80c-6 -13 -19 -24 -40 -24h-114zM239 240h112l-31 167h-1z" />
    <glyph glyph-name="AE" unicode="&#xc6;" horiz-adv-x="817" 
d="M-39 0c-14 0 -16 13 -7 26l451 643c14 20 21 31 44 31h361c10 0 15 -9 14 -19l-15 -109c-1 -10 -10 -19 -20 -19h-233l-17 -124h189c9 0 15 -9 14 -19l-15 -109c-2 -11 -11 -19 -20 -19h-189l-19 -135h233c10 0 15 -9 14 -19l-15 -109c-1 -10 -10 -19 -20 -19h-372
c-10 0 -15 9 -14 19l12 85h-142l-69 -93c-4 -6 -13 -11 -19 -11h-146zM267 240h89l26 175z" />
    <glyph glyph-name="AEacute" unicode="&#x1fc;" horiz-adv-x="817" 
d="M-39 0c-14 0 -16 13 -7 26l451 643c14 20 21 31 44 31h361c10 0 15 -9 14 -19l-15 -109c-1 -10 -10 -19 -20 -19h-233l-17 -124h189c9 0 15 -9 14 -19l-15 -109c-2 -11 -11 -19 -20 -19h-189l-19 -135h233c10 0 15 -9 14 -19l-15 -109c-1 -10 -10 -19 -20 -19h-372
c-10 0 -15 9 -14 19l12 85h-142l-69 -93c-4 -6 -13 -11 -19 -11h-146zM267 240h89l26 175zM571 763c-13 -6 -19 -1 -23 9l-18 47c-3 8 2 16 8 19l172 104c6 4 19 6 25 -7l26 -60c6 -15 -1 -26 -10 -30z" />
    <glyph glyph-name="Cacute" unicode="&#x106;" horiz-adv-x="616" 
d="M45 305c0 228 159 405 375 405c89 0 157 -31 210 -93c6 -8 5 -20 -4 -28l-86 -76c-8 -7 -17 -6 -23 0c-25 28 -68 46 -108 46c-103 0 -191 -110 -191 -237c0 -94 53 -172 135 -172c34 0 81 23 116 52c7 6 19 5 24 -1l68 -90c6 -8 2 -20 -5 -27c-71 -66 -146 -94 -226 -94
c-151 0 -285 139 -285 315zM363 762c-13 -6 -19 -1 -23 9l-18 47c-3 8 2 16 8 19l172 104c6 4 19 6 25 -7l26 -60c6 -15 -1 -26 -10 -30z" />
    <glyph glyph-name="Ccircumflex" unicode="&#x108;" horiz-adv-x="616" 
d="M45 305c0 228 159 405 375 405c89 0 157 -31 210 -93c6 -8 5 -20 -4 -28l-86 -76c-8 -7 -17 -6 -23 0c-25 28 -68 46 -108 46c-103 0 -191 -110 -191 -237c0 -94 53 -172 135 -172c34 0 81 23 116 52c7 6 19 5 24 -1l68 -90c6 -8 2 -20 -5 -27c-71 -66 -146 -94 -226 -94
c-151 0 -285 139 -285 315zM330 762c-10 -6 -14 -4 -19 4l-27 47c-4 7 0 14 8 19l139 104c9 6 18 6 24 0l114 -104c4 -4 8 -12 3 -19l-36 -46c-5 -7 -15 -8 -19 -5l-81 60z" />
    <glyph glyph-name="Ccaron" unicode="&#x10c;" horiz-adv-x="616" 
d="M45 305c0 228 159 405 375 405c89 0 157 -31 210 -93c6 -8 5 -20 -4 -28l-86 -76c-8 -7 -17 -6 -23 0c-25 28 -68 46 -108 46c-103 0 -191 -110 -191 -237c0 -94 53 -172 135 -172c34 0 81 23 116 52c7 6 19 5 24 -1l68 -90c6 -8 2 -20 -5 -27c-71 -66 -146 -94 -226 -94
c-151 0 -285 139 -285 315zM416 762l-114 104c-4 4 -8 12 -3 19l36 46c5 7 15 8 19 5l81 -60l106 60c10 6 14 4 19 -4l27 -47c4 -7 0 -14 -8 -19l-139 -104c-9 -6 -18 -6 -24 0z" />
    <glyph glyph-name="Cdotaccent" unicode="&#x10a;" horiz-adv-x="616" 
d="M45 305c0 228 159 405 375 405c89 0 157 -31 210 -93c6 -8 5 -20 -4 -28l-86 -76c-8 -7 -17 -6 -23 0c-25 28 -68 46 -108 46c-103 0 -191 -110 -191 -237c0 -94 53 -172 135 -172c34 0 81 23 116 52c7 6 19 5 24 -1l68 -90c6 -8 2 -20 -5 -27c-71 -66 -146 -94 -226 -94
c-151 0 -285 139 -285 315zM427 774c-38 0 -65 31 -65 69c0 49 41 90 87 90c39 0 67 -32 67 -70c0 -49 -43 -89 -89 -89z" />
    <glyph glyph-name="Ccedilla" unicode="&#xc7;" horiz-adv-x="618" 
d="M270 -2c-124 30 -224 155 -224 307c0 228 159 405 375 405c89 0 157 -31 210 -93c6 -8 5 -20 -4 -28l-86 -76c-8 -7 -17 -6 -23 0c-25 28 -68 46 -108 46c-103 0 -191 -110 -191 -237c0 -94 53 -172 135 -172c34 0 81 23 116 52c7 6 19 5 24 -1l68 -90c6 -8 2 -20 -5 -27
c-69 -64 -141 -92 -218 -94l-6 -42c46 -11 67 -44 67 -87c0 -69 -42 -121 -109 -121c-29 0 -55 18 -66 35c-6 9 -5 15 4 24l22 24c6 7 15 5 21 -1c5 -5 11 -9 20 -9c15 0 31 14 31 38c0 15 -7 31 -53 36c-13 1 -15 10 -13 18z" />
    <glyph glyph-name="Dcaron" unicode="&#x10e;" horiz-adv-x="678" 
d="M47 19l93 662c1 10 10 19 19 19h223c158 0 271 -149 271 -304c0 -217 -158 -396 -369 -396h-224c-9 0 -15 9 -13 19zM222 148h75c103 0 189 105 189 236c0 94 -51 169 -132 169h-75zM349 762l-114 104c-4 4 -8 12 -3 19l36 46c5 7 15 8 19 5l81 -60l106 60
c10 6 14 4 19 -4l27 -47c4 -7 0 -14 -8 -19l-139 -104c-9 -6 -18 -6 -24 0z" />
    <glyph glyph-name="Dcroat" unicode="&#x110;" horiz-adv-x="683" 
d="M52 19l42 300h-26c-9 0 -16 9 -14 19l3 17c2 10 9 19 18 19h27l43 307c1 10 10 19 19 19h223c158 0 271 -143 271 -304c0 -217 -161 -396 -369 -396h-224c-9 0 -15 9 -13 19zM227 148h75c103 0 189 105 189 236c0 94 -51 169 -132 169h-75l-26 -179h114
c10 0 17 -9 15 -19l-3 -18c-2 -10 -10 -18 -20 -18h-113z" />
    <glyph glyph-name="Eth" unicode="&#xd0;" horiz-adv-x="683" 
d="M52 19l42 300h-26c-9 0 -16 9 -14 19l3 17c2 10 9 19 18 19h27l43 307c1 10 10 19 19 19h223c158 0 271 -143 271 -304c0 -217 -161 -396 -369 -396h-224c-9 0 -15 9 -13 19zM227 148h75c103 0 189 105 189 236c0 94 -51 169 -132 169h-75l-26 -179h114
c10 0 17 -9 15 -19l-3 -18c-2 -10 -10 -18 -20 -18h-113z" />
    <glyph glyph-name="Egrave" unicode="&#xc8;" horiz-adv-x="544" 
d="M47 19l93 662c1 10 10 19 19 19h377c10 0 16 -9 15 -19l-16 -109c-1 -10 -9 -19 -19 -19h-238l-18 -124h194c9 0 16 -9 15 -19l-16 -109c-2 -11 -11 -19 -20 -19h-193l-19 -135h238c10 0 15 -9 14 -19l-15 -109c-1 -10 -10 -19 -20 -19h-377c-10 0 -16 9 -14 19zM425 762
l-157 82c-7 4 -11 15 -1 30l39 55c6 9 15 10 24 3l142 -104c5 -3 8 -11 3 -19l-24 -38c-6 -10 -15 -15 -26 -9z" />
    <glyph glyph-name="Eacute" unicode="&#xc9;" horiz-adv-x="544" 
d="M47 19l93 662c1 10 10 19 19 19h377c10 0 16 -9 15 -19l-16 -109c-1 -10 -9 -19 -19 -19h-238l-18 -124h194c9 0 16 -9 15 -19l-16 -109c-2 -11 -11 -19 -20 -19h-193l-19 -135h238c10 0 15 -9 14 -19l-15 -109c-1 -10 -10 -19 -20 -19h-377c-10 0 -16 9 -14 19zM292 762
c-13 -6 -19 -1 -23 9l-18 47c-3 8 2 16 8 19l172 104c6 4 19 6 25 -7l26 -60c6 -15 -1 -26 -10 -30z" />
    <glyph glyph-name="Ecircumflex" unicode="&#xca;" horiz-adv-x="544" 
d="M47 19l93 662c1 10 10 19 19 19h377c10 0 16 -9 15 -19l-16 -109c-1 -10 -9 -19 -19 -19h-238l-18 -124h194c9 0 16 -9 15 -19l-16 -109c-2 -11 -11 -19 -20 -19h-193l-19 -135h238c10 0 15 -9 14 -19l-15 -109c-1 -10 -10 -19 -20 -19h-377c-10 0 -16 9 -14 19zM260 762
c-10 -6 -14 -4 -19 4l-27 47c-4 7 0 14 8 19l139 104c9 6 18 6 24 0l114 -104c4 -4 8 -12 3 -19l-36 -46c-5 -7 -15 -8 -19 -5l-81 60z" />
    <glyph glyph-name="Ecaron" unicode="&#x11a;" horiz-adv-x="544" 
d="M47 19l93 662c1 10 10 19 19 19h377c10 0 16 -9 15 -19l-16 -109c-1 -10 -9 -19 -19 -19h-238l-18 -124h194c9 0 16 -9 15 -19l-16 -109c-2 -11 -11 -19 -20 -19h-193l-19 -135h238c10 0 15 -9 14 -19l-15 -109c-1 -10 -10 -19 -20 -19h-377c-10 0 -16 9 -14 19zM342 762
l-114 104c-4 4 -8 12 -3 19l36 46c5 7 15 8 19 5l81 -60l106 60c10 6 14 4 19 -4l27 -47c4 -7 0 -14 -8 -19l-139 -104c-9 -6 -18 -6 -24 0z" />
    <glyph glyph-name="Edieresis" unicode="&#xcb;" horiz-adv-x="544" 
d="M47 19l93 662c1 10 10 19 19 19h377c10 0 16 -9 15 -19l-16 -109c-1 -10 -9 -19 -19 -19h-238l-18 -124h194c9 0 16 -9 15 -19l-16 -109c-2 -11 -11 -19 -20 -19h-193l-19 -135h238c10 0 15 -9 14 -19l-15 -109c-1 -10 -10 -19 -20 -19h-377c-10 0 -16 9 -14 19zM476 768
c-35 0 -59 32 -53 71c5 39 37 70 72 70s60 -31 55 -70c-6 -39 -39 -71 -74 -71zM237 768c-35 0 -59 32 -53 71c5 39 37 70 72 70s60 -31 55 -70c-6 -39 -39 -71 -74 -71z" />
    <glyph glyph-name="Emacron" unicode="&#x112;" horiz-adv-x="544" 
d="M47 19l93 662c1 10 10 19 19 19h377c10 0 16 -9 15 -19l-16 -109c-1 -10 -9 -19 -19 -19h-238l-18 -124h194c9 0 16 -9 15 -19l-16 -109c-2 -11 -11 -19 -20 -19h-193l-19 -135h238c10 0 15 -9 14 -19l-15 -109c-1 -10 -10 -19 -20 -19h-377c-10 0 -16 9 -14 19zM246 801
c-10 0 -16 8 -15 18l6 41c2 11 10 19 20 19h232c10 0 16 -8 14 -19l-7 -41c-2 -10 -10 -18 -20 -18h-230z" />
    <glyph glyph-name="Ebreve" unicode="&#x114;" horiz-adv-x="544" 
d="M47 19l93 662c1 10 10 19 19 19h377c10 0 16 -9 15 -19l-16 -109c-1 -10 -9 -19 -19 -19h-238l-18 -124h194c9 0 16 -9 15 -19l-16 -109c-2 -11 -11 -19 -20 -19h-193l-19 -135h238c10 0 15 -9 14 -19l-15 -109c-1 -10 -10 -19 -20 -19h-377c-10 0 -16 9 -14 19zM359 763
c-63 0 -113 52 -112 120c0 12 9 22 20 22h43c6 0 12 -6 13 -12c4 -27 21 -48 44 -48c21 0 45 24 56 48c3 7 9 12 17 12h50c11 0 18 -10 15 -22c-16 -69 -71 -120 -146 -120z" />
    <glyph glyph-name="Edotaccent" unicode="&#x116;" horiz-adv-x="544" 
d="M47 19l93 662c1 10 10 19 19 19h377c10 0 16 -9 15 -19l-16 -109c-1 -10 -9 -19 -19 -19h-238l-18 -124h194c9 0 16 -9 15 -19l-16 -109c-2 -11 -11 -19 -20 -19h-193l-19 -135h238c10 0 15 -9 14 -19l-15 -109c-1 -10 -10 -19 -20 -19h-377c-10 0 -16 9 -14 19zM357 774
c-38 0 -65 31 -65 69c0 49 41 90 87 90c39 0 67 -32 67 -70c0 -49 -43 -89 -89 -89z" />
    <glyph glyph-name="Eogonek" unicode="&#x118;" horiz-adv-x="544" 
d="M47 19l93 662c1 10 10 19 19 19h377c10 0 16 -9 15 -19l-16 -109c-1 -10 -9 -19 -19 -19h-238l-18 -124h194c9 0 16 -9 15 -19l-16 -109c-2 -11 -11 -19 -20 -19h-193l-19 -135h238c10 0 15 -9 14 -19l-13 -97c-2 -17 -13 -23 -21 -31c-21 -20 -54 -59 -54 -107
c0 -29 15 -55 57 -55c13 0 25 4 34 6c14 3 21 -7 19 -19l-5 -33c-1 -9 -9 -17 -17 -19c-8 -3 -34 -8 -56 -8c-59 0 -116 32 -116 97c0 66 43 115 68 138h-308c-10 0 -16 9 -14 19z" />
    <glyph glyph-name="Gcircumflex" unicode="&#x11c;" horiz-adv-x="644" 
d="M46 309c0 220 157 401 375 401c72 0 154 -35 207 -94c8 -7 7 -19 -1 -27l-82 -81c-8 -8 -20 -7 -26 -1c-27 27 -67 44 -108 44c-97 0 -191 -106 -191 -230c0 -93 57 -171 136 -171c10 0 41 1 64 16l8 58h-46c-10 0 -16 8 -15 18l14 99c2 11 10 19 20 19h187
c9 0 15 -9 14 -19l-37 -269c-1 -9 -6 -13 -10 -16c0 0 -102 -66 -232 -66c-155 0 -277 142 -277 319zM327 762c-10 -6 -14 -4 -19 4l-27 47c-4 7 0 14 8 19l139 104c9 6 18 6 24 0l114 -104c4 -4 8 -12 3 -19l-36 -46c-5 -7 -15 -8 -19 -5l-81 60z" />
    <glyph glyph-name="Gbreve" unicode="&#x11e;" horiz-adv-x="644" 
d="M46 309c0 220 157 401 375 401c72 0 154 -35 207 -94c8 -7 7 -19 -1 -27l-82 -81c-8 -8 -20 -7 -26 -1c-27 27 -67 44 -108 44c-97 0 -191 -106 -191 -230c0 -93 57 -171 136 -171c10 0 41 1 64 16l8 58h-46c-10 0 -16 8 -15 18l14 99c2 11 10 19 20 19h187
c9 0 15 -9 14 -19l-37 -269c-1 -9 -6 -13 -10 -16c0 0 -102 -66 -232 -66c-155 0 -277 142 -277 319zM428 763c-63 0 -113 52 -112 120c0 12 9 22 20 22h43c6 0 12 -6 13 -12c4 -27 21 -48 44 -48c21 0 45 24 56 48c3 7 9 12 17 12h50c11 0 18 -10 15 -22
c-16 -69 -71 -120 -146 -120z" />
    <glyph glyph-name="Gdotaccent" unicode="&#x120;" horiz-adv-x="644" 
d="M46 309c0 220 157 401 375 401c72 0 154 -35 207 -94c8 -7 7 -19 -1 -27l-82 -81c-8 -8 -20 -7 -26 -1c-27 27 -67 44 -108 44c-97 0 -191 -106 -191 -230c0 -93 57 -171 136 -171c10 0 41 1 64 16l8 58h-46c-10 0 -16 8 -15 18l14 99c2 11 10 19 20 19h187
c9 0 15 -9 14 -19l-37 -269c-1 -9 -6 -13 -10 -16c0 0 -102 -66 -232 -66c-155 0 -277 142 -277 319zM425 774c-38 0 -65 31 -65 69c0 49 41 90 87 90c39 0 67 -32 67 -70c0 -49 -43 -89 -89 -89z" />
    <glyph glyph-name="Gcommaaccent" unicode="&#x122;" horiz-adv-x="644" 
d="M46 309c0 220 157 401 375 401c72 0 154 -35 207 -94c8 -7 7 -19 -1 -27l-82 -81c-8 -8 -20 -7 -26 -1c-27 27 -67 44 -108 44c-97 0 -191 -106 -191 -230c0 -93 57 -171 136 -171c10 0 41 1 64 16l8 58h-46c-10 0 -16 8 -15 18l14 99c2 11 10 19 20 19h187
c9 0 15 -9 14 -19l-37 -269c-1 -9 -6 -13 -10 -16c0 0 -102 -66 -232 -66c-155 0 -277 142 -277 319zM315 -90c31 0 71 -25 71 -93c0 -119 -86 -183 -112 -202c-9 -7 -15 -5 -18 -1l-14 19c-5 7 -4 15 5 21c11 7 71 52 82 120c1 0 -18 -7 -42 -7c-34 0 -59 27 -59 62
c0 44 38 81 87 81z" />
    <glyph glyph-name="Hcircumflex" unicode="&#x124;" horiz-adv-x="715" 
d="M47 19l93 662c1 10 11 19 20 19h122c10 0 16 -9 15 -19l-36 -252h234l35 252c1 10 10 19 20 19h123c9 0 16 -9 15 -19l-93 -662c-1 -10 -11 -19 -20 -19h-124c-10 0 -15 9 -14 19l37 263h-233l-37 -263c-2 -10 -10 -19 -20 -19h-123c-9 0 -15 9 -14 19zM325 762
c-10 -6 -14 -4 -19 4l-27 47c-4 7 0 14 8 19l139 104c9 6 18 6 24 0l114 -104c4 -4 8 -12 3 -19l-36 -46c-5 -7 -15 -8 -19 -5l-81 60z" />
    <glyph glyph-name="Hbar" unicode="&#x126;" horiz-adv-x="715" 
d="M47 19l72 512h-27c-9 0 -14 9 -13 19l2 17c1 10 10 19 19 19h26l14 95c1 10 11 19 20 19h122c10 0 16 -9 15 -19l-13 -95h233l13 95c1 10 10 19 20 19h123c9 0 16 -9 15 -19l-14 -95h27c10 0 17 -9 15 -19l-3 -18c-2 -10 -10 -18 -20 -18h-26l-72 -512
c-2 -10 -11 -19 -20 -19h-124c-10 0 -15 9 -14 19l37 263h-233l-37 -263c-2 -10 -10 -19 -20 -19h-123c-9 0 -16 9 -14 19zM261 429h234l14 102h-233z" />
    <glyph glyph-name="Igrave" unicode="&#xcc;" horiz-adv-x="325" 
d="M47 19l93 662c1 10 10 19 19 19h125c9 0 15 -9 14 -19l-93 -662c-1 -10 -10 -19 -19 -19h-125c-9 0 -15 9 -14 19zM296 762l-157 82c-7 4 -11 15 -1 30l39 55c6 9 15 10 24 3l142 -104c5 -3 8 -11 3 -19l-24 -38c-6 -10 -15 -15 -26 -9z" />
    <glyph glyph-name="Iacute" unicode="&#xcd;" horiz-adv-x="325" 
d="M47 19l93 662c1 10 10 19 19 19h125c9 0 15 -9 14 -19l-93 -662c-1 -10 -10 -19 -19 -19h-125c-9 0 -15 9 -14 19zM165 762c-13 -6 -19 -1 -23 9l-18 47c-3 8 2 16 8 19l172 104c6 4 19 6 25 -7l26 -60c6 -15 -1 -26 -10 -30z" />
    <glyph glyph-name="Ibreve" unicode="&#x12c;" horiz-adv-x="325" 
d="M47 19l93 662c1 10 10 19 19 19h125c9 0 15 -9 14 -19l-93 -662c-1 -10 -10 -19 -19 -19h-125c-9 0 -15 9 -14 19zM237 763c-63 0 -113 52 -112 120c0 12 9 22 20 22h43c6 0 12 -6 13 -12c4 -27 21 -48 44 -48c21 0 45 24 56 48c3 7 9 12 17 12h50c11 0 18 -10 15 -22
c-16 -69 -71 -120 -146 -120z" />
    <glyph glyph-name="Icircumflex" unicode="&#xce;" horiz-adv-x="325" 
d="M47 19l93 662c1 10 10 19 19 19h125c9 0 15 -9 14 -19l-93 -662c-1 -10 -10 -19 -19 -19h-125c-9 0 -15 9 -14 19zM131 762c-10 -6 -14 -4 -19 4l-27 47c-4 7 0 14 8 19l139 104c9 6 18 6 24 0l114 -104c4 -4 8 -12 3 -19l-36 -46c-5 -7 -15 -8 -19 -5l-81 60z" />
    <glyph glyph-name="Itilde" unicode="&#x128;" horiz-adv-x="325" 
d="M47 19l93 662c1 10 10 19 19 19h125c9 0 15 -9 14 -19l-93 -662c-1 -10 -10 -19 -19 -19h-125c-9 0 -15 9 -14 19zM129 785l-32 28c-6 6 -5 16 -2 23c9 19 48 84 106 84c41 0 60 -47 95 -47c15 0 29 17 35 28s14 14 25 5l31 -26c7 -5 3 -15 -3 -29
c-7 -16 -41 -78 -99 -78c-47 0 -66 48 -97 48c-15 0 -28 -17 -35 -30c-5 -10 -15 -14 -24 -6z" />
    <glyph glyph-name="Idieresis" unicode="&#xcf;" horiz-adv-x="325" 
d="M47 19l93 662c1 10 10 19 19 19h125c9 0 15 -9 14 -19l-93 -662c-1 -10 -10 -19 -19 -19h-125c-9 0 -15 9 -14 19zM349 768c-35 0 -59 32 -53 71c5 39 37 70 72 70s60 -31 55 -70c-6 -39 -39 -71 -74 -71zM110 768c-35 0 -59 32 -53 71c5 39 37 70 72 70s60 -31 55 -70
c-6 -39 -39 -71 -74 -71z" />
    <glyph glyph-name="Imacron" unicode="&#x12a;" horiz-adv-x="325" 
d="M47 19l93 662c1 10 10 19 19 19h125c9 0 15 -9 14 -19l-93 -662c-1 -10 -10 -19 -19 -19h-125c-9 0 -15 9 -14 19zM117 801c-10 0 -16 8 -15 18l6 41c2 11 10 19 20 19h232c10 0 16 -8 14 -19l-7 -41c-2 -10 -10 -18 -20 -18h-230z" />
    <glyph glyph-name="Idotaccent" unicode="&#x130;" horiz-adv-x="325" 
d="M47 19l93 662c1 10 10 19 19 19h125c9 0 15 -9 14 -19l-93 -662c-1 -10 -10 -19 -19 -19h-125c-9 0 -15 9 -14 19zM230 774c-38 0 -65 31 -65 69c0 49 41 90 87 90c39 0 67 -32 67 -70c0 -49 -43 -89 -89 -89z" />
    <glyph glyph-name="Iogonek" unicode="&#x12e;" horiz-adv-x="325" 
d="M47 19l93 662c1 10 10 19 19 19h125c9 0 15 -9 14 -19l-93 -662c-1 -10 -10 -19 -19 -19h-33c-21 -20 -54 -59 -54 -107c0 -29 15 -55 57 -55c13 0 25 4 34 6c14 3 21 -7 19 -19l-5 -33c-1 -9 -9 -17 -17 -19c-8 -3 -34 -8 -56 -8c-59 0 -116 32 -116 97
c0 66 43 115 68 138h-22c-9 0 -15 9 -14 19z" />
    <glyph glyph-name="Jcircumflex" unicode="&#x134;" horiz-adv-x="407" 
d="M-33 63c-5 8 -2 18 4 25l66 65c7 7 16 8 23 0c6 -7 20 -19 43 -19c25 0 52 28 60 83l64 464c1 10 9 19 19 19h125c10 0 17 -9 16 -19l-67 -472c-21 -149 -94 -219 -218 -219c-84 0 -123 53 -135 73zM215 762c-10 -6 -14 -4 -19 4l-27 47c-4 7 0 14 8 19l139 104
c9 6 18 6 24 0l114 -104c4 -4 8 -12 3 -19l-36 -46c-5 -7 -15 -8 -19 -5l-81 60z" />
    <glyph glyph-name="Kcommaaccent" unicode="&#x136;" horiz-adv-x="630" 
d="M48 24l92 652c2 13 12 24 25 24h121c12 0 21 -11 19 -24l-37 -263l208 277c4 6 10 10 18 10h145c17 0 23 -22 12 -37l-239 -304l166 -330c8 -16 -10 -29 -20 -29h-138c-9 0 -16 4 -20 13l-145 309l-42 -298c-1 -13 -13 -24 -25 -24h-121c-13 0 -20 11 -19 24zM284 -90
c31 0 71 -25 71 -93c0 -119 -86 -183 -112 -202c-9 -7 -15 -5 -18 -1l-14 19c-5 7 -4 15 5 21c11 7 71 52 82 120c1 0 -18 -7 -42 -7c-34 0 -59 27 -59 62c0 44 38 81 87 81z" />
    <glyph glyph-name="Lacute" unicode="&#x139;" horiz-adv-x="471" 
d="M47 19l93 662c1 10 10 19 20 19h124c9 0 15 -9 14 -19l-75 -534h204c10 0 15 -9 14 -19l-15 -109c-1 -10 -10 -19 -20 -19h-344c-10 0 -16 9 -15 19zM163 762c-13 -6 -19 -1 -23 9l-18 47c-3 8 2 16 8 19l172 104c6 4 19 6 25 -7l26 -60c6 -15 -1 -26 -10 -30z" />
    <glyph glyph-name="Lcaron" unicode="&#x13d;" horiz-adv-x="470" 
d="M47 19l93 662c1 10 10 19 20 19h124c9 0 15 -9 14 -19l-75 -534h204c10 0 15 -9 14 -19l-15 -109c-1 -10 -10 -19 -20 -19h-344c-10 0 -16 9 -15 19zM428 710c31 0 71 -25 71 -93c0 -119 -86 -183 -112 -202c-9 -7 -15 -5 -18 -1l-14 19c-5 7 -4 15 5 21
c11 7 71 52 82 120c1 0 -18 -7 -42 -7c-34 0 -59 27 -59 62c0 44 38 81 87 81z" />
    <glyph glyph-name="Lcommaaccent" unicode="&#x13b;" horiz-adv-x="470" 
d="M47 19l93 662c1 10 10 19 20 19h124c9 0 15 -9 14 -19l-75 -534h204c10 0 15 -9 14 -19l-15 -109c-1 -10 -10 -19 -20 -19h-344c-10 0 -16 9 -15 19zM236 -90c31 0 71 -25 71 -93c0 -119 -86 -183 -112 -202c-9 -7 -15 -5 -18 -1l-14 19c-5 7 -4 15 5 21
c11 7 71 52 82 120c1 0 -18 -7 -42 -7c-34 0 -59 27 -59 62c0 44 38 81 87 81z" />
    <glyph glyph-name="Lslash" unicode="&#x141;" horiz-adv-x="483" 
d="M59 19l40 285l-22 -13c-10 -6 -19 -2 -23 7l-6 15c-3 8 0 20 9 25l51 29l44 314c2 10 10 19 20 19h124c9 0 15 -9 14 -19l-31 -223l66 44c9 6 18 1 22 -7l8 -16c4 -8 -1 -19 -10 -25l-95 -60l-35 -247h204c10 0 16 -9 14 -19l-15 -109c-1 -10 -10 -19 -20 -19h-344
c-10 0 -16 9 -15 19z" />
    <glyph glyph-name="Ldot" unicode="&#x13f;" horiz-adv-x="518" 
d="M47 19l93 662c1 10 10 19 20 19h124c9 0 15 -9 14 -19l-75 -534h204c10 0 15 -9 14 -19l-15 -109c-1 -10 -10 -19 -20 -19h-344c-10 0 -16 9 -15 19zM419 281c-38 0 -65 31 -65 69c0 49 41 90 87 90c39 0 67 -32 67 -70c0 -49 -43 -89 -89 -89z" />
    <glyph glyph-name="Nacute" unicode="&#x143;" horiz-adv-x="714" 
d="M47 17l94 675c1 10 11 18 20 18h22l298 -386h1l48 357c1 10 9 19 19 19h122c9 0 17 -8 16 -17l-94 -675c-1 -10 -10 -18 -19 -18h-25l-298 398h-1l-45 -369c-2 -10 -10 -19 -20 -19h-123c-8 0 -16 8 -15 17zM345 762c-13 -6 -19 -1 -23 9l-18 47c-3 8 2 16 8 19l172 104
c6 4 19 6 25 -7l26 -60c6 -15 -1 -26 -10 -30z" />
    <glyph glyph-name="Ncaron" unicode="&#x147;" horiz-adv-x="714" 
d="M47 17l94 675c1 10 11 18 20 18h22l298 -386h1l48 357c1 10 9 19 19 19h122c9 0 17 -8 16 -17l-94 -675c-1 -10 -10 -18 -19 -18h-25l-298 398h-1l-45 -369c-2 -10 -10 -19 -20 -19h-123c-8 0 -16 8 -15 17zM396 762l-114 104c-4 4 -8 12 -3 19l36 46c5 7 15 8 19 5
l81 -60l106 60c10 6 14 4 19 -4l27 -47c4 -7 0 -14 -8 -19l-139 -104c-9 -6 -18 -6 -24 0z" />
    <glyph glyph-name="Ntilde" unicode="&#xd1;" horiz-adv-x="714" 
d="M47 17l94 675c1 10 11 18 20 18h22l298 -386h1l48 357c1 10 9 19 19 19h122c9 0 17 -8 16 -17l-94 -675c-1 -10 -10 -18 -19 -18h-25l-298 398h-1l-45 -369c-2 -10 -10 -19 -20 -19h-123c-8 0 -16 8 -15 17zM304 785l-32 28c-6 6 -5 16 -2 23c9 19 48 84 106 84
c41 0 60 -47 95 -47c15 0 29 17 35 28s14 14 25 5l31 -26c7 -5 3 -15 -3 -29c-7 -16 -41 -78 -99 -78c-47 0 -66 48 -97 48c-15 0 -28 -17 -35 -30c-5 -10 -15 -14 -24 -6z" />
    <glyph glyph-name="Ncommaaccent" unicode="&#x145;" horiz-adv-x="714" 
d="M47 17l94 675c1 10 11 18 20 18h22l298 -386h1l48 357c1 10 9 19 19 19h122c9 0 17 -8 16 -17l-94 -675c-1 -10 -10 -18 -19 -18h-25l-298 398h-1l-45 -369c-2 -10 -10 -19 -20 -19h-123c-8 0 -16 8 -15 17zM336 -90c31 0 71 -25 71 -93c0 -119 -86 -183 -112 -202
c-9 -7 -15 -5 -18 -1l-14 19c-5 7 -4 15 5 21c11 7 71 52 82 120c1 0 -18 -7 -42 -7c-34 0 -59 27 -59 62c0 44 38 81 87 81z" />
    <glyph glyph-name="Ograve" unicode="&#xd2;" horiz-adv-x="724" 
d="M44 300c0 226 168 410 376 410c155 0 279 -140 279 -313c0 -225 -166 -407 -376 -407c-154 0 -279 138 -279 310zM343 150c99 0 192 104 192 228c0 94 -56 172 -136 172c-97 0 -191 -105 -191 -229c0 -93 56 -171 135 -171zM496 762l-157 82c-7 4 -11 15 -1 30l39 55
c6 9 15 10 24 3l142 -104c5 -3 8 -11 3 -19l-24 -38c-6 -10 -15 -15 -26 -9z" />
    <glyph glyph-name="Oacute" unicode="&#xd3;" horiz-adv-x="724" 
d="M44 300c0 226 168 410 376 410c155 0 279 -140 279 -313c0 -225 -166 -407 -376 -407c-154 0 -279 138 -279 310zM343 150c99 0 192 104 192 228c0 94 -56 172 -136 172c-97 0 -191 -105 -191 -229c0 -93 56 -171 135 -171zM364 762c-13 -6 -19 -1 -23 9l-18 47
c-3 8 2 16 8 19l172 104c6 4 19 6 25 -7l26 -60c6 -15 -1 -26 -10 -30z" />
    <glyph glyph-name="Ocircumflex" unicode="&#xd4;" horiz-adv-x="724" 
d="M44 300c0 226 168 410 376 410c155 0 279 -140 279 -313c0 -225 -166 -407 -376 -407c-154 0 -279 138 -279 310zM343 150c99 0 192 104 192 228c0 94 -56 172 -136 172c-97 0 -191 -105 -191 -229c0 -93 56 -171 135 -171zM332 762c-10 -6 -14 -4 -19 4l-27 47
c-4 7 0 14 8 19l139 104c9 6 18 6 24 0l114 -104c4 -4 8 -12 3 -19l-36 -46c-5 -7 -15 -8 -19 -5l-81 60z" />
    <glyph glyph-name="Otilde" unicode="&#xd5;" horiz-adv-x="724" 
d="M44 300c0 226 168 410 376 410c155 0 279 -140 279 -313c0 -225 -166 -407 -376 -407c-154 0 -279 138 -279 310zM343 150c99 0 192 104 192 228c0 94 -56 172 -136 172c-97 0 -191 -105 -191 -229c0 -93 56 -171 135 -171zM326 785l-32 28c-6 6 -5 16 -2 23
c9 19 48 84 106 84c41 0 60 -47 95 -47c15 0 29 17 35 28s14 14 25 5l31 -26c7 -5 3 -15 -3 -29c-7 -16 -41 -78 -99 -78c-47 0 -66 48 -97 48c-15 0 -28 -17 -35 -30c-5 -10 -15 -14 -24 -6z" />
    <glyph glyph-name="Odieresis" unicode="&#xd6;" horiz-adv-x="724" 
d="M44 300c0 226 168 410 376 410c155 0 279 -140 279 -313c0 -225 -166 -407 -376 -407c-154 0 -279 138 -279 310zM343 150c99 0 192 104 192 228c0 94 -56 172 -136 172c-97 0 -191 -105 -191 -229c0 -93 56 -171 135 -171zM547 768c-35 0 -59 32 -53 71
c5 39 37 70 72 70s60 -31 55 -70c-6 -39 -39 -71 -74 -71zM308 768c-35 0 -59 32 -53 71c5 39 37 70 72 70s60 -31 55 -70c-6 -39 -39 -71 -74 -71z" />
    <glyph glyph-name="Omacron" unicode="&#x14c;" horiz-adv-x="724" 
d="M44 300c0 226 168 410 376 410c155 0 279 -140 279 -313c0 -225 -166 -407 -376 -407c-154 0 -279 138 -279 310zM343 150c99 0 192 104 192 228c0 94 -56 172 -136 172c-97 0 -191 -105 -191 -229c0 -93 56 -171 135 -171zM317 801c-10 0 -16 8 -15 18l6 41
c2 11 10 19 20 19h232c10 0 16 -8 14 -19l-7 -41c-2 -10 -10 -18 -20 -18h-230z" />
    <glyph glyph-name="Obreve" unicode="&#x14e;" horiz-adv-x="724" 
d="M44 300c0 226 168 410 376 410c155 0 279 -140 279 -313c0 -225 -166 -407 -376 -407c-154 0 -279 138 -279 310zM343 150c99 0 192 104 192 228c0 94 -56 172 -136 172c-97 0 -191 -105 -191 -229c0 -93 56 -171 135 -171zM432 763c-63 0 -113 52 -112 120
c0 12 9 22 20 22h43c6 0 12 -6 13 -12c4 -27 21 -48 44 -48c21 0 45 24 56 48c3 7 9 12 17 12h50c11 0 18 -10 15 -22c-16 -69 -71 -120 -146 -120z" />
    <glyph glyph-name="Ohungarumlaut" unicode="&#x150;" horiz-adv-x="724" 
d="M44 300c0 226 168 410 376 410c155 0 279 -140 279 -313c0 -225 -166 -407 -376 -407c-154 0 -279 138 -279 310zM343 150c99 0 192 104 192 228c0 94 -56 172 -136 172c-97 0 -191 -105 -191 -229c0 -93 56 -171 135 -171zM481 768c-11 0 -19 9 -15 19l43 141
c3 10 11 19 23 19h92c17 0 21 -12 13 -25l-90 -139c-5 -7 -12 -15 -22 -15h-44zM331 768c-10 0 -18 9 -14 19l42 141c3 11 10 19 20 19h96c17 0 21 -12 12 -25l-89 -139c-5 -8 -12 -15 -23 -15h-44z" />
    <glyph glyph-name="Oslash" unicode="&#xd8;" horiz-adv-x="730" 
d="M20 23c-5 7 -4 19 3 26l75 72c-32 50 -51 112 -51 179c0 226 168 410 376 410c77 0 147 -35 197 -92l77 74c8 8 18 7 24 0l10 -12c7 -7 5 -18 -4 -26l-78 -74c33 -52 53 -115 53 -183c0 -225 -166 -407 -376 -407c-77 0 -147 34 -198 91l-74 -71c-7 -7 -18 -6 -23 1z
M225 242l273 260c-24 29 -57 48 -96 48c-97 0 -191 -105 -191 -229c0 -28 5 -55 14 -79zM251 198c23 -30 56 -48 95 -48c99 0 192 104 192 228c0 29 -6 56 -15 80z" />
    <glyph glyph-name="Oslashacute" unicode="&#x1fe;" horiz-adv-x="730" 
d="M20 23c-5 7 -4 19 3 26l75 72c-32 50 -51 112 -51 179c0 226 168 410 376 410c77 0 147 -35 197 -92l77 74c8 8 18 7 24 0l10 -12c7 -7 5 -18 -4 -26l-78 -74c33 -52 53 -115 53 -183c0 -225 -166 -407 -376 -407c-77 0 -147 34 -198 91l-74 -71c-7 -7 -18 -6 -23 1z
M225 242l273 260c-24 29 -57 48 -96 48c-97 0 -191 -105 -191 -229c0 -28 5 -55 14 -79zM251 198c23 -30 56 -48 95 -48c99 0 192 104 192 228c0 29 -6 56 -15 80zM362 762c-13 -6 -19 -1 -23 9l-18 47c-3 8 2 16 8 19l172 104c6 4 19 6 25 -7l26 -60c6 -15 -1 -26 -10 -30z
" />
    <glyph glyph-name="OE" unicode="&#x152;" horiz-adv-x="901" 
d="M44 300c0 226 159 410 378 410c45 0 95 -10 95 -10h377c9 0 15 -9 14 -19l-15 -109c-1 -10 -10 -19 -20 -19h-238l-17 -124h193c9 0 16 -9 15 -19l-15 -109c-2 -11 -11 -19 -20 -19h-194l-19 -135h238c10 0 16 -9 14 -19l-15 -109c-1 -10 -10 -19 -20 -19h-377
s-47 -10 -97 -10c-151 0 -277 138 -277 310zM343 147c28 0 55 4 81 16l53 373c-23 12 -49 16 -77 16c-97 0 -192 -107 -192 -232c0 -93 56 -173 135 -173z" />
    <glyph glyph-name="Racute" unicode="&#x154;" horiz-adv-x="622" 
d="M47 19l93 662c1 10 10 19 19 19h270c105 0 176 -85 176 -188c0 -107 -61 -197 -164 -229l87 -254c5 -13 -4 -29 -19 -29h-129c-7 0 -13 4 -14 9l-82 265h-44l-36 -255c-1 -10 -10 -19 -19 -19h-124c-10 0 -16 9 -14 19zM257 401h110c47 0 81 44 81 92c0 35 -18 64 -54 64
h-115zM300 762c-13 -6 -19 -1 -23 9l-18 47c-3 8 2 16 8 19l172 104c6 4 19 6 25 -7l26 -60c6 -15 -1 -26 -10 -30z" />
    <glyph glyph-name="Rcaron" unicode="&#x158;" horiz-adv-x="622" 
d="M47 19l93 662c1 10 10 19 19 19h270c105 0 176 -85 176 -188c0 -107 -61 -197 -164 -229l87 -254c5 -13 -4 -29 -19 -29h-129c-7 0 -13 4 -14 9l-82 265h-44l-36 -255c-1 -10 -10 -19 -19 -19h-124c-10 0 -16 9 -14 19zM257 401h110c47 0 81 44 81 92c0 35 -18 64 -54 64
h-115zM350 762l-114 104c-4 4 -8 12 -3 19l36 46c5 7 15 8 19 5l81 -60l106 60c10 6 14 4 19 -4l27 -47c4 -7 0 -14 -8 -19l-139 -104c-9 -6 -18 -6 -24 0z" />
    <glyph glyph-name="Rcommaaccent" unicode="&#x156;" horiz-adv-x="622" 
d="M47 19l93 662c1 10 10 19 19 19h270c105 0 176 -85 176 -188c0 -107 -61 -197 -164 -229l87 -254c5 -13 -4 -29 -19 -29h-129c-7 0 -13 4 -14 9l-82 265h-44l-36 -255c-1 -10 -10 -19 -19 -19h-124c-10 0 -16 9 -14 19zM257 401h110c47 0 81 44 81 92c0 35 -18 64 -54 64
h-115zM288 -90c31 0 71 -25 71 -93c0 -119 -86 -183 -112 -202c-9 -7 -15 -5 -18 -1l-14 19c-5 7 -4 15 5 21c11 7 71 52 82 120c1 0 -18 -7 -42 -7c-34 0 -59 27 -59 62c0 44 38 81 87 81z" />
    <glyph glyph-name="Sacute" unicode="&#x15a;" horiz-adv-x="515" 
d="M23 67c-8 10 -6 19 0 28l54 81c9 13 25 11 32 6c13 -10 62 -44 116 -44c37 0 65 28 64 61c-1 36 -23 63 -66 91c-63 42 -149 105 -149 209c0 108 75 211 237 211c95 0 163 -51 190 -73c10 -8 14 -25 6 -34l-63 -77c-8 -10 -25 -11 -32 -5s-59 45 -112 45
c-34 0 -64 -21 -64 -51c0 -35 22 -54 82 -90c50 -30 148 -94 148 -211c0 -115 -80 -224 -250 -224c-106 0 -174 53 -193 77zM259 762c-13 -6 -19 -1 -23 9l-18 47c-3 8 2 16 8 19l172 104c6 4 19 6 25 -7l26 -60c6 -15 -1 -26 -10 -30z" />
    <glyph glyph-name="Scircumflex" unicode="&#x15c;" horiz-adv-x="515" 
d="M23 67c-8 10 -6 19 0 28l54 81c9 13 25 11 32 6c13 -10 62 -44 116 -44c37 0 65 28 64 61c-1 36 -23 63 -66 91c-63 42 -149 105 -149 209c0 108 75 211 237 211c95 0 163 -51 190 -73c10 -8 14 -25 6 -34l-63 -77c-8 -10 -25 -11 -32 -5s-59 45 -112 45
c-34 0 -64 -21 -64 -51c0 -35 22 -54 82 -90c50 -30 148 -94 148 -211c0 -115 -80 -224 -250 -224c-106 0 -174 53 -193 77zM225 762c-10 -6 -14 -4 -19 4l-27 47c-4 7 0 14 8 19l139 104c9 6 18 6 24 0l114 -104c4 -4 8 -12 3 -19l-36 -46c-5 -7 -15 -8 -19 -5l-81 60z" />
    <glyph glyph-name="Scaron" unicode="&#x160;" horiz-adv-x="515" 
d="M23 67c-8 10 -6 19 0 28l54 81c9 13 25 11 32 6c13 -10 62 -44 116 -44c37 0 65 28 64 61c-1 36 -23 63 -66 91c-63 42 -149 105 -149 209c0 108 75 211 237 211c95 0 163 -51 190 -73c10 -8 14 -25 6 -34l-63 -77c-8 -10 -25 -11 -32 -5s-59 45 -112 45
c-34 0 -64 -21 -64 -51c0 -35 22 -54 82 -90c50 -30 148 -94 148 -211c0 -115 -80 -224 -250 -224c-106 0 -174 53 -193 77zM308 762l-114 104c-4 4 -8 12 -3 19l36 46c5 7 15 8 19 5l81 -60l106 60c10 6 14 4 19 -4l27 -47c4 -7 0 -14 -8 -19l-139 -104c-9 -6 -18 -6 -24 0
z" />
    <glyph glyph-name="Scedilla" unicode="&#x15e;" horiz-adv-x="517" 
d="M24 67c-8 10 -6 19 0 28l54 81c9 13 25 11 32 6c13 -10 62 -44 116 -44c37 0 65 28 64 61c-1 36 -23 63 -66 91c-63 42 -149 105 -149 209c0 108 75 211 237 211c95 0 163 -51 190 -73c10 -8 14 -25 6 -34l-63 -77c-8 -10 -25 -11 -32 -5s-59 45 -112 45
c-34 0 -64 -21 -64 -51c0 -35 22 -54 82 -90c50 -30 148 -94 148 -211c0 -114 -78 -221 -244 -224l-6 -42c46 -11 67 -44 67 -87c0 -69 -42 -121 -109 -121c-29 0 -55 18 -66 35c-6 9 -5 15 4 24l22 24c6 7 15 5 21 -1c5 -5 11 -9 20 -9c15 0 31 14 31 38c0 15 -7 31 -53 36
c-13 1 -15 10 -13 18l13 92c-70 14 -115 51 -130 70z" />
    <glyph glyph-name="Scommaaccent" unicode="&#x218;" horiz-adv-x="516" 
d="M23 67c-8 10 -6 19 0 28l54 81c9 13 25 11 32 6c13 -10 62 -44 116 -44c37 0 65 28 64 61c-1 36 -23 63 -66 91c-63 42 -149 105 -149 209c0 108 75 211 237 211c95 0 163 -51 190 -73c10 -8 14 -25 6 -34l-63 -77c-8 -10 -25 -11 -32 -5s-59 45 -112 45
c-34 0 -64 -21 -64 -51c0 -35 22 -54 82 -90c50 -30 148 -94 148 -211c0 -115 -80 -224 -250 -224c-106 0 -174 53 -193 77zM212 -90c31 0 71 -25 71 -93c0 -119 -86 -183 -112 -202c-9 -7 -15 -5 -18 -1l-14 19c-5 7 -4 15 5 21c11 7 71 52 82 120c1 0 -18 -7 -42 -7
c-34 0 -59 27 -59 62c0 44 38 81 87 81z" />
    <glyph glyph-name="Tcaron" unicode="&#x164;" horiz-adv-x="465" 
d="M116 19l75 534h-122c-10 0 -16 9 -15 19l16 109c1 10 10 19 19 19h404c10 0 16 -9 15 -19l-16 -109c-1 -10 -9 -19 -19 -19h-123l-75 -534c-1 -10 -11 -19 -20 -19h-124c-9 0 -16 9 -15 19zM283 762l-114 104c-4 4 -8 12 -3 19l36 46c5 7 15 8 19 5l81 -60l106 60
c10 6 14 4 19 -4l27 -47c4 -7 0 -14 -8 -19l-139 -104c-9 -6 -18 -6 -24 0z" />
    <glyph glyph-name="Tcommaaccent" unicode="&#x162;" horiz-adv-x="466" 
d="M116 19l75 534h-122c-10 0 -16 9 -15 19l16 109c1 10 10 19 19 19h404c10 0 16 -9 15 -19l-16 -109c-1 -10 -9 -19 -19 -19h-123l-75 -534c-1 -10 -11 -19 -20 -19h-124c-9 0 -16 9 -15 19zM180 -90c31 0 71 -25 71 -93c0 -119 -86 -183 -112 -202c-9 -7 -15 -5 -18 -1
l-14 19c-5 7 -4 15 5 21c11 7 71 52 82 120c1 0 -18 -7 -42 -7c-34 0 -59 27 -59 62c0 44 38 81 87 81z" />
    <glyph glyph-name="uni021A" unicode="&#x21a;" horiz-adv-x="466" 
d="M116 19l75 534h-122c-10 0 -16 9 -15 19l16 109c1 10 10 19 19 19h404c10 0 16 -9 15 -19l-16 -109c-1 -10 -9 -19 -19 -19h-123l-75 -534c-1 -10 -11 -19 -20 -19h-124c-9 0 -16 9 -15 19zM180 -90c31 0 71 -25 71 -93c0 -119 -86 -183 -112 -202c-9 -7 -15 -5 -18 -1
l-14 19c-5 7 -4 15 5 21c11 7 71 52 82 120c1 0 -18 -7 -42 -7c-34 0 -59 27 -59 62c0 44 38 81 87 81z" />
    <glyph glyph-name="Tbar" unicode="&#x166;" horiz-adv-x="465" 
d="M116 19l38 270h-65c-9 0 -16 9 -14 19l3 17c2 10 9 19 18 19h65l30 209h-122c-10 0 -16 9 -15 19l16 109c1 10 10 19 19 19h404c10 0 16 -9 15 -19l-16 -109c-1 -10 -9 -19 -19 -19h-123l-30 -209h71c10 0 17 -9 15 -19l-3 -18c-2 -10 -10 -18 -20 -18h-70l-38 -270
c-1 -10 -11 -19 -20 -19h-124c-9 0 -16 9 -15 19z" />
    <glyph glyph-name="Thorn" unicode="&#xde;" horiz-adv-x="541" 
d="M47 19l93 662c1 10 10 19 20 19h122c9 0 15 -9 14 -19l-15 -108h81c101 0 173 -88 173 -193c0 -138 -104 -253 -235 -253h-82l-15 -108c-1 -10 -11 -19 -20 -19h-122c-10 0 -16 9 -14 19zM239 273h72c35 0 69 40 69 91c0 35 -20 62 -47 62h-73z" />
    <glyph glyph-name="Ugrave" unicode="&#xd9;" horiz-adv-x="670" 
d="M73 260l58 421c1 10 10 19 19 19h127c9 0 16 -9 15 -19l-57 -413c-10 -70 25 -118 80 -118c60 0 109 48 119 118l57 413c1 10 9 19 19 19h126c9 0 16 -9 15 -19l-58 -421c-23 -162 -132 -270 -298 -270c-134 0 -244 118 -222 270zM471 762l-157 82c-7 4 -11 15 -1 30
l39 55c6 9 15 10 24 3l142 -104c5 -3 8 -11 3 -19l-24 -38c-6 -10 -15 -15 -26 -9z" />
    <glyph glyph-name="Uacute" unicode="&#xda;" horiz-adv-x="670" 
d="M73 260l58 421c1 10 10 19 19 19h127c9 0 16 -9 15 -19l-57 -413c-10 -70 25 -118 80 -118c60 0 109 48 119 118l57 413c1 10 9 19 19 19h126c9 0 16 -9 15 -19l-58 -421c-23 -162 -132 -270 -298 -270c-134 0 -244 118 -222 270zM340 762c-13 -6 -19 -1 -23 9l-18 47
c-3 8 2 16 8 19l172 104c6 4 19 6 25 -7l26 -60c6 -15 -1 -26 -10 -30z" />
    <glyph glyph-name="Ucircumflex" unicode="&#xdb;" horiz-adv-x="670" 
d="M73 260l58 421c1 10 10 19 19 19h127c9 0 16 -9 15 -19l-57 -413c-10 -70 25 -118 80 -118c60 0 109 48 119 118l57 413c1 10 9 19 19 19h126c9 0 16 -9 15 -19l-58 -421c-23 -162 -132 -270 -298 -270c-134 0 -244 118 -222 270zM306 762c-10 -6 -14 -4 -19 4l-27 47
c-4 7 0 14 8 19l139 104c9 6 18 6 24 0l114 -104c4 -4 8 -12 3 -19l-36 -46c-5 -7 -15 -8 -19 -5l-81 60z" />
    <glyph glyph-name="Utilde" unicode="&#x168;" horiz-adv-x="670" 
d="M73 260l58 421c1 10 10 19 19 19h127c9 0 16 -9 15 -19l-57 -413c-10 -70 25 -118 80 -118c60 0 109 48 119 118l57 413c1 10 9 19 19 19h126c9 0 16 -9 15 -19l-58 -421c-23 -162 -132 -270 -298 -270c-134 0 -244 118 -222 270zM301 785l-32 28c-6 6 -5 16 -2 23
c9 19 48 84 106 84c41 0 60 -47 95 -47c15 0 29 17 35 28s14 14 25 5l31 -26c7 -5 3 -15 -3 -29c-7 -16 -41 -78 -99 -78c-47 0 -66 48 -97 48c-15 0 -28 -17 -35 -30c-5 -10 -15 -14 -24 -6z" />
    <glyph glyph-name="Udieresis" unicode="&#xdc;" horiz-adv-x="670" 
d="M73 260l58 421c1 10 10 19 19 19h127c9 0 16 -9 15 -19l-57 -413c-10 -70 25 -118 80 -118c60 0 109 48 119 118l57 413c1 10 9 19 19 19h126c9 0 16 -9 15 -19l-58 -421c-23 -162 -132 -270 -298 -270c-134 0 -244 118 -222 270zM524 768c-35 0 -59 32 -53 71
c5 39 37 70 72 70s60 -31 55 -70c-6 -39 -39 -71 -74 -71zM285 768c-35 0 -59 32 -53 71c5 39 37 70 72 70s60 -31 55 -70c-6 -39 -39 -71 -74 -71z" />
    <glyph glyph-name="Umacron" unicode="&#x16a;" horiz-adv-x="670" 
d="M73 260l58 421c1 10 10 19 19 19h127c9 0 16 -9 15 -19l-57 -413c-10 -70 25 -118 80 -118c60 0 109 48 119 118l57 413c1 10 9 19 19 19h126c9 0 16 -9 15 -19l-58 -421c-23 -162 -132 -270 -298 -270c-134 0 -244 118 -222 270zM291 801c-10 0 -16 8 -15 18l6 41
c2 11 10 19 20 19h232c10 0 16 -8 14 -19l-7 -41c-2 -10 -10 -18 -20 -18h-230z" />
    <glyph glyph-name="Ubreve" unicode="&#x16c;" horiz-adv-x="670" 
d="M73 260l58 421c1 10 10 19 19 19h127c9 0 16 -9 15 -19l-57 -413c-10 -70 25 -118 80 -118c60 0 109 48 119 118l57 413c1 10 9 19 19 19h126c9 0 16 -9 15 -19l-58 -421c-23 -162 -132 -270 -298 -270c-134 0 -244 118 -222 270zM409 763c-63 0 -113 52 -112 120
c0 12 9 22 20 22h43c6 0 12 -6 13 -12c4 -27 21 -48 44 -48c21 0 45 24 56 48c3 7 9 12 17 12h50c11 0 18 -10 15 -22c-16 -69 -71 -120 -146 -120z" />
    <glyph glyph-name="Uring" unicode="&#x16e;" horiz-adv-x="670" 
d="M73 260l58 421c1 10 10 19 19 19h127c9 0 16 -9 15 -19l-57 -413c-10 -70 25 -118 80 -118c60 0 109 48 119 118l57 413c1 10 9 19 19 19h126c9 0 16 -9 15 -19l-58 -421c-23 -162 -132 -270 -298 -270c-134 0 -244 118 -222 270zM404 752c-49 0 -92 44 -92 100
c0 72 53 130 120 130c50 0 92 -45 92 -100c0 -72 -52 -130 -120 -130zM412 823c21 0 42 24 42 50c0 20 -13 37 -30 37c-20 0 -42 -23 -42 -49c0 -20 13 -38 30 -38z" />
    <glyph glyph-name="Uhungarumlaut" unicode="&#x170;" horiz-adv-x="670" 
d="M73 260l58 421c1 10 10 19 19 19h127c9 0 16 -9 15 -19l-57 -413c-10 -70 25 -118 80 -118c60 0 109 48 119 118l57 413c1 10 9 19 19 19h126c9 0 16 -9 15 -19l-58 -421c-23 -162 -132 -270 -298 -270c-134 0 -244 118 -222 270zM450 768c-11 0 -19 9 -15 19l43 141
c3 10 11 19 23 19h92c17 0 21 -12 13 -25l-90 -139c-5 -7 -12 -15 -22 -15h-44zM300 768c-10 0 -18 9 -14 19l42 141c3 11 10 19 20 19h96c17 0 21 -12 12 -25l-89 -139c-5 -8 -12 -15 -23 -15h-44z" />
    <glyph glyph-name="Uogonek" unicode="&#x172;" horiz-adv-x="674" 
d="M195 -138c0 61 36 107 61 132c-115 20 -202 129 -182 266l58 421c1 10 10 19 19 19h127c9 0 16 -9 15 -19l-57 -413c-10 -70 25 -118 80 -118c60 0 109 48 119 118l57 413c1 10 9 19 19 19h126c9 0 16 -9 15 -19l-58 -421c-22 -153 -120 -257 -270 -268
c-20 -22 -45 -57 -45 -99c0 -29 15 -55 57 -55c13 0 25 4 34 6c14 3 21 -7 19 -19l-5 -33c-1 -9 -9 -17 -17 -19c-8 -3 -34 -8 -56 -8c-59 0 -116 32 -116 97z" />
    <glyph glyph-name="Wacute" unicode="&#x1e82;" horiz-adv-x="817" 
d="M156 4l-75 672c-2 14 7 24 19 24h121c7 0 14 -7 14 -14l19 -339h4l186 352c3 6 9 11 17 11h16c7 0 13 -5 14 -11l87 -352h3l116 339c3 7 11 14 18 14h120c13 0 19 -10 13 -24l-264 -672c-3 -8 -11 -14 -18 -14h-15c-6 0 -12 5 -14 11l-108 409h-4l-223 -409
c-4 -6 -11 -11 -17 -11h-14c-8 0 -14 6 -15 14zM414 762c-13 -6 -19 -1 -23 9l-18 47c-3 8 2 16 8 19l172 104c6 4 19 6 25 -7l26 -60c6 -15 -1 -26 -10 -30z" />
    <glyph glyph-name="Wcircumflex" unicode="&#x174;" horiz-adv-x="817" 
d="M156 4l-75 672c-2 14 7 24 19 24h121c7 0 14 -7 14 -14l19 -339h4l186 352c3 6 9 11 17 11h16c7 0 13 -5 14 -11l87 -352h3l116 339c3 7 11 14 18 14h120c13 0 19 -10 13 -24l-264 -672c-3 -8 -11 -14 -18 -14h-15c-6 0 -12 5 -14 11l-108 409h-4l-223 -409
c-4 -6 -11 -11 -17 -11h-14c-8 0 -14 6 -15 14zM381 762c-10 -6 -14 -4 -19 4l-27 47c-4 7 0 14 8 19l139 104c9 6 18 6 24 0l114 -104c4 -4 8 -12 3 -19l-36 -46c-5 -7 -15 -8 -19 -5l-81 60z" />
    <glyph glyph-name="Wdieresis" unicode="&#x1e84;" horiz-adv-x="817" 
d="M156 4l-75 672c-2 14 7 24 19 24h121c7 0 14 -7 14 -14l19 -339h4l186 352c3 6 9 11 17 11h16c7 0 13 -5 14 -11l87 -352h3l116 339c3 7 11 14 18 14h120c13 0 19 -10 13 -24l-264 -672c-3 -8 -11 -14 -18 -14h-15c-6 0 -12 5 -14 11l-108 409h-4l-223 -409
c-4 -6 -11 -11 -17 -11h-14c-8 0 -14 6 -15 14zM599 768c-35 0 -59 32 -53 71c5 39 37 70 72 70s60 -31 55 -70c-6 -39 -39 -71 -74 -71zM360 768c-35 0 -59 32 -53 71c5 39 37 70 72 70s60 -31 55 -70c-6 -39 -39 -71 -74 -71z" />
    <glyph glyph-name="Wgrave" unicode="&#x1e80;" horiz-adv-x="817" 
d="M156 4l-75 672c-2 14 7 24 19 24h121c7 0 14 -7 14 -14l19 -339h4l186 352c3 6 9 11 17 11h16c7 0 13 -5 14 -11l87 -352h3l116 339c3 7 11 14 18 14h120c13 0 19 -10 13 -24l-264 -672c-3 -8 -11 -14 -18 -14h-15c-6 0 -12 5 -14 11l-108 409h-4l-223 -409
c-4 -6 -11 -11 -17 -11h-14c-8 0 -14 6 -15 14zM547 762l-157 82c-7 4 -11 15 -1 30l39 55c6 9 15 10 24 3l142 -104c5 -3 8 -11 3 -19l-24 -38c-6 -10 -15 -15 -26 -9z" />
    <glyph glyph-name="Yacute" unicode="&#xdd;" horiz-adv-x="540" 
d="M152 19l45 318l-148 334c-5 13 4 29 18 29h126c8 0 12 -4 14 -9l83 -205l141 205c3 4 7 9 16 9h141c15 0 20 -16 11 -29l-245 -333l-44 -319c-1 -10 -11 -19 -20 -19h-124c-10 0 -15 9 -14 19zM266 762c-13 -6 -19 -1 -23 9l-18 47c-3 8 2 16 8 19l172 104
c6 4 19 6 25 -7l26 -60c6 -15 -1 -26 -10 -30z" />
    <glyph glyph-name="Ycircumflex" unicode="&#x176;" horiz-adv-x="540" 
d="M152 19l45 318l-148 334c-5 13 4 29 18 29h126c8 0 12 -4 14 -9l83 -205l141 205c3 4 7 9 16 9h141c15 0 20 -16 11 -29l-245 -333l-44 -319c-1 -10 -11 -19 -20 -19h-124c-10 0 -15 9 -14 19zM234 762c-10 -6 -14 -4 -19 4l-27 47c-4 7 0 14 8 19l139 104c9 6 18 6 24 0
l114 -104c4 -4 8 -12 3 -19l-36 -46c-5 -7 -15 -8 -19 -5l-81 60z" />
    <glyph glyph-name="Ydieresis" unicode="&#x178;" horiz-adv-x="540" 
d="M152 19l45 318l-148 334c-5 13 4 29 18 29h126c8 0 12 -4 14 -9l83 -205l141 205c3 4 7 9 16 9h141c15 0 20 -16 11 -29l-245 -333l-44 -319c-1 -10 -11 -19 -20 -19h-124c-10 0 -15 9 -14 19zM450 768c-35 0 -59 32 -53 71c5 39 37 70 72 70s60 -31 55 -70
c-6 -39 -39 -71 -74 -71zM211 768c-35 0 -59 32 -53 71c5 39 37 70 72 70s60 -31 55 -70c-6 -39 -39 -71 -74 -71z" />
    <glyph glyph-name="Ygrave" unicode="&#x1ef2;" horiz-adv-x="540" 
d="M152 19l45 318l-148 334c-5 13 4 29 18 29h126c8 0 12 -4 14 -9l83 -205l141 205c3 4 7 9 16 9h141c15 0 20 -16 11 -29l-245 -333l-44 -319c-1 -10 -11 -19 -20 -19h-124c-10 0 -15 9 -14 19zM398 762l-157 82c-7 4 -11 15 -1 30l39 55c6 9 15 10 24 3l142 -104
c5 -3 8 -11 3 -19l-24 -38c-6 -10 -15 -15 -26 -9z" />
    <glyph glyph-name="Zacute" unicode="&#x179;" horiz-adv-x="508" 
d="M7 0c-9 0 -15 9 -14 19l2 18l293 516h-177c-9 0 -16 9 -15 19l16 109c1 10 11 19 20 19h386c9 0 17 -9 15 -19l-2 -13l-283 -521h175c10 0 15 -9 14 -19l-15 -109c-2 -10 -10 -19 -20 -19h-395zM259 762c-13 -6 -19 -1 -23 9l-18 47c-3 8 2 16 8 19l172 104
c6 4 19 6 25 -7l26 -60c6 -15 -1 -26 -10 -30z" />
    <glyph glyph-name="Zcaron" unicode="&#x17d;" horiz-adv-x="508" 
d="M7 0c-9 0 -15 9 -14 19l2 18l293 516h-177c-9 0 -16 9 -15 19l16 109c1 10 11 19 20 19h386c9 0 17 -9 15 -19l-2 -13l-283 -521h175c10 0 15 -9 14 -19l-15 -109c-2 -10 -10 -19 -20 -19h-395zM312 762l-114 104c-4 4 -8 12 -3 19l36 46c5 7 15 8 19 5l81 -60l106 60
c10 6 14 4 19 -4l27 -47c4 -7 0 -14 -8 -19l-139 -104c-9 -6 -18 -6 -24 0z" />
    <glyph glyph-name="Zdotaccent" unicode="&#x17b;" horiz-adv-x="508" 
d="M7 0c-9 0 -15 9 -14 19l2 18l293 516h-177c-9 0 -16 9 -15 19l16 109c1 10 11 19 20 19h386c9 0 17 -9 15 -19l-2 -13l-283 -521h175c10 0 15 -9 14 -19l-15 -109c-2 -10 -10 -19 -20 -19h-395zM324 774c-38 0 -65 31 -65 69c0 49 41 90 87 90c39 0 67 -32 67 -70
c0 -49 -43 -89 -89 -89z" />
    <glyph glyph-name="agrave" unicode="&#xe0;" horiz-adv-x="475" 
d="M344 512l-157 82c-7 4 -11 15 -1 30l39 55c6 9 15 10 24 3l142 -104c5 -3 8 -11 3 -19l-24 -38c-6 -10 -15 -15 -26 -9zM437 381l-54 -362c-2 -10 -11 -19 -20 -19h-52c-8 0 -14 6 -15 15l-6 35c-20 -22 -71 -60 -135 -60c-93 0 -141 83 -141 185c0 132 95 235 204 235
c81 0 119 -63 119 -63l20 41c4 8 10 12 19 12h47c9 0 16 -8 14 -19zM202 120c45 0 79 38 79 89c0 39 -24 70 -56 70c-37 0 -76 -40 -76 -91c0 -38 22 -68 53 -68z" />
    <glyph glyph-name="aacute" unicode="&#xe1;" horiz-adv-x="475" 
d="M211 512c-13 -6 -19 -1 -23 9l-18 47c-3 8 2 16 8 19l172 104c6 4 19 6 25 -7l26 -60c6 -15 -1 -26 -10 -30zM437 381l-54 -362c-2 -10 -11 -19 -20 -19h-52c-8 0 -14 6 -15 15l-6 35c-20 -22 -71 -60 -135 -60c-93 0 -141 83 -141 185c0 132 95 235 204 235
c81 0 119 -63 119 -63l20 41c4 8 10 12 19 12h47c9 0 16 -8 14 -19zM202 120c45 0 79 38 79 89c0 39 -24 70 -56 70c-37 0 -76 -40 -76 -91c0 -38 22 -68 53 -68z" />
    <glyph glyph-name="acircumflex" unicode="&#xe2;" horiz-adv-x="475" 
d="M178 512c-10 -6 -14 -4 -19 4l-27 47c-4 7 0 14 8 19l139 104c9 6 18 6 24 0l114 -104c4 -4 8 -12 3 -19l-36 -46c-5 -7 -15 -8 -19 -5l-81 60zM437 381l-54 -362c-2 -10 -11 -19 -20 -19h-52c-8 0 -14 6 -15 15l-6 35c-20 -22 -71 -60 -135 -60c-93 0 -141 83 -141 185
c0 132 95 235 204 235c81 0 119 -63 119 -63l20 41c4 8 10 12 19 12h47c9 0 16 -8 14 -19zM202 120c45 0 79 38 79 89c0 39 -24 70 -56 70c-37 0 -76 -40 -76 -91c0 -38 22 -68 53 -68z" />
    <glyph glyph-name="atilde" unicode="&#xe3;" horiz-adv-x="475" 
d="M177 555l-32 28c-6 6 -5 16 -2 23c9 19 48 84 106 84c41 0 60 -47 95 -47c15 0 29 17 35 28s14 14 25 5l31 -26c7 -5 3 -15 -3 -29c-7 -16 -41 -78 -99 -78c-47 0 -66 48 -97 48c-15 0 -28 -17 -35 -30c-5 -10 -15 -14 -24 -6zM437 381l-54 -362c-2 -10 -11 -19 -20 -19
h-52c-8 0 -14 6 -15 15l-6 35c-20 -22 -71 -60 -135 -60c-93 0 -141 83 -141 185c0 132 95 235 204 235c81 0 119 -63 119 -63l20 41c4 8 10 12 19 12h47c9 0 16 -8 14 -19zM202 120c45 0 79 38 79 89c0 39 -24 70 -56 70c-37 0 -76 -40 -76 -91c0 -38 22 -68 53 -68z" />
    <glyph glyph-name="adieresis" unicode="&#xe4;" horiz-adv-x="475" 
d="M370 535c-35 0 -59 32 -53 71c5 39 37 70 72 70s60 -31 55 -70c-6 -39 -39 -71 -74 -71zM185 535c-35 0 -59 32 -53 71c5 39 37 70 72 70s60 -31 55 -70c-6 -39 -39 -71 -74 -71zM437 381l-54 -362c-2 -10 -11 -19 -20 -19h-52c-8 0 -14 6 -15 15l-6 35
c-20 -22 -71 -60 -135 -60c-93 0 -141 83 -141 185c0 132 95 235 204 235c81 0 119 -63 119 -63l20 41c4 8 10 12 19 12h47c9 0 16 -8 14 -19zM202 120c45 0 79 38 79 89c0 39 -24 70 -56 70c-37 0 -76 -40 -76 -91c0 -38 22 -68 53 -68z" />
    <glyph glyph-name="amacron" unicode="&#x101;" horiz-adv-x="475" 
d="M166 563c-10 0 -15 8 -14 18l5 41c1 11 10 19 20 19h231c9 0 16 -8 14 -19l-6 -41c-1 -10 -9 -18 -19 -18h-231zM437 381l-54 -362c-2 -10 -11 -19 -20 -19h-52c-8 0 -14 6 -15 15l-6 35c-20 -22 -71 -60 -135 -60c-93 0 -141 83 -141 185c0 132 95 235 204 235
c81 0 119 -63 119 -63l20 41c4 8 10 12 19 12h47c9 0 16 -8 14 -19zM202 120c45 0 79 38 79 89c0 39 -24 70 -56 70c-37 0 -76 -40 -76 -91c0 -38 22 -68 53 -68z" />
    <glyph glyph-name="abreve" unicode="&#x103;" horiz-adv-x="475" 
d="M268 527c-63 0 -113 52 -112 120c0 12 9 22 20 22h43c6 0 12 -6 13 -12c4 -27 21 -48 44 -48c21 0 45 24 56 48c3 7 9 12 17 12h50c11 0 18 -10 15 -22c-16 -69 -71 -120 -146 -120zM437 381l-54 -362c-2 -10 -11 -19 -20 -19h-52c-8 0 -14 6 -15 15l-6 35
c-20 -22 -71 -60 -135 -60c-93 0 -141 83 -141 185c0 132 95 235 204 235c81 0 119 -63 119 -63l20 41c4 8 10 12 19 12h47c9 0 16 -8 14 -19zM202 120c45 0 79 38 79 89c0 39 -24 70 -56 70c-37 0 -76 -40 -76 -91c0 -38 22 -68 53 -68z" />
    <glyph glyph-name="aring" unicode="&#xe5;" horiz-adv-x="475" 
d="M272 480c-49 0 -92 44 -92 100c0 72 53 130 120 130c50 0 92 -45 92 -100c0 -72 -52 -130 -120 -130zM280 551c21 0 42 24 42 50c0 20 -13 37 -30 37c-20 0 -42 -23 -42 -49c0 -20 13 -38 30 -38zM437 381l-54 -362c-2 -10 -11 -19 -20 -19h-52c-8 0 -14 6 -15 15l-6 35
c-20 -22 -71 -60 -135 -60c-93 0 -141 83 -141 185c0 132 95 235 204 235c81 0 119 -63 119 -63l20 41c4 8 10 12 19 12h47c9 0 16 -8 14 -19zM202 120c45 0 79 38 79 89c0 39 -24 70 -56 70c-37 0 -76 -40 -76 -91c0 -38 22 -68 53 -68z" />
    <glyph glyph-name="aringacute" unicode="&#x1fb;" horiz-adv-x="475" 
d="M267 425c-49 0 -92 44 -92 100c0 72 53 130 120 130c50 0 92 -45 92 -100c0 -72 -52 -130 -120 -130zM275 496c21 0 42 24 42 50c0 20 -13 37 -30 37c-20 0 -42 -23 -42 -49c0 -20 13 -38 30 -38zM234 662c-13 -6 -19 -1 -23 9l-18 47c-3 8 2 16 8 19l172 104
c6 4 19 6 25 -7l26 -60c6 -15 -1 -26 -10 -30zM437 381l-54 -362c-2 -10 -11 -19 -20 -19h-52c-8 0 -14 6 -15 15l-6 35c-20 -22 -71 -60 -135 -60c-93 0 -141 83 -141 185c0 132 95 235 204 235c81 0 119 -63 119 -63l20 41c4 8 10 12 19 12h47c9 0 16 -8 14 -19zM202 120
c45 0 79 38 79 89c0 39 -24 70 -56 70c-37 0 -76 -40 -76 -91c0 -38 22 -68 53 -68z" />
    <glyph glyph-name="aogonek" unicode="&#x105;" horiz-adv-x="475" 
d="M437 381l-54 -362c-2 -10 -11 -19 -20 -19h-6c-21 -20 -54 -59 -54 -107c0 -29 15 -55 57 -55c13 0 25 4 34 6c14 3 21 -7 19 -19l-5 -33c-1 -9 -9 -17 -17 -19c-8 -3 -34 -8 -56 -8c-59 0 -116 32 -116 97c0 77 58 131 78 147l-7 41c-20 -22 -71 -60 -135 -60
c-93 0 -141 83 -141 185c0 132 95 235 204 235c81 0 119 -63 119 -63l20 41c4 8 10 12 19 12h47c9 0 16 -8 14 -19zM202 120c45 0 79 38 79 89c0 39 -24 70 -56 70c-37 0 -76 -40 -76 -91c0 -38 22 -68 53 -68z" />
    <glyph glyph-name="ae" unicode="&#xe6;" horiz-adv-x="589" 
d="M110 -10c-68 0 -112 43 -112 113c0 87 74 150 166 150c31 0 62 -10 62 -10c8 39 -6 58 -43 58c-25 0 -68 -6 -92 -11c-9 -1 -19 6 -19 16v69c0 10 9 19 17 20c0 0 74 15 122 15c53 0 88 -17 108 -39c34 26 78 39 125 39c64 0 127 -36 127 -101c0 -87 -86 -139 -232 -139
c-1 -27 6 -59 50 -59c19 0 43 12 58 24c6 5 17 6 22 0l45 -59c6 -7 4 -20 -2 -27c-41 -37 -88 -59 -145 -59c-58 0 -95 24 -117 63c-18 -20 -68 -63 -140 -63zM355 252c0 0 90 5 90 39c0 12 -10 18 -22 18c-27 0 -59 -26 -68 -57zM118 121c0 -20 13 -36 32 -36
c23 0 47 19 47 49c0 21 -15 37 -35 37c-24 0 -44 -24 -44 -50z" />
    <glyph glyph-name="aeacute" unicode="&#x1fd;" horiz-adv-x="589" 
d="M110 -10c-76 0 -122 53 -110 139c10 70 73 124 164 124c31 0 62 -10 62 -10c8 39 -6 58 -43 58c-25 0 -68 -6 -92 -11c-9 -1 -19 6 -19 16v69c0 10 9 19 17 20c0 0 74 15 122 15c53 0 88 -17 108 -39c34 26 78 39 125 39c64 0 127 -36 127 -101c0 -87 -86 -139 -232 -139
c-1 -27 6 -59 50 -59c19 0 43 12 58 24c6 5 17 6 22 0l45 -59c6 -7 4 -20 -2 -27c-41 -37 -88 -59 -145 -59c-58 0 -95 24 -117 63c-18 -20 -68 -63 -140 -63zM355 252c0 0 90 5 90 39c0 12 -10 18 -22 18c-27 0 -59 -26 -68 -57zM118 121c0 -20 13 -36 32 -36
c23 0 47 19 47 49c0 21 -15 37 -35 37c-24 0 -44 -24 -44 -50zM312 512c-13 -6 -19 -1 -23 9l-18 47c-3 8 2 16 8 19l172 104c6 4 19 6 25 -7l26 -60c6 -15 -1 -26 -10 -30z" />
    <glyph glyph-name="cacute" unicode="&#x107;" horiz-adv-x="393" 
d="M12 175c0 133 100 235 223 235c57 0 101 -29 131 -72c6 -9 2 -21 -8 -28l-63 -54c-4 -4 -12 -4 -18 2c-13 13 -29 21 -49 21c-38 0 -74 -41 -74 -92c0 -37 20 -67 50 -67c27 0 43 15 59 30c4 5 14 8 22 0l53 -53c8 -8 10 -18 3 -28c-42 -57 -92 -79 -158 -79
c-94 0 -171 81 -171 185zM184 512c-13 -6 -19 -1 -23 9l-18 47c-3 8 2 16 8 19l172 104c6 4 19 6 25 -7l26 -60c6 -15 -1 -26 -10 -30z" />
    <glyph glyph-name="ccircumflex" unicode="&#x109;" horiz-adv-x="393" 
d="M12 175c0 133 100 235 223 235c57 0 101 -29 131 -72c6 -9 2 -21 -8 -28l-63 -54c-4 -4 -12 -4 -18 2c-13 13 -29 21 -49 21c-38 0 -74 -41 -74 -92c0 -37 20 -67 50 -67c27 0 43 15 59 30c4 5 14 8 22 0l53 -53c8 -8 10 -18 3 -28c-42 -57 -92 -79 -158 -79
c-94 0 -171 81 -171 185zM150 512c-10 -6 -14 -4 -19 4l-27 47c-4 7 0 14 8 19l139 104c9 6 18 6 24 0l114 -104c4 -4 8 -12 3 -19l-36 -46c-5 -7 -15 -8 -19 -5l-81 60z" />
    <glyph glyph-name="ccaron" unicode="&#x10d;" horiz-adv-x="393" 
d="M12 175c0 133 100 235 223 235c57 0 101 -29 131 -72c6 -9 2 -21 -8 -28l-63 -54c-4 -4 -12 -4 -18 2c-13 13 -29 21 -49 21c-38 0 -74 -41 -74 -92c0 -37 20 -67 50 -67c27 0 43 15 59 30c4 5 14 8 22 0l53 -53c8 -8 10 -18 3 -28c-42 -57 -92 -79 -158 -79
c-94 0 -171 81 -171 185zM235 512l-114 104c-4 4 -8 12 -3 19l36 46c5 7 15 8 19 5l81 -60l106 60c10 6 14 4 19 -4l27 -47c4 -7 0 -14 -8 -19l-139 -104c-9 -6 -18 -6 -24 0z" />
    <glyph glyph-name="cdotaccent" unicode="&#x10b;" horiz-adv-x="393" 
d="M12 175c0 133 100 235 223 235c57 0 101 -29 131 -72c6 -9 2 -21 -8 -28l-63 -54c-4 -4 -12 -4 -18 2c-13 13 -29 21 -49 21c-38 0 -74 -41 -74 -92c0 -37 20 -67 50 -67c27 0 43 15 59 30c4 5 14 8 22 0l53 -53c8 -8 10 -18 3 -28c-42 -57 -92 -79 -158 -79
c-94 0 -171 81 -171 185zM248 521c-38 0 -65 31 -65 69c0 49 42 90 88 90c38 0 66 -32 66 -70c0 -49 -43 -89 -89 -89z" />
    <glyph glyph-name="ccedilla" unicode="&#xe7;" horiz-adv-x="396" 
d="M127 1c-66 25 -113 92 -113 174c0 133 100 235 223 235c57 0 101 -29 131 -72c6 -9 2 -21 -8 -28l-63 -54c-4 -4 -12 -4 -18 2c-13 13 -29 21 -49 21c-38 0 -74 -41 -74 -92c0 -37 20 -67 50 -67c27 0 43 15 59 30c4 5 14 8 22 0l53 -53c8 -8 10 -18 3 -28
c-40 -54 -87 -77 -148 -79l-6 -42c46 -11 67 -44 67 -87c0 -69 -42 -121 -109 -121c-29 0 -55 18 -66 35c-6 9 -5 15 4 24l22 24c6 7 15 5 21 -1c5 -5 11 -9 20 -9c15 0 31 14 31 38c0 15 -7 31 -53 36c-13 1 -15 10 -13 18z" />
    <glyph glyph-name="dcaron" unicode="&#x10f;" horiz-adv-x="520" 
d="M165 -10c-94 0 -151 89 -151 187c0 134 103 233 211 233c43 0 69 -16 69 -16l41 287c2 11 6 19 21 19h113c9 0 16 -9 15 -19l-93 -662c-2 -10 -11 -19 -20 -19h-47c-6 0 -13 6 -15 12l-11 38c-20 -22 -69 -60 -133 -60zM208 120c39 0 77 40 77 89c1 40 -26 70 -57 70
c-39 0 -75 -41 -75 -91c0 -38 24 -68 55 -68zM553 414l-14 19c-5 7 -4 15 5 21c11 7 71 52 82 120c1 0 -18 -7 -42 -7c-34 0 -59 27 -59 62c0 44 38 81 87 81c31 0 71 -25 71 -93c0 -119 -86 -183 -112 -202c-9 -7 -15 -5 -18 -1z" />
    <glyph glyph-name="dcroat" unicode="&#x111;" horiz-adv-x="480" 
d="M165 -10c-94 0 -151 89 -151 187c0 134 103 233 211 233c43 0 69 -16 69 -16l19 137h-74c-10 0 -17 8 -15 18l3 18c2 10 10 19 19 19h75l14 95c2 11 6 19 21 19h113c9 0 16 -9 15 -19l-14 -95h29c9 0 17 -9 15 -19l-3 -17c-2 -10 -10 -19 -19 -19h-29l-72 -512
c-2 -10 -11 -19 -20 -19h-47c-6 0 -13 6 -15 12l-11 38c-20 -22 -69 -60 -133 -60zM208 120c39 0 77 40 77 89c1 40 -26 70 -57 70c-39 0 -75 -41 -75 -91c0 -38 24 -68 55 -68z" />
    <glyph glyph-name="eth" unicode="&#xf0;" horiz-adv-x="481" 
d="M16 185c0 171 108 251 213 251c24 0 58 -9 76 -24c-3 50 -29 89 -60 118l-77 -44c-10 -6 -17 -2 -21 6l-8 15c-4 8 1 21 9 26l52 30c-18 11 -34 19 -45 23c-13 4 -20 15 -13 29l35 71c5 11 17 20 30 16c26 -9 72 -30 116 -68l66 38c9 5 17 0 21 -8l7 -14
c4 -9 0 -21 -9 -26l-48 -28c51 -57 92 -141 92 -259c0 -159 -67 -347 -259 -347c-97 0 -177 85 -177 195zM214 128c55 0 89 58 89 115c0 44 -20 78 -62 78c-52 0 -89 -55 -89 -115c0 -44 20 -78 62 -78z" />
    <glyph glyph-name="egrave" unicode="&#xe8;" horiz-adv-x="396" 
d="M12 165c0 135 99 245 234 245c68 0 132 -40 132 -105c0 -87 -89 -135 -235 -135c-1 -27 9 -59 53 -59c19 0 43 12 58 24c6 5 17 6 25 -4l42 -55c6 -7 4 -20 -2 -27c-39 -40 -88 -59 -143 -59c-103 0 -164 83 -164 175zM155 246c0 0 99 3 99 40c0 13 -11 20 -24 20
c-29 0 -65 -26 -75 -60zM325 512l-157 82c-7 4 -11 15 -1 30l39 55c6 9 15 10 24 3l142 -104c5 -3 8 -11 3 -19l-24 -38c-6 -10 -15 -15 -26 -9z" />
    <glyph glyph-name="eacute" unicode="&#xe9;" horiz-adv-x="396" 
d="M12 165c0 135 99 245 234 245c68 0 132 -40 132 -105c0 -87 -89 -135 -235 -135c-1 -27 9 -59 53 -59c19 0 43 12 58 24c6 5 17 6 25 -4l42 -55c6 -7 4 -20 -2 -27c-39 -40 -88 -59 -143 -59c-103 0 -164 83 -164 175zM155 246c0 0 99 3 99 40c0 13 -11 20 -24 20
c-29 0 -65 -26 -75 -60zM193 512c-13 -6 -19 -1 -23 9l-18 47c-3 8 2 16 8 19l172 104c6 4 19 6 25 -7l26 -60c6 -15 -1 -26 -10 -30z" />
    <glyph glyph-name="ecircumflex" unicode="&#xea;" horiz-adv-x="396" 
d="M12 165c0 135 99 245 234 245c68 0 132 -40 132 -105c0 -87 -89 -135 -235 -135c-1 -27 9 -59 53 -59c19 0 43 12 58 24c6 5 17 6 25 -4l42 -55c6 -7 4 -20 -2 -27c-39 -40 -88 -59 -143 -59c-103 0 -164 83 -164 175zM155 246c0 0 99 3 99 40c0 13 -11 20 -24 20
c-29 0 -65 -26 -75 -60zM159 512c-10 -6 -14 -4 -19 4l-27 47c-4 7 0 14 8 19l139 104c9 6 18 6 24 0l114 -104c4 -4 8 -12 3 -19l-36 -46c-5 -7 -15 -8 -19 -5l-81 60z" />
    <glyph glyph-name="ecaron" unicode="&#x11b;" horiz-adv-x="396" 
d="M12 165c0 135 99 245 234 245c68 0 132 -40 132 -105c0 -87 -89 -135 -235 -135c-1 -27 9 -59 53 -59c19 0 43 12 58 24c6 5 17 6 25 -4l42 -55c6 -7 4 -20 -2 -27c-39 -40 -88 -59 -143 -59c-103 0 -164 83 -164 175zM155 246c0 0 99 3 99 40c0 13 -11 20 -24 20
c-29 0 -65 -26 -75 -60zM242 512l-114 104c-4 4 -8 12 -3 19l36 46c5 7 15 8 19 5l81 -60l106 60c10 6 14 4 19 -4l27 -47c4 -7 0 -14 -8 -19l-139 -104c-9 -6 -18 -6 -24 0z" />
    <glyph glyph-name="edieresis" unicode="&#xeb;" horiz-adv-x="396" 
d="M12 165c0 135 99 245 234 245c68 0 132 -40 132 -105c0 -87 -89 -135 -235 -135c-1 -27 9 -59 53 -59c19 0 43 12 58 24c6 5 17 6 25 -4l42 -55c6 -7 4 -20 -2 -27c-39 -40 -88 -59 -143 -59c-103 0 -164 83 -164 175zM155 246c0 0 99 3 99 40c0 13 -11 20 -24 20
c-29 0 -65 -26 -75 -60zM351 535c-35 0 -59 32 -53 71c5 39 37 70 72 70s60 -31 55 -70c-6 -39 -39 -71 -74 -71zM166 535c-35 0 -59 32 -53 71c5 39 37 70 72 70s60 -31 55 -70c-6 -39 -39 -71 -74 -71z" />
    <glyph glyph-name="emacron" unicode="&#x113;" horiz-adv-x="396" 
d="M12 165c0 135 99 245 234 245c68 0 132 -40 132 -105c0 -87 -89 -135 -235 -135c-1 -27 9 -59 53 -59c19 0 43 12 58 24c6 5 17 6 25 -4l42 -55c6 -7 4 -20 -2 -27c-39 -40 -88 -59 -143 -59c-103 0 -164 83 -164 175zM155 246c0 0 99 3 99 40c0 13 -11 20 -24 20
c-29 0 -65 -26 -75 -60zM148 563c-10 0 -15 8 -14 18l5 41c1 11 10 19 20 19h231c9 0 16 -8 14 -19l-6 -41c-1 -10 -9 -18 -19 -18h-231z" />
    <glyph glyph-name="ebreve" unicode="&#x115;" horiz-adv-x="396" 
d="M12 165c0 135 99 245 234 245c68 0 132 -40 132 -105c0 -87 -89 -135 -235 -135c-1 -27 9 -59 53 -59c19 0 43 12 58 24c6 5 17 6 25 -4l42 -55c6 -7 4 -20 -2 -27c-39 -40 -88 -59 -143 -59c-103 0 -164 83 -164 175zM155 246c0 0 99 3 99 40c0 13 -11 20 -24 20
c-29 0 -65 -26 -75 -60zM264 527c-63 0 -113 52 -112 120c0 12 9 22 20 22h43c6 0 12 -6 13 -12c4 -27 21 -48 44 -48c21 0 45 24 56 48c3 7 9 12 17 12h50c11 0 18 -10 15 -22c-16 -69 -71 -120 -146 -120z" />
    <glyph glyph-name="edotaccent" unicode="&#x117;" horiz-adv-x="396" 
d="M12 165c0 135 99 245 234 245c68 0 132 -40 132 -105c0 -87 -89 -135 -235 -135c-1 -27 9 -59 53 -59c19 0 43 12 58 24c6 5 17 6 25 -4l42 -55c6 -7 4 -20 -2 -27c-39 -40 -88 -59 -143 -59c-103 0 -164 83 -164 175zM155 246c0 0 99 3 99 40c0 13 -11 20 -24 20
c-29 0 -65 -26 -75 -60zM257 521c-38 0 -65 31 -65 69c0 49 42 90 88 90c38 0 66 -32 66 -70c0 -49 -43 -89 -89 -89z" />
    <glyph glyph-name="eogonek" unicode="&#x119;" horiz-adv-x="396" 
d="M135 -5c-78 18 -123 91 -123 170c0 135 99 245 234 245c68 0 132 -40 132 -105c0 -87 -89 -135 -235 -135c-1 -27 9 -59 53 -59c19 0 43 12 58 24c6 5 17 6 25 -4l42 -55c6 -7 4 -20 -2 -27c-33 -34 -72 -51 -116 -57c-21 -22 -46 -57 -46 -99c0 -29 15 -55 57 -55
c13 0 25 4 34 6c14 3 21 -7 19 -19l-5 -33c-1 -9 -9 -17 -17 -19c-8 -3 -34 -8 -56 -8c-59 0 -116 32 -116 97c0 61 37 108 62 133zM155 246c0 0 99 3 99 40c0 13 -11 20 -24 20c-29 0 -65 -26 -75 -60z" />
    <glyph glyph-name="gcircumflex" unicode="&#x11d;" horiz-adv-x="479" 
d="M172 512c-10 -6 -14 -4 -19 4l-27 47c-4 7 0 14 8 19l139 104c9 6 18 6 24 0l114 -104c4 -4 8 -12 3 -19l-36 -46c-5 -7 -15 -8 -19 -5l-81 60zM46 -97c12 14 25 8 33 0c10 -11 37 -37 77 -37c34 0 69 24 80 102l4 38s-34 -16 -73 -16c-79 0 -153 80 -153 182
c0 128 91 237 208 237c91 0 119 -63 119 -63l17 40c4 10 12 14 22 14h47c9 0 16 -8 14 -19l-57 -413c-23 -159 -101 -228 -221 -228c-92 0 -149 57 -160 73c-6 8 -16 19 -2 36zM206 120c45 0 79 38 79 89c0 39 -24 70 -56 70c-37 0 -76 -40 -76 -91c0 -38 22 -68 53 -68z
" />
    <glyph glyph-name="gbreve" unicode="&#x11f;" horiz-adv-x="479" 
d="M271 527c-63 0 -113 52 -112 120c0 12 9 22 20 22h43c6 0 12 -6 13 -12c4 -27 21 -48 44 -48c21 0 45 24 56 48c3 7 9 12 17 12h50c11 0 18 -10 15 -22c-16 -69 -71 -120 -146 -120zM46 -97c12 14 25 8 33 0c10 -11 37 -37 77 -37c34 0 69 24 80 102l4 38
s-34 -16 -73 -16c-79 0 -153 80 -153 182c0 128 91 237 208 237c91 0 119 -63 119 -63l17 40c4 10 12 14 22 14h47c9 0 16 -8 14 -19l-57 -413c-23 -159 -101 -228 -221 -228c-92 0 -149 57 -160 73c-6 8 -16 19 -2 36zM206 120c45 0 79 38 79 89c0 39 -24 70 -56 70
c-37 0 -76 -40 -76 -91c0 -38 22 -68 53 -68z" />
    <glyph glyph-name="gdotaccent" unicode="&#x121;" horiz-adv-x="479" 
d="M268 521c-38 0 -65 31 -65 69c0 49 42 90 88 90c38 0 66 -32 66 -70c0 -49 -43 -89 -89 -89zM46 -97c12 14 25 8 33 0c10 -11 37 -37 77 -37c34 0 69 24 80 102l4 38s-34 -16 -73 -16c-79 0 -153 80 -153 182c0 128 91 237 208 237c91 0 119 -63 119 -63l17 40
c4 10 12 14 22 14h47c9 0 16 -8 14 -19l-57 -413c-23 -159 -101 -228 -221 -228c-92 0 -149 57 -160 73c-6 8 -16 19 -2 36zM206 120c45 0 79 38 79 89c0 39 -24 70 -56 70c-37 0 -76 -40 -76 -91c0 -38 22 -68 53 -68z" />
    <glyph glyph-name="gcommaaccent" unicode="&#x123;" horiz-adv-x="479" 
d="M270 527c-31 0 -71 25 -71 93c0 119 86 183 112 202c9 7 15 5 18 1l14 -19c5 -7 4 -15 -5 -21c-11 -7 -71 -52 -82 -120c-1 0 18 7 42 7c34 0 59 -27 59 -62c0 -44 -38 -81 -87 -81zM46 -97c12 14 25 8 33 0c10 -11 37 -37 77 -37c34 0 69 24 80 102l4 38
s-34 -16 -73 -16c-79 0 -153 80 -153 182c0 128 91 237 208 237c91 0 119 -63 119 -63l17 40c4 10 12 14 22 14h47c9 0 16 -8 14 -19l-57 -413c-23 -159 -101 -228 -221 -228c-92 0 -149 57 -160 73c-6 8 -16 19 -2 36zM206 120c45 0 79 38 79 89c0 39 -24 70 -56 70
c-37 0 -76 -40 -76 -91c0 -38 22 -68 53 -68z" />
    <glyph glyph-name="hcircumflex" unicode="&#x125;" horiz-adv-x="498" 
d="M16 19l93 662c1 10 11 19 20 19h115c9 0 16 -9 15 -19l-42 -294c29 19 63 23 79 23c109 0 166 -99 150 -210l-25 -181c-2 -10 -11 -19 -20 -19h-111c-10 0 -15 9 -14 19l25 181c7 44 -13 79 -51 79c-20 0 -50 -11 -59 -79l-25 -181c-2 -13 -7 -19 -23 -19h-113
c-9 0 -16 9 -14 19zM93 729c-10 -6 -14 -4 -19 4l-27 47c-4 7 0 14 8 19l139 104c9 6 18 6 24 0l114 -104c4 -4 8 -12 3 -19l-36 -46c-5 -7 -15 -8 -19 -5l-81 60z" />
    <glyph glyph-name="hbar" unicode="&#x127;" horiz-adv-x="498" 
d="M16 19l72 512h-28c-9 0 -16 9 -14 19l3 17c2 10 10 19 19 19h27l14 95c1 10 11 19 20 19h115c9 0 16 -9 15 -19l-14 -95h76c10 0 17 -9 15 -19l-3 -18c-2 -10 -10 -18 -20 -18h-76l-20 -144c29 19 63 23 79 23c109 0 166 -99 150 -210l-25 -181c-2 -10 -11 -19 -20 -19
h-111c-10 0 -15 9 -14 19l25 181c7 44 -13 79 -51 79c-20 0 -50 -11 -59 -79l-25 -181c-2 -13 -7 -19 -23 -19h-113c-9 0 -16 9 -14 19z" />
    <glyph glyph-name="dotlessi" unicode="&#x131;" horiz-adv-x="255" 
d="M16 19l51 362c2 11 11 19 20 19h115c9 0 16 -8 15 -19l-51 -362c-1 -10 -11 -19 -20 -19h-115c-9 0 -16 9 -15 19z" />
    <glyph glyph-name="igrave" unicode="&#xec;" horiz-adv-x="255" 
d="M225 512l-157 82c-7 4 -11 15 -1 30l39 55c6 9 15 10 24 3l142 -104c5 -3 8 -11 3 -19l-24 -38c-6 -10 -15 -15 -26 -9zM16 19l51 362c2 11 11 19 20 19h115c9 0 16 -8 15 -19l-51 -362c-1 -10 -11 -19 -20 -19h-115c-9 0 -16 9 -15 19z" />
    <glyph glyph-name="iacute" unicode="&#xed;" horiz-adv-x="255" 
d="M95 512c-13 -6 -19 -1 -23 9l-18 47c-3 8 2 16 8 19l172 104c6 4 19 6 25 -7l26 -60c6 -15 -1 -26 -10 -30zM16 19l51 362c2 11 11 19 20 19h115c9 0 16 -8 15 -19l-51 -362c-1 -10 -11 -19 -20 -19h-115c-9 0 -16 9 -15 19z" />
    <glyph glyph-name="ibreve" unicode="&#x12d;" horiz-adv-x="255" 
d="M163 527c-63 0 -113 52 -112 120c0 12 9 22 20 22h43c6 0 12 -6 13 -12c4 -27 21 -48 44 -48c21 0 45 24 56 48c3 7 9 12 17 12h50c11 0 18 -10 15 -22c-16 -69 -71 -120 -146 -120zM16 19l51 362c2 11 11 19 20 19h115c9 0 16 -8 15 -19l-51 -362
c-1 -10 -11 -19 -20 -19h-115c-9 0 -16 9 -15 19z" />
    <glyph glyph-name="icircumflex" unicode="&#xee;" horiz-adv-x="255" 
d="M16 19l51 362c2 11 11 19 20 19h115c9 0 16 -8 15 -19l-51 -362c-1 -10 -11 -19 -20 -19h-115c-9 0 -16 9 -15 19zM62 512c-10 -6 -14 -4 -19 4l-27 47c-4 7 0 14 8 19l139 104c9 6 18 6 24 0l114 -104c4 -4 8 -12 3 -19l-36 -46c-5 -7 -15 -8 -19 -5l-81 60z" />
    <glyph glyph-name="itilde" unicode="&#x129;" horiz-adv-x="255" 
d="M62 555l-32 28c-6 6 -5 16 -2 23c9 19 48 84 106 84c41 0 60 -47 95 -47c15 0 29 17 35 28s14 14 25 5l31 -26c7 -5 3 -15 -3 -29c-7 -16 -41 -78 -99 -78c-47 0 -66 48 -97 48c-15 0 -28 -17 -35 -30c-5 -10 -15 -14 -24 -6zM16 19l51 362c2 11 11 19 20 19h115
c9 0 16 -8 15 -19l-51 -362c-1 -10 -11 -19 -20 -19h-115c-9 0 -16 9 -15 19z" />
    <glyph glyph-name="idieresis" unicode="&#xef;" horiz-adv-x="255" 
d="M251 535c-35 0 -59 32 -53 71c5 39 37 70 72 70s60 -31 55 -70c-6 -39 -39 -71 -74 -71zM66 535c-35 0 -59 32 -53 71c5 39 37 70 72 70s60 -31 55 -70c-6 -39 -39 -71 -74 -71zM15 19l51 362c2 11 11 19 20 19h115c9 0 16 -8 15 -19l-51 -362c-1 -10 -11 -19 -20 -19
h-115c-9 0 -16 9 -15 19z" />
    <glyph glyph-name="imacron" unicode="&#x12b;" horiz-adv-x="255" 
d="M45 563c-10 0 -15 8 -14 18l5 41c1 11 10 19 20 19h231c9 0 16 -8 14 -19l-6 -41c-1 -10 -9 -18 -19 -18h-231zM16 19l51 362c2 11 11 19 20 19h115c9 0 16 -8 15 -19l-51 -362c-1 -10 -11 -19 -20 -19h-115c-9 0 -16 9 -15 19z" />
    <glyph glyph-name="iogonek" unicode="&#x12f;" horiz-adv-x="255" 
d="M161 521c-39 0 -67 31 -67 69c0 49 42 90 89 90c39 0 68 -32 68 -70c0 -50 -44 -89 -90 -89zM16 19l51 362c2 11 11 19 20 19h115c9 0 16 -8 15 -19l-51 -362c-1 -10 -11 -19 -20 -19h-31c-21 -20 -54 -59 -54 -107c0 -29 15 -55 57 -55c13 0 25 4 34 6
c14 3 21 -7 19 -19l-5 -33c-1 -9 -9 -17 -17 -19c-8 -3 -34 -8 -56 -8c-59 0 -116 32 -116 97c0 66 43 115 68 138h-14c-9 0 -16 9 -15 19z" />
    <glyph glyph-name="dotlessj" unicode="&#x237;" horiz-adv-x="256" 
d="M1 -92l66 473c2 11 11 19 20 19h117c9 0 16 -8 14 -19l-67 -473c-19 -140 -99 -218 -223 -218c-46 0 -94 22 -107 38c-4 5 -4 16 0 23l47 80c5 9 16 10 22 7c10 -5 30 -13 47 -13c40 0 57 34 64 83z" />
    <glyph glyph-name="jcircumflex" unicode="&#x135;" horiz-adv-x="256" 
d="M1 -92l66 473c2 11 11 19 20 19h117c9 0 16 -8 14 -19l-67 -473c-19 -140 -99 -218 -223 -218c-46 0 -94 22 -107 38c-4 5 -4 16 0 23l47 80c5 9 16 10 22 7c10 -5 30 -13 47 -13c40 0 57 34 64 83zM57 512c-10 -6 -14 -4 -19 4l-27 47c-4 7 0 14 8 19l139 104
c9 6 18 6 24 0l114 -104c4 -4 8 -12 3 -19l-36 -46c-5 -7 -15 -8 -19 -5l-81 60z" />
    <glyph glyph-name="kcommaaccent" unicode="&#x137;" horiz-adv-x="479" 
d="M16 19l93 662c1 10 10 19 19 19h115c9 0 16 -9 15 -19l-61 -433l112 140c5 6 12 12 24 12h126c16 0 23 -16 11 -31l-143 -168l97 -171c8 -14 -3 -30 -18 -30h-123c-5 0 -10 3 -12 8l-83 174l-23 -163c-2 -10 -11 -19 -20 -19h-115c-9 0 -16 9 -14 19zM220 -90
c31 0 71 -25 71 -93c0 -119 -86 -183 -112 -202c-9 -7 -15 -5 -18 -1l-14 19c-5 7 -4 15 5 21c11 7 71 52 82 120c1 0 -18 -7 -42 -7c-34 0 -59 27 -59 62c0 44 38 81 87 81z" />
    <glyph glyph-name="kgreenlandic" unicode="&#x138;" horiz-adv-x="471" 
d="M16 19l51 362c1 10 11 19 20 19h113c9 0 15 -9 14 -19l-22 -153l116 160c5 7 14 12 25 12h112c16 0 21 -17 9 -31l-135 -180l104 -159c8 -13 -3 -30 -18 -30h-115c-4 0 -9 4 -11 8l-96 154l-20 -143c-1 -10 -11 -19 -20 -19h-113c-9 0 -15 9 -14 19z" />
    <glyph glyph-name="lacute" unicode="&#x13a;" horiz-adv-x="254" 
d="M16 19l93 662c1 10 11 19 20 19h114c9 0 16 -9 15 -19l-93 -662c-1 -10 -11 -19 -20 -19h-115c-9 0 -15 9 -14 19zM127 729c-13 -6 -19 -1 -23 9l-18 47c-3 8 2 16 8 19l172 104c6 4 19 6 25 -7l26 -60c6 -15 -1 -26 -10 -30z" />
    <glyph glyph-name="lcaron" unicode="&#x13e;" horiz-adv-x="294" 
d="M16 19l93 662c1 10 11 19 20 19h114c9 0 16 -9 15 -19l-93 -662c-1 -10 -11 -19 -20 -19h-115c-9 0 -15 9 -14 19zM310 414l-14 19c-5 7 -4 15 5 21c11 7 71 52 82 120c1 0 -18 -7 -42 -7c-34 0 -59 27 -59 62c0 44 38 81 87 81c31 0 71 -25 71 -93
c0 -119 -86 -183 -112 -202c-9 -7 -15 -5 -18 -1z" />
    <glyph glyph-name="lcommaaccent" unicode="&#x13c;" horiz-adv-x="254" 
d="M16 19l93 662c1 10 11 19 20 19h114c9 0 16 -9 15 -19l-93 -662c-1 -10 -11 -19 -20 -19h-115c-9 0 -15 9 -14 19zM80 -90c31 0 71 -25 71 -93c0 -119 -86 -183 -112 -202c-9 -7 -15 -5 -18 -1l-14 19c-5 7 -4 15 5 21c11 7 71 52 82 120c1 0 -18 -7 -42 -7
c-34 0 -59 27 -59 62c0 44 38 81 87 81z" />
    <glyph glyph-name="lslash" unicode="&#x142;" horiz-adv-x="263" 
d="M26 19l40 287l-21 -15c-8 -5 -18 -2 -22 7l-6 15c-3 8 0 19 9 25l49 31l44 312c1 10 11 19 20 19h114c9 0 16 -9 15 -19l-32 -225l41 30c9 7 19 2 23 -7l7 -16c3 -8 -1 -19 -10 -25l-70 -46l-52 -373c-2 -10 -11 -19 -20 -19h-115c-9 0 -16 9 -14 19z" />
    <glyph glyph-name="ldot" unicode="&#x140;" horiz-adv-x="383" 
d="M16 19l93 662c1 10 11 19 20 19h114c9 0 16 -9 15 -19l-93 -662c-1 -10 -11 -19 -20 -19h-115c-9 0 -15 9 -14 19zM319 281c-38 0 -65 31 -65 69c0 49 42 90 88 90c38 0 66 -32 66 -70c0 -49 -43 -89 -89 -89z" />
    <glyph glyph-name="nacute" unicode="&#x144;" horiz-adv-x="494" 
d="M16 19l50 362c2 11 11 19 20 19h48c5 0 12 -5 14 -12l11 -40c26 27 71 62 135 62c104 0 165 -96 149 -210l-25 -181c-2 -10 -11 -19 -20 -19h-111c-10 0 -16 9 -14 19l26 189c6 40 -8 71 -47 71c-29 0 -61 -25 -67 -66l-27 -194c-2 -14 -16 -19 -27 -19h-101
c-9 0 -16 9 -14 19zM222 512c-13 -6 -19 -1 -23 9l-18 47c-3 8 2 16 8 19l172 104c6 4 19 6 25 -7l26 -60c6 -15 -1 -26 -10 -30z" />
    <glyph glyph-name="ncaron" unicode="&#x148;" horiz-adv-x="494" 
d="M16 19l50 362c2 11 11 19 20 19h48c5 0 12 -5 14 -12l11 -40c26 27 71 62 135 62c104 0 165 -96 149 -210l-25 -181c-2 -10 -11 -19 -20 -19h-111c-10 0 -16 9 -14 19l26 189c6 40 -8 71 -47 71c-29 0 -61 -25 -67 -66l-27 -194c-2 -14 -16 -19 -27 -19h-101
c-9 0 -16 9 -14 19zM273 512l-114 104c-4 4 -8 12 -3 19l36 46c5 7 15 8 19 5l81 -60l106 60c10 6 14 4 19 -4l27 -47c4 -7 0 -14 -8 -19l-139 -104c-9 -6 -18 -6 -24 0z" />
    <glyph glyph-name="ntilde" unicode="&#xf1;" horiz-adv-x="494" 
d="M16 19l50 362c2 11 11 19 20 19h48c5 0 12 -5 14 -12l11 -40c26 27 71 62 135 62c104 0 165 -96 149 -210l-25 -181c-2 -10 -11 -19 -20 -19h-111c-10 0 -16 9 -14 19l26 189c6 40 -8 71 -47 71c-29 0 -61 -25 -67 -66l-27 -194c-2 -14 -16 -19 -27 -19h-101
c-9 0 -16 9 -14 19zM187 555l-32 28c-6 6 -5 16 -2 23c9 19 48 84 106 84c41 0 60 -47 95 -47c15 0 29 17 35 28s14 14 25 5l31 -26c7 -5 3 -15 -3 -29c-7 -16 -41 -78 -99 -78c-47 0 -66 48 -97 48c-15 0 -28 -17 -35 -30c-5 -10 -15 -14 -24 -6z" />
    <glyph glyph-name="ncommaaccent" unicode="&#x146;" horiz-adv-x="495" 
d="M16 19l50 362c2 11 11 19 20 19h48c5 0 12 -5 14 -12l11 -40c26 27 71 62 135 62c104 0 165 -96 149 -210l-25 -181c-2 -10 -11 -19 -20 -19h-111c-10 0 -16 9 -14 19l26 189c6 40 -8 71 -47 71c-29 0 -61 -25 -67 -66l-27 -194c-2 -14 -16 -19 -27 -19h-101
c-9 0 -16 9 -14 19zM204 -90c31 0 71 -25 71 -93c0 -119 -86 -183 -112 -202c-9 -7 -15 -5 -18 -1l-14 19c-5 7 -4 15 5 21c11 7 71 52 82 120c1 0 -18 -7 -42 -7c-34 0 -59 27 -59 62c0 44 38 81 87 81z" />
    <glyph glyph-name="napostrophe" unicode="&#x149;" horiz-adv-x="494" 
d="M16 19l50 362c2 11 11 19 20 19h48c5 0 12 -5 14 -12l11 -40c26 27 71 62 135 62c104 0 165 -96 149 -210l-25 -181c-2 -10 -11 -19 -20 -19h-111c-10 0 -16 9 -14 19l26 189c6 40 -8 71 -47 71c-29 0 -61 -25 -67 -66l-27 -194c-2 -14 -16 -19 -27 -19h-101
c-9 0 -16 9 -14 19zM-10 710c31 0 71 -25 71 -93c0 -119 -86 -183 -112 -202c-9 -7 -15 -5 -18 -1l-14 19c-5 7 -4 15 5 21c11 7 71 52 82 120c1 0 -18 -7 -42 -7c-34 0 -59 27 -59 62c0 44 38 81 87 81z" />
    <glyph glyph-name="ograve" unicode="&#xf2;" horiz-adv-x="430" 
d="M13 175c0 127 87 235 217 235c91 0 165 -83 165 -187c0 -128 -92 -233 -217 -233c-90 0 -165 80 -165 185zM193 120c38 0 74 41 74 92c0 37 -22 67 -52 67c-38 0 -73 -41 -73 -92c0 -37 21 -67 51 -67zM311 512l-157 82c-7 4 -11 15 -1 30l39 55c6 9 15 10 24 3l142 -104
c5 -3 8 -11 3 -19l-24 -38c-6 -10 -15 -15 -26 -9z" />
    <glyph glyph-name="oacute" unicode="&#xf3;" horiz-adv-x="430" 
d="M13 175c0 127 87 235 217 235c91 0 165 -83 165 -187c0 -128 -92 -233 -217 -233c-90 0 -165 80 -165 185zM193 120c38 0 74 41 74 92c0 37 -22 67 -52 67c-38 0 -73 -41 -73 -92c0 -37 21 -67 51 -67zM179 512c-13 -6 -19 -1 -23 9l-18 47c-3 8 2 16 8 19l172 104
c6 4 19 6 25 -7l26 -60c6 -15 -1 -26 -10 -30z" />
    <glyph glyph-name="ocircumflex" unicode="&#xf4;" horiz-adv-x="430" 
d="M13 175c0 127 87 235 217 235c91 0 165 -83 165 -187c0 -128 -92 -233 -217 -233c-90 0 -165 80 -165 185zM193 120c38 0 74 41 74 92c0 37 -22 67 -52 67c-38 0 -73 -41 -73 -92c0 -37 21 -67 51 -67zM144 512c-10 -6 -14 -4 -19 4l-27 47c-4 7 0 14 8 19l139 104
c9 6 18 6 24 0l114 -104c4 -4 8 -12 3 -19l-36 -46c-5 -7 -15 -8 -19 -5l-81 60z" />
    <glyph glyph-name="otilde" unicode="&#xf5;" horiz-adv-x="430" 
d="M13 175c0 127 87 235 217 235c91 0 165 -83 165 -187c0 -128 -92 -233 -217 -233c-90 0 -165 80 -165 185zM193 120c38 0 74 41 74 92c0 37 -22 67 -52 67c-38 0 -73 -41 -73 -92c0 -37 21 -67 51 -67zM143 555l-32 28c-6 6 -5 16 -2 23c9 19 48 84 106 84
c41 0 60 -47 95 -47c15 0 29 17 35 28s14 14 25 5l31 -26c7 -5 3 -15 -3 -29c-7 -16 -41 -78 -99 -78c-47 0 -66 48 -97 48c-15 0 -28 -17 -35 -30c-5 -10 -15 -14 -24 -6z" />
    <glyph glyph-name="odieresis" unicode="&#xf6;" horiz-adv-x="430" 
d="M13 175c0 127 87 235 217 235c91 0 165 -83 165 -187c0 -128 -92 -233 -217 -233c-90 0 -165 80 -165 185zM193 120c38 0 74 41 74 92c0 37 -22 67 -52 67c-38 0 -73 -41 -73 -92c0 -37 21 -67 51 -67zM338 535c-35 0 -59 32 -53 71c5 39 37 70 72 70s60 -31 55 -70
c-6 -39 -39 -71 -74 -71zM153 535c-35 0 -59 32 -53 71c5 39 37 70 72 70s60 -31 55 -70c-6 -39 -39 -71 -74 -71z" />
    <glyph glyph-name="omacron" unicode="&#x14d;" horiz-adv-x="430" 
d="M13 175c0 127 87 235 217 235c91 0 165 -83 165 -187c0 -128 -92 -233 -217 -233c-90 0 -165 80 -165 185zM193 120c38 0 74 41 74 92c0 37 -22 67 -52 67c-38 0 -73 -41 -73 -92c0 -37 21 -67 51 -67zM133 563c-10 0 -15 8 -14 18l5 41c1 11 10 19 20 19h231
c9 0 16 -8 14 -19l-6 -41c-1 -10 -9 -18 -19 -18h-231z" />
    <glyph glyph-name="obreve" unicode="&#x14f;" horiz-adv-x="430" 
d="M13 175c0 127 87 235 217 235c91 0 165 -83 165 -187c0 -128 -92 -233 -217 -233c-90 0 -165 80 -165 185zM193 120c38 0 74 41 74 92c0 37 -22 67 -52 67c-38 0 -73 -41 -73 -92c0 -37 21 -67 51 -67zM248 527c-63 0 -113 52 -112 120c0 12 9 22 20 22h43
c6 0 12 -6 13 -12c4 -27 21 -48 44 -48c21 0 45 24 56 48c3 7 9 12 17 12h50c11 0 18 -10 15 -22c-16 -69 -71 -120 -146 -120z" />
    <glyph glyph-name="ohungarumlaut" unicode="&#x151;" horiz-adv-x="430" 
d="M13 175c0 127 87 235 217 235c91 0 165 -83 165 -187c0 -128 -92 -233 -217 -233c-90 0 -165 80 -165 185zM193 120c38 0 74 41 74 92c0 37 -22 67 -52 67c-38 0 -73 -41 -73 -92c0 -37 21 -67 51 -67zM290 521c-11 0 -19 9 -15 19l43 141c3 10 11 19 23 19h92
c17 0 21 -12 13 -25l-90 -139c-5 -7 -12 -15 -23 -15h-43zM140 521c-10 0 -18 9 -14 19l42 141c3 11 10 19 20 19h96c17 0 21 -12 12 -25l-89 -139c-5 -8 -12 -15 -22 -15h-45z" />
    <glyph glyph-name="oslash" unicode="&#xf8;" horiz-adv-x="433" 
d="M19 9l-11 12c-5 7 -5 19 3 26l29 28c-16 29 -25 63 -25 100c0 127 87 235 217 235c42 0 80 -18 109 -47l32 31c8 8 18 7 24 0l10 -12c6 -7 5 -18 -4 -26l-33 -31c17 -30 27 -64 27 -102c0 -128 -92 -233 -217 -233c-42 0 -80 17 -109 46l-29 -28c-8 -7 -18 -6 -23 1z
M139 170l109 104c-8 7 -18 10 -29 10c-41 0 -80 -45 -80 -101v-13zM163 125c8 -7 19 -10 30 -10c41 0 81 45 81 101c0 5 -1 10 -1 15z" />
    <glyph glyph-name="oslashacute" unicode="&#x1ff;" horiz-adv-x="436" 
d="M181 512c-13 -6 -19 -1 -23 9l-18 47c-3 8 2 16 8 19l172 104c6 4 19 6 25 -7l26 -60c6 -15 -1 -26 -10 -30zM19 9l-11 12c-5 7 -5 19 3 26l29 28c-16 29 -25 63 -25 100c0 127 87 235 217 235c42 0 80 -18 109 -47l32 31c8 8 18 7 24 0l10 -12c6 -7 5 -18 -4 -26
l-33 -31c17 -30 27 -64 27 -102c0 -128 -92 -233 -217 -233c-42 0 -80 17 -109 46l-29 -28c-8 -7 -18 -6 -23 1zM139 170l109 104c-8 7 -18 10 -29 10c-41 0 -80 -45 -80 -101v-13zM163 125c8 -7 19 -10 30 -10c41 0 81 45 81 101c0 5 -1 10 -1 15z" />
    <glyph glyph-name="oe" unicode="&#x153;" horiz-adv-x="634" 
d="M13 175c0 127 94 235 216 235c43 0 85 -21 113 -52c0 0 58 52 147 52c64 0 127 -36 127 -101c0 -87 -86 -139 -232 -139c-1 -27 6 -59 50 -59c19 0 43 12 58 24c6 5 18 7 22 0c18 -22 27 -38 45 -59c6 -7 4 -20 -2 -27c-41 -37 -88 -59 -145 -59c-50 0 -84 22 -112 51
c-37 -32 -78 -51 -121 -51c-94 0 -166 85 -166 185zM400 252c0 0 90 5 90 39c0 12 -10 18 -22 18c-27 0 -59 -26 -68 -57zM193 120c37 0 73 43 73 94c0 37 -21 66 -50 66c-38 0 -73 -40 -73 -91c0 -38 20 -69 50 -69z" />
    <glyph glyph-name="racute" unicode="&#x155;" horiz-adv-x="328" 
d="M16 19l51 362c1 11 10 19 19 19h48c8 0 13 -5 15 -12l12 -44s42 66 105 66c34 0 59 -11 68 -19c7 -6 8 -14 2 -23l-61 -85c-6 -9 -14 -10 -20 -7c-4 2 -10 4 -18 4c-21 0 -44 -20 -49 -54l-29 -207c-2 -12 -6 -19 -22 -19h-107c-9 0 -16 9 -14 19zM135 512
c-13 -6 -19 -1 -23 9l-18 47c-3 8 2 16 8 19l172 104c6 4 19 6 25 -7l26 -60c6 -15 -1 -26 -10 -30z" />
    <glyph glyph-name="rcaron" unicode="&#x159;" horiz-adv-x="328" 
d="M16 19l51 362c1 11 10 19 19 19h48c8 0 13 -5 15 -12l12 -44s42 66 105 66c34 0 59 -11 68 -19c7 -6 8 -14 2 -23l-61 -85c-6 -9 -14 -10 -20 -7c-4 2 -10 4 -18 4c-21 0 -44 -20 -49 -54l-29 -207c-2 -12 -6 -19 -22 -19h-107c-9 0 -16 9 -14 19zM188 512l-114 104
c-4 4 -8 12 -3 19l36 46c5 7 15 8 19 5l81 -60l106 60c10 6 14 4 19 -4l27 -47c4 -7 0 -14 -8 -19l-139 -104c-9 -6 -18 -6 -24 0z" />
    <glyph glyph-name="rcommaaccent" unicode="&#x157;" horiz-adv-x="328" 
d="M16 19l51 362c1 11 10 19 19 19h48c8 0 13 -5 15 -12l12 -44s42 66 105 66c34 0 59 -11 68 -19c7 -6 8 -14 2 -23l-61 -85c-6 -9 -14 -10 -20 -7c-4 2 -10 4 -18 4c-21 0 -44 -20 -49 -54l-29 -207c-2 -12 -6 -19 -22 -19h-107c-9 0 -16 9 -14 19zM71 -90
c31 0 71 -25 71 -93c0 -119 -86 -183 -112 -202c-9 -7 -15 -5 -18 -1l-14 19c-5 7 -4 15 5 21c11 7 71 52 82 120c1 0 -18 -7 -42 -7c-34 0 -59 27 -59 62c0 44 38 81 87 81z" />
    <glyph glyph-name="sacute" unicode="&#x15b;" horiz-adv-x="347" 
d="M3 24c-6 6 -10 12 -4 21l41 73c4 6 13 11 22 6c19 -11 46 -19 67 -19c18 0 25 9 25 18c0 13 -11 22 -40 39c-54 32 -86 66 -86 115c0 71 56 133 159 133c59 0 109 -23 124 -33c7 -5 8 -13 2 -23l-39 -70c-4 -6 -12 -9 -19 -6c-15 7 -40 18 -71 18c-15 0 -22 -6 -22 -14
c0 -12 12 -20 31 -31c61 -35 106 -66 106 -124c0 -81 -58 -137 -175 -137c-59 0 -106 21 -121 34zM138 512c-13 -6 -19 -1 -23 9l-18 47c-3 8 2 16 8 19l172 104c6 4 19 6 25 -7l26 -60c6 -15 -1 -26 -10 -30z" />
    <glyph glyph-name="scircumflex" unicode="&#x15d;" horiz-adv-x="347" 
d="M3 24c-6 6 -10 12 -4 21l41 73c4 6 13 11 22 6c19 -11 46 -19 67 -19c18 0 25 9 25 18c0 13 -11 22 -40 39c-54 32 -86 66 -86 115c0 71 56 133 159 133c59 0 109 -23 124 -33c7 -5 8 -13 2 -23l-39 -70c-4 -6 -12 -9 -19 -6c-15 7 -40 18 -71 18c-15 0 -22 -6 -22 -14
c0 -12 12 -20 31 -31c61 -35 106 -66 106 -124c0 -81 -58 -137 -175 -137c-59 0 -106 21 -121 34zM103 512c-10 -6 -14 -4 -19 4l-27 47c-4 7 0 14 8 19l139 104c9 6 18 6 24 0l114 -104c4 -4 8 -12 3 -19l-36 -46c-5 -7 -15 -8 -19 -5l-81 60z" />
    <glyph glyph-name="scaron" unicode="&#x161;" horiz-adv-x="347" 
d="M3 24c-6 6 -10 12 -4 21l41 73c4 6 13 11 22 6c19 -11 46 -19 67 -19c18 0 25 9 25 18c0 13 -11 22 -40 39c-54 32 -86 66 -86 115c0 71 56 133 159 133c59 0 109 -23 124 -33c7 -5 8 -13 2 -23l-39 -70c-4 -6 -12 -9 -19 -6c-15 7 -40 18 -71 18c-15 0 -22 -6 -22 -14
c0 -12 12 -20 31 -31c61 -35 106 -66 106 -124c0 -81 -58 -137 -175 -137c-59 0 -106 21 -121 34zM191 512l-114 104c-4 4 -8 12 -3 19l36 46c5 7 15 8 19 5l81 -60l106 60c10 6 14 4 19 -4l27 -47c4 -7 0 -14 -8 -19l-139 -104c-9 -6 -18 -6 -24 0z" />
    <glyph glyph-name="scedilla" unicode="&#x15f;" horiz-adv-x="349" 
d="M4 24c-6 6 -10 12 -4 21l41 73c4 6 13 11 22 6c19 -11 46 -19 67 -19c18 0 25 9 25 18c0 13 -11 22 -40 39c-54 32 -86 66 -86 115c0 71 56 133 159 133c59 0 109 -23 124 -33c7 -5 8 -13 2 -23l-39 -70c-4 -6 -12 -9 -19 -6c-15 7 -40 18 -71 18c-15 0 -22 -6 -22 -14
c0 -12 12 -20 31 -31c61 -35 106 -66 106 -124c0 -75 -49 -128 -148 -136l-6 -43c46 -11 67 -44 67 -87c0 -69 -42 -121 -109 -121c-29 0 -55 18 -66 35c-6 9 -5 15 4 24l22 24c6 7 15 5 21 -1c5 -5 11 -9 20 -9c15 0 31 14 31 38c0 15 -7 31 -53 36c-13 1 -15 10 -13 18
l13 89c-39 6 -68 20 -79 30z" />
    <glyph glyph-name="scommaaccent" unicode="&#x219;" horiz-adv-x="348" 
d="M4 24c-6 6 -10 12 -4 21l41 73c4 6 13 11 22 6c19 -11 46 -19 67 -19c18 0 25 9 25 18c0 13 -11 22 -40 39c-54 32 -86 66 -86 115c0 71 56 133 159 133c59 0 109 -23 124 -33c7 -5 8 -13 2 -23l-39 -70c-4 -6 -12 -9 -19 -6c-15 7 -40 18 -71 18c-15 0 -22 -6 -22 -14
c0 -12 12 -20 31 -31c61 -35 106 -66 106 -124c0 -81 -58 -137 -175 -137c-59 0 -106 21 -121 34zM123 -90c31 0 71 -25 71 -93c0 -119 -86 -183 -112 -202c-9 -7 -15 -5 -18 -1l-14 19c-5 7 -4 15 5 21c11 7 71 52 82 120c1 0 -18 -7 -42 -7c-34 0 -59 27 -59 62
c0 44 38 81 87 81z" />
    <glyph glyph-name="germandbls" unicode="&#xdf;" horiz-adv-x="517" 
d="M255 5l-2 86c0 10 8 21 18 23c31 5 53 12 58 42c7 44 -97 107 -84 187c12 72 92 135 101 199c3 18 -5 35 -26 35c-24 0 -87 -49 -107 -191l-94 -667c-1 -10 -11 -19 -21 -19h-109c-10 0 -16 9 -15 19l93 663c33 233 133 328 275 328c73 0 168 -46 149 -172
c-14 -95 -86 -141 -93 -195c-7 -52 95 -95 80 -204c-17 -121 -119 -147 -206 -149c-8 0 -17 6 -17 15z" />
    <glyph glyph-name="tcaron" unicode="&#x165;" horiz-adv-x="333" 
d="M55 129l20 144h-34c-9 0 -14 9 -13 19l12 89c1 11 10 19 19 19h34l15 111c1 10 11 19 20 19h112c9 0 14 -9 13 -19l-15 -111h58c10 0 15 -8 14 -19l-12 -89c-1 -10 -10 -19 -20 -19h-58l-17 -124c-3 -22 13 -24 21 -24c11 0 18 2 27 4c8 2 17 -2 18 -13l8 -74
c2 -15 -7 -24 -15 -29c-10 -6 -62 -23 -113 -23c-64 0 -107 48 -94 139zM383 414l-14 19c-5 7 -4 15 5 21c11 7 71 52 82 120c1 0 -18 -7 -42 -7c-34 0 -59 27 -59 62c0 44 38 81 87 81c31 0 71 -25 71 -93c0 -119 -86 -183 -112 -202c-9 -7 -15 -5 -18 -1z" />
    <glyph glyph-name="tcommaaccent" unicode="&#x163;" horiz-adv-x="334" 
d="M55 129l20 144h-34c-9 0 -14 9 -13 19l12 89c1 11 10 19 19 19h34l15 111c1 10 11 19 20 19h112c9 0 14 -9 13 -19l-15 -111h58c10 0 15 -8 14 -19l-12 -89c-1 -10 -10 -19 -20 -19h-58l-17 -124c-3 -22 13 -24 21 -24c11 0 18 2 27 4c8 2 17 -2 18 -13l8 -74
c2 -15 -7 -24 -15 -29c-10 -6 -62 -23 -113 -23c-64 0 -107 48 -94 139zM145 -90c31 0 71 -25 71 -93c0 -119 -86 -183 -112 -202c-9 -7 -15 -5 -18 -1l-14 19c-5 7 -4 15 5 21c11 7 71 52 82 120c1 0 -18 -7 -42 -7c-34 0 -59 27 -59 62c0 44 38 81 87 81z" />
    <glyph glyph-name="uni021B" unicode="&#x21b;" horiz-adv-x="334" 
d="M55 129l20 144h-34c-9 0 -14 9 -13 19l12 89c1 11 10 19 19 19h34l15 111c1 10 11 19 20 19h112c9 0 14 -9 13 -19l-15 -111h58c10 0 15 -8 14 -19l-12 -89c-1 -10 -10 -19 -20 -19h-58l-17 -124c-3 -22 13 -24 21 -24c11 0 18 2 27 4c8 2 17 -2 18 -13l8 -74
c2 -15 -7 -24 -15 -29c-10 -6 -62 -23 -113 -23c-64 0 -107 48 -94 139zM145 -90c31 0 71 -25 71 -93c0 -119 -86 -183 -112 -202c-9 -7 -15 -5 -18 -1l-14 19c-5 7 -4 15 5 21c11 7 71 52 82 120c1 0 -18 -7 -42 -7c-34 0 -59 27 -59 62c0 44 38 81 87 81z" />
    <glyph glyph-name="tbar" unicode="&#x167;" horiz-adv-x="333" 
d="M55 129l5 39h-30c-9 0 -16 9 -14 19l3 17c2 10 10 19 19 19h30l7 50h-34c-9 0 -14 9 -13 19l12 89c1 11 10 19 19 19h34l15 111c1 10 11 19 20 19h112c9 0 14 -9 13 -19l-15 -111h58c10 0 15 -8 14 -19l-12 -89c-1 -10 -10 -19 -20 -19h-58l-7 -50h62c10 0 17 -9 15 -19
l-3 -18c-2 -10 -10 -18 -20 -18h-62l-2 -19c-3 -22 13 -24 21 -24c11 0 18 2 27 4c8 2 17 -2 18 -13l8 -74c2 -15 -7 -24 -15 -29c-10 -6 -62 -23 -113 -23c-64 0 -107 48 -94 139z" />
    <glyph glyph-name="thorn" unicode="&#xfe;" horiz-adv-x="482" 
d="M158 6l-40 -288c-2 -10 -11 -19 -20 -19h-110c-9 0 -16 9 -14 19l135 963c2 10 11 19 20 19h110c9 0 16 -9 14 -19l-41 -295c22 13 56 23 86 23c94 0 163 -95 147 -209c-17 -119 -104 -210 -219 -210c-16 0 -57 9 -68 16zM230 120c41 0 70 35 77 80c6 44 -13 79 -54 79
c-40 0 -70 -35 -76 -79c-7 -45 13 -80 53 -80z" />
    <glyph glyph-name="ugrave" unicode="&#xf9;" horiz-adv-x="481" 
d="M163 -10c-102 0 -147 78 -129 210l26 181c1 11 10 19 19 19h111c9 0 16 -8 15 -19l-27 -188c-7 -49 5 -73 34 -73c33 0 55 30 60 67l28 194c2 13 6 19 26 19h101c9 0 16 -8 15 -19l-51 -362c-1 -10 -11 -19 -20 -19h-48c-8 0 -12 6 -14 12l-11 39
c-20 -24 -66 -61 -135 -61zM334 512l-157 82c-7 4 -11 15 -1 30l39 55c6 9 15 10 24 3l142 -104c5 -3 8 -11 3 -19l-24 -38c-6 -10 -15 -15 -26 -9z" />
    <glyph glyph-name="uacute" unicode="&#xfa;" horiz-adv-x="481" 
d="M163 -10c-102 0 -147 78 -129 210l26 181c1 11 10 19 19 19h111c9 0 16 -8 15 -19l-27 -188c-7 -49 5 -73 34 -73c33 0 55 30 60 67l28 194c2 13 6 19 26 19h101c9 0 16 -8 15 -19l-51 -362c-1 -10 -11 -19 -20 -19h-48c-8 0 -12 6 -14 12l-11 39
c-20 -24 -66 -61 -135 -61zM204 512c-13 -6 -19 -1 -23 9l-18 47c-3 8 2 16 8 19l172 104c6 4 19 6 25 -7l26 -60c6 -15 -1 -26 -10 -30z" />
    <glyph glyph-name="ucircumflex" unicode="&#xfb;" horiz-adv-x="481" 
d="M163 -10c-102 0 -147 78 -129 210l26 181c1 11 10 19 19 19h111c9 0 16 -8 15 -19l-27 -188c-7 -49 5 -73 34 -73c33 0 55 30 60 67l28 194c2 13 6 19 26 19h101c9 0 16 -8 15 -19l-51 -362c-1 -10 -11 -19 -20 -19h-48c-8 0 -12 6 -14 12l-11 39
c-20 -24 -66 -61 -135 -61zM167 512c-10 -6 -14 -4 -19 4l-27 47c-4 7 0 14 8 19l139 104c9 6 18 6 24 0l114 -104c4 -4 8 -12 3 -19l-36 -46c-5 -7 -15 -8 -19 -5l-81 60z" />
    <glyph glyph-name="utilde" unicode="&#x169;" horiz-adv-x="481" 
d="M163 -10c-102 0 -147 78 -129 210l26 181c1 11 10 19 19 19h111c9 0 16 -8 15 -19l-27 -188c-7 -49 5 -73 34 -73c33 0 55 30 60 67l28 194c2 13 6 19 26 19h101c9 0 16 -8 15 -19l-51 -362c-1 -10 -11 -19 -20 -19h-48c-8 0 -12 6 -14 12l-11 39
c-20 -24 -66 -61 -135 -61zM168 555l-32 28c-6 6 -5 16 -2 23c9 19 48 84 106 84c41 0 60 -47 95 -47c15 0 29 17 35 28s14 14 25 5l31 -26c7 -5 3 -15 -3 -29c-7 -16 -41 -78 -99 -78c-47 0 -66 48 -97 48c-15 0 -28 -17 -35 -30c-5 -10 -15 -14 -24 -6z" />
    <glyph glyph-name="udieresis" unicode="&#xfc;" horiz-adv-x="481" 
d="M163 -10c-102 0 -147 78 -129 210l26 181c1 11 10 19 19 19h111c9 0 16 -8 15 -19l-27 -188c-7 -49 5 -73 34 -73c33 0 55 30 60 67l28 194c2 13 6 19 26 19h101c9 0 16 -8 15 -19l-51 -362c-1 -10 -11 -19 -20 -19h-48c-8 0 -12 6 -14 12l-11 39
c-20 -24 -66 -61 -135 -61zM361 535c-35 0 -59 32 -53 71c5 39 37 70 72 70s60 -31 55 -70c-6 -39 -39 -71 -74 -71zM176 535c-35 0 -59 32 -53 71c5 39 37 70 72 70s60 -31 55 -70c-6 -39 -39 -71 -74 -71z" />
    <glyph glyph-name="umacron" unicode="&#x16b;" horiz-adv-x="481" 
d="M163 -10c-102 0 -147 78 -129 210l26 181c1 11 10 19 19 19h111c9 0 16 -8 15 -19l-27 -188c-7 -49 5 -73 34 -73c33 0 55 30 60 67l28 194c2 13 6 19 26 19h101c9 0 16 -8 15 -19l-51 -362c-1 -10 -11 -19 -20 -19h-48c-8 0 -12 6 -14 12l-11 39
c-20 -24 -66 -61 -135 -61zM158 563c-10 0 -15 8 -14 18l5 41c1 11 10 19 20 19h231c9 0 16 -8 14 -19l-6 -41c-1 -10 -9 -18 -19 -18h-231z" />
    <glyph glyph-name="ubreve" unicode="&#x16d;" horiz-adv-x="481" 
d="M163 -10c-102 0 -147 78 -129 210l26 181c1 11 10 19 19 19h111c9 0 16 -8 15 -19l-27 -188c-7 -49 5 -73 34 -73c33 0 55 30 60 67l28 194c2 13 6 19 26 19h101c9 0 16 -8 15 -19l-51 -362c-1 -10 -11 -19 -20 -19h-48c-8 0 -12 6 -14 12l-11 39
c-20 -24 -66 -61 -135 -61zM270 527c-63 0 -113 52 -112 120c0 12 9 22 20 22h43c6 0 12 -6 13 -12c4 -27 21 -48 44 -48c21 0 45 24 56 48c3 7 9 12 17 12h50c11 0 18 -10 15 -22c-16 -69 -71 -120 -146 -120z" />
    <glyph glyph-name="uring" unicode="&#x16f;" horiz-adv-x="481" 
d="M163 -10c-102 0 -147 78 -129 210l26 181c1 11 10 19 19 19h111c9 0 16 -8 15 -19l-27 -188c-7 -49 5 -73 34 -73c33 0 55 30 60 67l28 194c2 13 6 19 26 19h101c9 0 16 -8 15 -19l-51 -362c-1 -10 -11 -19 -20 -19h-48c-8 0 -12 6 -14 12l-11 39
c-20 -24 -66 -61 -135 -61zM265 480c-49 0 -92 44 -92 100c0 72 53 130 120 130c50 0 92 -45 92 -100c0 -72 -52 -130 -120 -130zM273 551c21 0 42 24 42 50c0 20 -13 37 -30 37c-20 0 -42 -23 -42 -49c0 -20 13 -38 30 -38z" />
    <glyph glyph-name="uhungarumlaut" unicode="&#x171;" horiz-adv-x="481" 
d="M163 -10c-102 0 -147 78 -129 210l26 181c1 11 10 19 19 19h111c9 0 16 -8 15 -19l-27 -188c-7 -49 5 -73 34 -73c33 0 55 30 60 67l28 194c2 13 6 19 26 19h101c9 0 16 -8 15 -19l-51 -362c-1 -10 -11 -19 -20 -19h-48c-8 0 -12 6 -14 12l-11 39
c-20 -24 -66 -61 -135 -61zM314 521c-11 0 -19 9 -15 19l43 141c3 10 11 19 23 19h92c17 0 21 -12 13 -25l-90 -139c-5 -7 -12 -15 -23 -15h-43zM164 521c-10 0 -18 9 -14 19l42 141c3 11 10 19 20 19h96c17 0 21 -12 12 -25l-89 -139c-5 -8 -12 -15 -22 -15h-45z" />
    <glyph glyph-name="uogonek" unicode="&#x173;" horiz-adv-x="481" 
d="M163 -10c-102 0 -147 78 -129 210l26 181c1 11 10 19 19 19h111c9 0 16 -8 15 -19l-27 -188c-7 -49 5 -73 34 -73c33 0 55 30 60 67l28 194c2 13 6 19 26 19h101c9 0 16 -8 15 -19l-51 -362c-1 -10 -11 -19 -20 -19h-7c-21 -20 -54 -59 -54 -107c0 -29 15 -55 57 -55
c13 0 25 4 34 6c14 3 21 -7 19 -19l-5 -33c-1 -9 -9 -17 -17 -19c-8 -3 -34 -8 -56 -8c-59 0 -116 32 -116 97c0 82 66 138 83 150l-11 39c-20 -24 -66 -61 -135 -61z" />
    <glyph glyph-name="wacute" unicode="&#x1e83;" horiz-adv-x="570" 
d="M94 2l-71 373c-3 13 7 25 19 25h90c7 0 14 -5 15 -12l29 -133h1l103 137c3 4 6 8 15 8h10c6 0 10 -4 12 -8l64 -137h1l62 133c5 9 6 12 21 12h95c13 0 20 -12 14 -25l-178 -373c-3 -7 -8 -12 -17 -12h-4c-7 0 -11 4 -13 8l-91 192l-143 -192c-3 -5 -8 -8 -16 -8h-4
c-8 0 -13 5 -14 12zM253 512c-13 -6 -19 -1 -23 9l-18 47c-3 8 2 16 8 19l172 104c6 4 19 6 25 -7l26 -60c6 -15 -1 -26 -10 -30z" />
    <glyph glyph-name="wcircumflex" unicode="&#x175;" horiz-adv-x="570" 
d="M94 2l-71 373c-3 13 7 25 19 25h90c7 0 14 -5 15 -12l29 -133h1l103 137c3 4 6 8 15 8h10c6 0 10 -4 12 -8l64 -137h1l62 133c5 9 6 12 21 12h95c13 0 20 -12 14 -25l-178 -373c-3 -7 -8 -12 -17 -12h-4c-7 0 -11 4 -13 8l-91 192l-143 -192c-3 -5 -8 -8 -16 -8h-4
c-8 0 -13 5 -14 12zM220 512c-10 -6 -14 -4 -19 4l-27 47c-4 7 0 14 8 19l139 104c9 6 18 6 24 0l114 -104c4 -4 8 -12 3 -19l-36 -46c-5 -7 -15 -8 -19 -5l-81 60z" />
    <glyph glyph-name="wdieresis" unicode="&#x1e85;" horiz-adv-x="570" 
d="M94 2l-71 373c-3 13 7 25 19 25h90c7 0 14 -5 15 -12l29 -133h1l103 137c3 4 6 8 15 8h10c6 0 10 -4 12 -8l64 -137h1l62 133c5 9 6 12 21 12h95c13 0 20 -12 14 -25l-178 -373c-3 -7 -8 -12 -17 -12h-4c-7 0 -11 4 -13 8l-91 192l-143 -192c-3 -5 -8 -8 -16 -8h-4
c-8 0 -13 5 -14 12zM413 535c-35 0 -59 32 -53 71c5 39 37 70 72 70s60 -31 55 -70c-6 -39 -39 -71 -74 -71zM228 535c-35 0 -59 32 -53 71c5 39 37 70 72 70s60 -31 55 -70c-6 -39 -39 -71 -74 -71z" />
    <glyph glyph-name="wgrave" unicode="&#x1e81;" horiz-adv-x="570" 
d="M94 2l-71 373c-3 13 7 25 19 25h90c7 0 14 -5 15 -12l29 -133h1l103 137c3 4 6 8 15 8h10c6 0 10 -4 12 -8l64 -137h1l62 133c5 9 6 12 21 12h95c13 0 20 -12 14 -25l-178 -373c-3 -7 -8 -12 -17 -12h-4c-7 0 -11 4 -13 8l-91 192l-143 -192c-3 -5 -8 -8 -16 -8h-4
c-8 0 -13 5 -14 12zM386 512l-157 82c-7 4 -11 15 -1 30l39 55c6 9 15 10 24 3l142 -104c5 -3 8 -11 3 -19l-24 -38c-6 -10 -15 -15 -26 -9z" />
    <glyph glyph-name="yacute" unicode="&#xfd;" horiz-adv-x="424" 
d="M104 45l-84 333c-3 13 4 22 18 22h102c6 0 12 -5 13 -11l44 -183h1l89 183c3 6 9 11 17 11h116c13 0 18 -13 11 -26l-368 -662c-3 -6 -10 -12 -17 -12h-117c-13 0 -18 11 -10 25zM177 512c-13 -6 -19 -1 -23 9l-18 47c-3 8 2 16 8 19l172 104c6 4 19 6 25 -7l26 -60
c6 -15 -1 -26 -10 -30z" />
    <glyph glyph-name="ycircumflex" unicode="&#x177;" horiz-adv-x="424" 
d="M104 45l-84 333c-3 13 4 22 18 22h102c6 0 12 -5 13 -11l44 -183h1l89 183c3 6 9 11 17 11h116c13 0 18 -13 11 -26l-368 -662c-3 -6 -10 -12 -17 -12h-117c-13 0 -18 11 -10 25zM143 512c-10 -6 -14 -4 -19 4l-27 47c-4 7 0 14 8 19l139 104c9 6 18 6 24 0l114 -104
c4 -4 8 -12 3 -19l-36 -46c-5 -7 -15 -8 -19 -5l-81 60z" />
    <glyph glyph-name="ydieresis" unicode="&#xff;" horiz-adv-x="424" 
d="M104 45l-84 333c-3 13 4 22 18 22h102c6 0 12 -5 13 -11l44 -183h1l89 183c3 6 9 11 17 11h116c13 0 18 -13 11 -26l-368 -662c-3 -6 -10 -12 -17 -12h-117c-13 0 -18 11 -10 25zM336 535c-35 0 -59 32 -53 71c5 39 37 70 72 70s60 -31 55 -70c-6 -39 -39 -71 -74 -71z
M151 535c-35 0 -59 32 -53 71c5 39 37 70 72 70s60 -31 55 -70c-6 -39 -39 -71 -74 -71z" />
    <glyph glyph-name="ygrave" unicode="&#x1ef3;" horiz-adv-x="424" 
d="M104 45l-84 333c-3 13 4 22 18 22h102c6 0 12 -5 13 -11l44 -183h1l89 183c3 6 9 11 17 11h116c13 0 18 -13 11 -26l-368 -662c-3 -6 -10 -12 -17 -12h-117c-13 0 -18 11 -10 25zM309 512l-157 82c-7 4 -11 15 -1 30l39 55c6 9 15 10 24 3l142 -104c5 -3 8 -11 3 -19
l-24 -38c-6 -10 -15 -15 -26 -9z" />
    <glyph glyph-name="zacute" unicode="&#x17a;" horiz-adv-x="347" 
d="M11 0c-9 0 -17 9 -15 19l2 10l125 240v2h-66c-9 0 -15 9 -14 19l13 91c2 11 10 19 19 19h248c14 0 19 -13 12 -27l-136 -243v-2h68c10 0 15 -8 14 -19l-12 -90c-1 -10 -10 -19 -20 -19h-238zM145 512c-13 -6 -19 -1 -23 9l-18 47c-3 8 2 16 8 19l172 104c6 4 19 6 25 -7
l26 -60c6 -15 -1 -26 -10 -30z" />
    <glyph glyph-name="zcaron" unicode="&#x17e;" horiz-adv-x="347" 
d="M11 0c-9 0 -17 9 -15 19l2 10l125 240v2h-66c-9 0 -15 9 -14 19l13 91c2 11 10 19 19 19h248c14 0 19 -13 12 -27l-136 -243v-2h68c10 0 15 -8 14 -19l-12 -90c-1 -10 -10 -19 -20 -19h-238zM193 512l-114 104c-4 4 -8 12 -3 19l36 46c5 7 15 8 19 5l81 -60l106 60
c10 6 14 4 19 -4l27 -47c4 -7 0 -14 -8 -19l-139 -104c-9 -6 -18 -6 -24 0z" />
    <glyph glyph-name="zdotaccent" unicode="&#x17c;" horiz-adv-x="347" 
d="M11 0c-9 0 -17 9 -15 19l2 10l125 240v2h-66c-9 0 -15 9 -14 19l13 91c2 11 10 19 19 19h248c14 0 19 -13 12 -27l-136 -243v-2h68c10 0 15 -8 14 -19l-12 -90c-1 -10 -10 -19 -20 -19h-238zM206 521c-38 0 -65 31 -65 69c0 49 42 90 88 90c38 0 66 -32 66 -70
c0 -49 -43 -89 -89 -89z" />
    <glyph glyph-name="IJ" unicode="&#x132;" horiz-adv-x="722" 
d="M47 19l93 662c1 10 10 19 19 19h125c9 0 15 -9 14 -19l-93 -662c-1 -10 -10 -19 -19 -19h-125c-9 0 -15 9 -14 19zM283 63c-5 8 -2 18 4 25l66 65c7 7 16 8 23 0c6 -7 20 -19 43 -19c25 0 52 28 60 83l64 464c1 10 9 19 19 19h125c10 0 17 -9 16 -19l-67 -472
c-21 -149 -94 -219 -218 -219c-84 0 -123 53 -135 73z" />
    <glyph glyph-name="ij" unicode="&#x133;" horiz-adv-x="518" 
d="M161 521c-39 0 -67 31 -67 69c0 49 42 90 89 90c39 0 68 -32 68 -70c0 -50 -44 -89 -90 -89zM16 19l51 362c2 11 11 19 20 19h115c9 0 16 -8 15 -19l-51 -362c-1 -10 -11 -19 -20 -19h-115c-9 0 -16 9 -15 19zM424 521c-39 0 -67 31 -67 69c0 49 42 90 90 90
c39 0 67 -32 67 -70c0 -50 -43 -89 -90 -89zM263 -92l66 473c2 11 11 19 20 19h117c9 0 16 -8 14 -19l-67 -473c-19 -140 -99 -218 -223 -218c-46 0 -94 22 -107 38c-4 5 -4 16 0 23l47 80c5 9 16 10 22 7c10 -5 30 -13 47 -13c40 0 57 34 64 83z" />
    <glyph glyph-name="grave.cap" horiz-adv-x="272" 
d="M145 762l-157 82c-7 4 -11 15 -1 30l39 55c6 9 15 10 24 3l142 -104c5 -3 8 -11 3 -19l-24 -38c-6 -10 -15 -15 -26 -9z" />
    <glyph glyph-name="acute" unicode="&#xb4;" horiz-adv-x="272" 
d="M25 512c-13 -6 -19 -1 -23 9l-18 47c-3 8 2 16 8 19l172 104c6 4 19 6 25 -7l26 -60c6 -15 -1 -26 -10 -30z" />
    <glyph glyph-name="acute.cap" horiz-adv-x="272" 
d="M15 762c-13 -6 -19 -1 -23 9l-18 47c-3 8 2 16 8 19l172 104c6 4 19 6 25 -7l26 -60c6 -15 -1 -26 -10 -30z" />
    <glyph glyph-name="circumflex" unicode="&#x2c6;" horiz-adv-x="336" 
d="M33 512c-10 -6 -14 -4 -19 4l-27 47c-4 7 0 14 8 19l139 104c9 6 18 6 24 0l114 -104c4 -4 8 -12 3 -19l-36 -46c-5 -7 -15 -8 -19 -5l-81 60z" />
    <glyph glyph-name="circumflex.cap" horiz-adv-x="336" 
d="M21 762c-10 -6 -14 -4 -19 4l-27 47c-4 7 0 14 8 19l139 104c9 6 18 6 24 0l114 -104c4 -4 8 -12 3 -19l-36 -46c-5 -7 -15 -8 -19 -5l-81 60z" />
    <glyph glyph-name="caron" unicode="&#x2c7;" horiz-adv-x="336" 
d="M110 512l-114 104c-4 4 -8 12 -3 19l36 46c5 7 15 8 19 5l81 -60l106 60c10 6 14 4 19 -4l27 -47c4 -7 0 -14 -8 -19l-139 -104c-9 -6 -18 -6 -24 0z" />
    <glyph glyph-name="caron.cap" horiz-adv-x="336" 
d="M101 762l-114 104c-4 4 -8 12 -3 19l36 46c5 7 15 8 19 5l81 -60l106 60c10 6 14 4 19 -4l27 -47c4 -7 0 -14 -8 -19l-139 -104c-9 -6 -18 -6 -24 0z" />
    <glyph glyph-name="caron.alt" horiz-adv-x="336" 
d="M169 710c31 0 71 -25 71 -93c0 -119 -86 -183 -112 -202c-9 -7 -15 -5 -18 -1l-14 19c-5 7 -4 15 5 21c11 7 71 52 82 120c1 0 -18 -7 -42 -7c-34 0 -59 27 -59 62c0 44 38 81 87 81z" />
    <glyph glyph-name="tilde" unicode="&#x2dc;" horiz-adv-x="342" 
d="M23 555l-32 28c-6 6 -5 16 -2 23c9 19 48 84 106 84c41 0 60 -47 95 -47c15 0 29 17 35 28s14 14 25 5l31 -26c7 -5 3 -15 -3 -29c-7 -16 -41 -78 -99 -78c-47 0 -66 48 -97 48c-15 0 -28 -17 -35 -30c-5 -10 -15 -14 -24 -6z" />
    <glyph glyph-name="tilde.cap" horiz-adv-x="342" 
d="M12 785l-32 28c-6 6 -5 16 -2 23c9 19 48 84 106 84c41 0 60 -47 95 -47c15 0 29 17 35 28s14 14 25 5l31 -26c7 -5 3 -15 -3 -29c-7 -16 -41 -78 -99 -78c-47 0 -66 48 -97 48c-15 0 -28 -17 -35 -30c-5 -10 -15 -14 -24 -6z" />
    <glyph glyph-name="dieresis" unicode="&#xa8;" horiz-adv-x="373" 
d="M230 535c-35 0 -59 32 -53 71c5 39 37 70 72 70s60 -31 55 -70c-6 -39 -39 -71 -74 -71zM45 535c-35 0 -59 32 -53 71c5 39 37 70 72 70s60 -31 55 -70c-6 -39 -39 -71 -74 -71z" />
    <glyph glyph-name="dieresis.cap" horiz-adv-x="427" 
d="M279 768c-35 0 -59 32 -53 71c5 39 37 70 72 70s60 -31 55 -70c-6 -39 -39 -71 -74 -71zM40 768c-35 0 -59 32 -53 71c5 39 37 70 72 70s60 -31 55 -70c-6 -39 -39 -71 -74 -71z" />
    <glyph glyph-name="macron" unicode="&#xaf;" horiz-adv-x="373" 
d="M-13 563c-10 0 -15 8 -14 18l5 41c1 11 10 19 20 19h231c9 0 16 -8 14 -19l-6 -41c-1 -10 -9 -18 -19 -18h-231z" />
    <glyph glyph-name="macron.cap" horiz-adv-x="373" 
d="M16 801c-10 0 -16 8 -15 18l6 41c2 11 10 19 20 19h232c10 0 16 -8 14 -19l-7 -41c-2 -10 -10 -18 -20 -18h-230z" />
    <glyph glyph-name="uni02C9" unicode="&#x2c9;" horiz-adv-x="373" 
d="M26 563c-10 0 -15 8 -14 18l5 41c1 11 10 19 20 19h231c9 0 16 -8 14 -19l-6 -41c-1 -10 -9 -18 -19 -18h-231z" />
    <glyph glyph-name="breve" unicode="&#x2d8;" horiz-adv-x="311" 
d="M109 527c-63 0 -113 52 -112 120c0 12 9 22 20 22h43c6 0 12 -6 13 -12c4 -27 21 -48 44 -48c21 0 45 24 56 48c3 7 9 12 17 12h50c11 0 18 -10 15 -22c-16 -69 -71 -120 -146 -120z" />
    <glyph glyph-name="breve.cap" horiz-adv-x="311" 
d="M99 763c-63 0 -113 52 -112 120c0 12 9 22 20 22h43c6 0 12 -6 13 -12c4 -27 21 -48 44 -48c21 0 45 24 56 48c3 7 9 12 17 12h50c11 0 18 -10 15 -22c-16 -69 -71 -120 -146 -120z" />
    <glyph glyph-name="ring" unicode="&#x2da;" horiz-adv-x="261" 
d="M71 480c-49 0 -92 44 -92 100c0 72 53 130 120 130c50 0 92 -45 92 -100c0 -72 -52 -130 -120 -130zM79 551c21 0 42 24 42 50c0 20 -13 37 -30 37c-20 0 -42 -23 -42 -49c0 -20 13 -38 30 -38z" />
    <glyph glyph-name="ring.cap" horiz-adv-x="261" 
d="M61 752c-49 0 -92 44 -92 100c0 72 53 130 120 130c50 0 92 -45 92 -100c0 -72 -52 -130 -120 -130zM69 823c21 0 42 24 42 50c0 20 -13 37 -30 37c-20 0 -42 -23 -42 -49c0 -20 13 -38 30 -38z" />
    <glyph glyph-name="hungarumlaut" unicode="&#x2dd;" horiz-adv-x="353" 
d="M146 521c-11 0 -19 9 -15 19l43 141c3 10 11 19 23 19h92c17 0 21 -12 13 -25l-90 -139c-5 -7 -12 -15 -23 -15h-43zM-4 521c-10 0 -18 9 -14 19l42 141c3 11 10 19 20 19h96c17 0 21 -12 12 -25l-89 -139c-5 -8 -12 -15 -22 -15h-45z" />
    <glyph glyph-name="hungarumlaut.cap" horiz-adv-x="353" 
d="M132 768c-11 0 -19 9 -15 19l43 141c3 10 11 19 23 19h92c17 0 21 -12 13 -25l-90 -139c-5 -7 -12 -15 -22 -15h-44zM-18 768c-10 0 -18 9 -14 19l42 141c3 11 10 19 20 19h96c17 0 21 -12 12 -25l-89 -139c-5 -8 -12 -15 -23 -15h-44z" />
    <glyph glyph-name="dotaccent" unicode="&#x2d9;" horiz-adv-x="197" 
d="M46 521c-38 0 -65 31 -65 69c0 49 42 90 88 90c38 0 66 -32 66 -70c0 -49 -43 -89 -89 -89z" />
    <glyph glyph-name="dotaccent.cap" horiz-adv-x="197" 
d="M36 774c-38 0 -65 31 -65 69c0 49 41 90 87 90c39 0 67 -32 67 -70c0 -49 -43 -89 -89 -89z" />
    <glyph glyph-name="cedilla" unicode="&#xb8;" horiz-adv-x="222" 
d="M56 0h70l-8 -52c46 -11 67 -44 67 -87c0 -69 -42 -121 -109 -121c-29 0 -55 18 -66 35c-6 9 -5 15 4 24l22 24c6 7 15 5 21 -1c5 -5 11 -9 20 -9c15 0 31 14 31 38c0 15 -7 31 -53 36c-13 1 -15 10 -13 18z" />
    <glyph glyph-name="cedilla.cap" horiz-adv-x="222" 
d="M56 0h70l-8 -52c46 -11 67 -44 67 -87c0 -69 -42 -121 -109 -121c-29 0 -55 18 -66 35c-6 9 -5 15 4 24l22 24c6 7 15 5 21 -1c5 -5 11 -9 20 -9c15 0 31 14 31 38c0 15 -7 31 -53 36c-13 1 -15 10 -13 18z" />
    <glyph glyph-name="ogonek" unicode="&#x2db;" horiz-adv-x="248" 
d="M93 15h68s-71 -54 -71 -122c0 -29 15 -55 57 -55c13 0 25 4 34 6c14 3 21 -7 19 -19l-5 -33c-1 -9 -9 -17 -17 -19c-8 -3 -34 -8 -56 -8c-59 0 -116 32 -116 97c0 94 87 153 87 153z" />
    <glyph glyph-name="ogonek.cap" horiz-adv-x="248" 
d="M93 15h68s-71 -54 -71 -122c0 -29 15 -55 57 -55c13 0 25 4 34 6c14 3 21 -7 19 -19l-5 -33c-1 -9 -9 -17 -17 -19c-8 -3 -34 -8 -56 -8c-59 0 -116 32 -116 97c0 94 87 153 87 153z" />
    <glyph glyph-name="commaaccent" horiz-adv-x="263" 
d="M147 -90c31 0 71 -25 71 -93c0 -119 -86 -183 -112 -202c-9 -7 -15 -5 -18 -1l-14 19c-5 7 -4 15 5 21c11 7 71 52 82 120c1 0 -18 -7 -42 -7c-34 0 -59 27 -59 62c0 44 38 81 87 81z" />
    <glyph glyph-name="commaaccent.alt" horiz-adv-x="263" 
d="M147 -90c31 0 71 -25 71 -93c0 -119 -86 -183 -112 -202c-9 -7 -15 -5 -18 -1l-14 19c-5 7 -4 15 5 21c11 7 71 52 82 120c1 0 -18 -7 -42 -7c-34 0 -59 27 -59 62c0 44 38 81 87 81z" />
    <glyph glyph-name="commaaccent.cap" horiz-adv-x="263" 
d="M147 -90c31 0 71 -25 71 -93c0 -119 -86 -183 -112 -202c-9 -7 -15 -5 -18 -1l-14 19c-5 7 -4 15 5 21c11 7 71 52 82 120c1 0 -18 -7 -42 -7c-34 0 -59 27 -59 62c0 44 38 81 87 81z" />
    <glyph glyph-name="ellipsis" unicode="&#x2026;" horiz-adv-x="621" 
d="M399 60c0 49 42 89 88 89c38 0 66 -31 66 -69c0 -49 -43 -90 -89 -90c-38 0 -65 32 -65 70zM194 60c0 49 41 89 88 89c38 0 66 -31 66 -69c0 -49 -43 -90 -88 -90c-39 0 -66 32 -66 70zM46 -10c-38 0 -65 32 -65 70c0 49 41 89 88 89c38 0 66 -31 66 -69
c0 -49 -43 -90 -89 -90z" />
    <glyph glyph-name="uni00AD" unicode="&#xad;" horiz-adv-x="312" 
d="M35 178c-10 0 -15 8 -14 18l12 91c1 11 10 19 20 19h210c10 0 15 -8 14 -19l-12 -91c-1 -10 -10 -18 -20 -18h-210z" />
    <glyph glyph-name="exclamdown" unicode="&#xa1;" horiz-adv-x="273" 
d="M130 220c-47 0 -82 39 -82 85c0 57 53 105 108 105c45 0 79 -38 79 -83c0 -57 -52 -107 -105 -107zM75 112c2 8 11 16 19 16h43c8 0 15 -8 15 -16l10 -279l-16 -114c-1 -10 -10 -19 -19 -19h-143c-9 0 -16 9 -15 19l16 112z" />
    <glyph glyph-name="questiondown" unicode="&#xbf;" horiz-adv-x="416" 
d="M213 220c-47 0 -82 39 -82 85c0 57 53 105 108 105c45 0 79 -38 79 -83c0 -57 -52 -107 -105 -107zM120 84l4 25c2 11 10 19 20 19h111c9 0 16 -8 14 -19l-6 -42c-13 -89 -148 -131 -148 -204c0 -23 18 -40 44 -40c37 0 70 24 87 39c9 8 19 10 26 2l54 -65
c7 -7 5 -20 -3 -27c-20 -19 -82 -82 -199 -82c-85 0 -168 62 -168 151c0 125 155 187 164 243z" />
    <glyph glyph-name="quoteleft" unicode="&#x2018;" horiz-adv-x="198" 
d="M124 408c-31 0 -71 25 -71 93c0 119 86 183 112 202c9 7 15 5 18 1l14 -19c5 -7 4 -15 -5 -21c-11 -7 -71 -52 -82 -120c-1 0 18 7 42 7c34 0 59 -27 59 -62c0 -44 -38 -81 -87 -81z" />
    <glyph glyph-name="quoteright" unicode="&#x2019;" horiz-adv-x="193" 
d="M90 414l-14 19c-5 7 -4 15 5 21c11 7 71 52 82 120c1 0 -18 -7 -42 -7c-34 0 -59 27 -59 62c0 44 38 81 87 81c31 0 71 -25 71 -93c0 -119 -86 -183 -112 -202c-9 -7 -15 -5 -18 -1z" />
    <glyph glyph-name="quotedblleft" unicode="&#x201c;" horiz-adv-x="381" 
d="M307 408c-31 0 -71 25 -71 93c0 119 86 183 112 202c9 7 15 5 18 1l14 -19c5 -7 4 -15 -5 -21c-11 -7 -71 -52 -82 -120c-1 0 18 7 42 7c34 0 59 -27 59 -62c0 -44 -38 -81 -87 -81zM124 408c-31 0 -71 25 -71 93c0 119 86 183 112 202c9 7 15 5 18 1l14 -19
c5 -7 4 -15 -5 -21c-11 -7 -71 -52 -82 -120c-1 0 18 7 42 7c34 0 59 -27 59 -62c0 -44 -38 -81 -87 -81z" />
    <glyph glyph-name="quotedblright" unicode="&#x201d;" horiz-adv-x="376" 
d="M273 414l-14 19c-5 7 -4 15 5 21c11 7 71 52 82 120c1 0 -18 -7 -42 -7c-34 0 -59 27 -59 62c0 44 38 81 87 81c31 0 71 -25 71 -93c0 -119 -86 -183 -112 -202c-9 -7 -15 -5 -18 -1zM90 414l-14 19c-5 7 -4 15 5 21c11 7 71 52 82 120c1 0 -18 -7 -42 -7
c-34 0 -59 27 -59 62c0 44 38 81 87 81c31 0 71 -25 71 -93c0 -119 -86 -183 -112 -202c-9 -7 -15 -5 -18 -1z" />
    <glyph glyph-name="quotesinglbase" unicode="&#x201a;" horiz-adv-x="221" 
d="M1 52c0 44 38 81 87 81c31 0 71 -25 71 -93c0 -119 -86 -183 -112 -202c-9 -7 -15 -5 -18 -1l-14 19c-5 7 -4 15 5 21c11 7 71 52 82 120c1 0 -18 -7 -42 -7c-34 0 -59 27 -59 62z" />
    <glyph glyph-name="quotedblbase" unicode="&#x201e;" horiz-adv-x="404" 
d="M184 52c0 44 38 81 87 81c31 0 71 -25 71 -93c0 -119 -86 -183 -112 -202c-9 -7 -15 -5 -18 -1l-14 19c-5 7 -4 15 5 21c11 7 71 52 82 120c1 0 -18 -7 -42 -7c-34 0 -59 27 -59 62zM1 52c0 44 38 81 87 81c31 0 71 -25 71 -93c0 -119 -86 -183 -112 -202
c-9 -7 -15 -5 -18 -1l-14 19c-5 7 -4 15 5 21c11 7 71 52 82 120c1 0 -18 -7 -42 -7c-34 0 -59 27 -59 62z" />
    <glyph glyph-name="guilsinglleft" unicode="&#x2039;" horiz-adv-x="270" 
d="M84 39l-72 155c-4 8 -1 18 3 24l114 148c4 5 11 12 18 12h89c16 0 19 -15 10 -31l-80 -149l29 -137c3 -16 -3 -30 -18 -30h-81c-6 0 -10 4 -12 8z" />
    <glyph glyph-name="guilsinglright" unicode="&#x203a;" horiz-adv-x="271" 
d="M14 31c-16 0 -19 15 -10 31l80 149l-29 137c-3 16 3 30 18 30h81c6 0 10 -4 12 -8l72 -155c4 -8 1 -18 -3 -24l-114 -148c-4 -5 -11 -12 -18 -12h-89z" />
    <glyph glyph-name="guillemotleft" unicode="&#xab;" horiz-adv-x="478" 
d="M220 194c-4 8 -1 18 3 24l114 148c4 5 11 12 18 12h89c16 0 19 -15 10 -31l-80 -149l29 -137c3 -16 -3 -30 -18 -30h-81c-6 0 -10 4 -12 8zM84 39l-72 155c-4 8 -1 18 3 24l114 148c4 5 11 12 18 12h89c16 0 19 -15 10 -31l-80 -149l29 -137c3 -16 -3 -30 -18 -30h-81
c-6 0 -10 4 -12 8z" />
    <glyph glyph-name="guillemotright" unicode="&#xbb;" horiz-adv-x="479" 
d="M212 62l80 149l-29 137c-3 16 3 30 18 30h81c6 0 10 -4 12 -8l72 -155c4 -8 1 -18 -3 -24l-114 -148c-4 -5 -11 -12 -18 -12h-89c-16 0 -19 15 -10 31zM14 31c-16 0 -19 15 -10 31l80 149l-29 137c-3 16 3 30 18 30h81c6 0 10 -4 12 -8l72 -155c4 -8 1 -18 -3 -24
l-114 -148c-4 -5 -11 -12 -18 -12h-89z" />
    <glyph glyph-name="endash" unicode="&#x2013;" horiz-adv-x="499" 
d="M58 203c-10 0 -16 8 -15 18l7 51c2 11 10 19 20 19h377c10 0 16 -8 14 -19l-7 -51c-1 -10 -10 -18 -20 -18h-376z" />
    <glyph glyph-name="emdash" unicode="&#x2014;" horiz-adv-x="697" 
d="M58 203c-10 0 -16 8 -15 18l7 51c2 11 10 19 20 19h575c10 0 16 -8 14 -19l-7 -51c-1 -10 -10 -18 -20 -18h-574z" />
    <glyph glyph-name="bullet" unicode="&#x2022;" horiz-adv-x="365" 
d="M110 83c-66 0 -115 57 -115 124c0 87 77 162 156 162c68 0 119 -58 119 -128c0 -85 -79 -158 -160 -158z" />
    <glyph glyph-name="periodcentered" unicode="&#xb7;" horiz-adv-x="275" 
d="M125 149c-52 0 -90 43 -90 93c0 66 58 121 120 121c55 0 94 -43 94 -96c0 -64 -60 -118 -124 -118z" />
    <glyph glyph-name="uni2219" unicode="&#x2219;" horiz-adv-x="365" 
d="M158 149c-52 0 -90 43 -90 93c0 66 58 121 120 121c55 0 94 -43 94 -96c0 -64 -60 -118 -124 -118z" />
    <glyph glyph-name="dagger" unicode="&#x2020;" horiz-adv-x="556" 
d="M22 262c-9 0 -16 9 -15 19l15 100c1 10 10 19 19 19h134l39 281c2 10 11 19 20 19h123c9 0 15 -9 14 -19l-39 -281h142c9 0 15 -9 14 -19l-14 -100c-1 -10 -10 -19 -19 -19h-154l-116 -546c-2 -8 -11 -16 -19 -16h-22c-8 0 -16 8 -15 16l37 546h-144z" />
    <glyph glyph-name="daggerdbl" unicode="&#x2021;" horiz-adv-x="556" 
d="M13 1c-9 0 -15 9 -14 19l14 100c1 10 11 19 20 19h124l18 259l1 1h-134c-9 0 -15 9 -14 19l14 100c1 10 11 19 20 19h133l20 144c2 10 11 19 20 19h123c9 0 15 -9 14 -19l-20 -144h142c9 0 15 -9 14 -19l-14 -100c-1 -10 -10 -19 -19 -19h-143l-56 -260h136
c9 0 14 -9 13 -19l-14 -100c-1 -10 -10 -19 -19 -19h-145l-61 -285c-2 -8 -11 -16 -19 -16h-22c-8 0 -16 8 -15 16l18 285h-135z" />
    <glyph glyph-name="section" unicode="&#xa7;" horiz-adv-x="471" 
d="M31 -75c9 13 19 14 29 5c8 -7 70 -44 111 -44c34 0 61 19 61 54c0 39 -31 74 -79 103c-51 31 -127 80 -127 184c0 70 34 117 83 155c-22 30 -42 68 -42 124c0 97 60 204 219 204c85 0 154 -51 182 -71c10 -6 6 -23 1 -29l-58 -72c-10 -12 -27 -10 -33 -4
c-8 5 -57 44 -105 44c-28 0 -54 -22 -54 -54c0 -30 21 -54 79 -87c42 -24 133 -75 133 -184c0 -79 -46 -127 -89 -164c27 -27 52 -74 52 -126c0 -100 -55 -211 -228 -211c-92 0 -166 53 -185 73c-8 8 -10 13 -1 25zM246 153c0 0 27 31 27 82c0 57 -75 87 -75 87
s-31 -28 -31 -79c0 -61 79 -90 79 -90z" />
    <glyph glyph-name="paragraph" unicode="&#xb6;" horiz-adv-x="641" 
d="M166 -281l79 562h-39c-92 0 -160 80 -160 182c0 127 98 237 206 237h419c9 0 16 -9 15 -19l-9 -60c-2 -11 -10 -19 -19 -19h-45l-124 -883c-1 -10 -10 -19 -20 -19h-74c-9 0 -16 9 -14 19l124 882h-108l-124 -882c-1 -10 -10 -19 -19 -19h-73c-9 0 -16 9 -15 19z" />
    <glyph glyph-name="brokenbar.case" horiz-adv-x="295" 
d="M177 512c-9 0 -16 8 -15 18l47 331c1 11 10 19 19 19h18c9 0 15 -8 14 -19l-47 -331c-1 -10 -10 -18 -19 -18h-17zM111 169c2 11 11 19 20 19h18c9 0 15 -8 14 -19l-47 -331c-1 -10 -11 -18 -20 -18h-16c-9 0 -16 8 -15 18z" />
    <glyph glyph-name="copyright" unicode="&#xa9;" horiz-adv-x="716" 
d="M41 303c0 222 171 407 374 407c153 0 281 -141 281 -313c0 -223 -174 -407 -374 -407c-153 0 -281 141 -281 313zM126 313c0 -129 85 -236 204 -236c146 0 281 141 281 310c0 130 -85 235 -204 235c-145 0 -281 -138 -281 -309zM206 328c0 120 81 208 192 208
c36 0 77 -12 103 -38c7 -8 6 -20 -3 -29l-49 -48c-6 -6 -16 -7 -22 -3c-9 7 -27 13 -40 13c-40 0 -74 -43 -74 -93c0 -37 20 -67 52 -67c12 0 31 7 44 17c6 5 16 3 20 -3l37 -54c6 -7 3 -20 -5 -28c-36 -30 -69 -42 -108 -42c-79 0 -147 73 -147 167z" />
    <glyph glyph-name="registered" unicode="&#xae;" horiz-adv-x="716" 
d="M41 303c0 222 171 407 374 407c153 0 281 -141 281 -313c0 -223 -174 -407 -374 -407c-153 0 -281 141 -281 313zM126 313c0 -129 85 -236 204 -236c146 0 281 141 281 310c0 130 -85 235 -204 235c-145 0 -281 -138 -281 -309zM233 168c-10 0 -16 9 -14 19l46 328
c1 10 10 19 19 19h145c51 0 100 -43 100 -111c0 -73 -36 -110 -76 -128l19 -100c3 -13 -6 -27 -19 -27h-61c-7 0 -13 7 -14 14l-14 106h-36l-15 -101c-1 -10 -9 -19 -19 -19h-61zM336 369h56c14 0 29 17 29 38c0 16 -9 28 -19 28h-56z" />
    <glyph glyph-name="trademark" unicode="&#x2122;" horiz-adv-x="649" 
d="M241 378c-12 0 -18 11 -14 23l87 289c2 8 8 15 20 15h3c8 0 12 -6 14 -11l60 -172l109 172c3 5 7 11 17 11h3c9 0 15 -7 15 -15l7 -290c0 -12 -9 -22 -20 -22h-55c-8 0 -14 8 -14 17l2 105l-66 -116c-3 -6 -7 -9 -16 -9h-5c-7 0 -12 4 -14 10l-33 115l-27 -106
c-2 -8 -12 -16 -20 -16h-53zM51 378c-10 0 -16 9 -14 19l30 216h-52c-9 0 -16 8 -14 19l7 49c1 10 11 19 20 19h193c10 0 16 -9 15 -19l-7 -49c-2 -11 -10 -19 -20 -19h-52l-30 -216c-1 -10 -11 -19 -20 -19h-56z" />
    <glyph glyph-name="currency" unicode="&#xa4;" horiz-adv-x="425" 
d="M84 145l-47 54c-6 7 -4 20 3 27l57 52c-4 30 2 65 12 96l-42 53c-5 7 -4 21 4 27l56 47c8 6 18 7 23 0l41 -51c29 14 59 15 86 3l55 51c7 7 18 6 24 -1l48 -53c6 -6 4 -19 -3 -26l-56 -51c6 -33 -1 -70 -17 -104l41 -51c5 -7 3 -20 -5 -26l-55 -47c-8 -6 -18 -8 -23 -1
l-44 53c-26 -11 -56 -12 -77 0l-57 -52c-7 -7 -18 -6 -24 0zM191 295c12 -16 36 -16 53 1c16 15 19 42 9 58c-13 16 -37 16 -53 0c-18 -16 -21 -43 -9 -59z" />
    <glyph glyph-name="Euro" unicode="&#x20ac;" horiz-adv-x="652" 
d="M40 248c-9 0 -15 9 -14 19l2 17c1 10 10 19 19 19h34v2c0 21 1 42 4 63h-29c-9 0 -14 9 -13 19l2 17c1 10 10 19 19 19h32c44 168 183 287 360 287c89 0 157 -31 210 -93c6 -8 5 -20 -4 -28l-86 -76c-8 -7 -17 -6 -23 0c-25 28 -68 46 -108 46c-74 0 -140 -57 -172 -136
h179c10 0 17 -9 15 -19l-3 -19c-2 -10 -10 -18 -20 -18h-187c-2 -15 -3 -30 -3 -45c0 -7 0 -13 1 -19h144c10 0 17 -9 15 -19l-3 -18c-2 -10 -10 -18 -19 -18h-126c20 -58 64 -98 123 -98c34 0 81 23 116 52c7 6 19 5 24 -1l68 -90c6 -8 2 -20 -5 -27
c-71 -66 -146 -94 -226 -94c-134 0 -255 110 -280 258h-46z" />
    <glyph glyph-name="cent" unicode="&#xa2;" horiz-adv-x="383" 
d="M105 6c-59 29 -100 93 -100 169c0 133 100 235 223 235c11 0 21 -1 31 -3l16 42c4 10 14 16 23 13l16 -5c9 -3 12 -12 8 -23l-17 -45c21 -12 39 -30 54 -51c6 -9 2 -21 -8 -28l-63 -54c-4 -4 -12 -4 -18 2l-12 10l-57 -148c25 1 40 16 55 30c4 5 14 8 22 0l53 -53
c8 -8 10 -18 3 -28c-42 -57 -92 -79 -158 -79c-8 0 -16 1 -24 2l-37 -98c-4 -10 -14 -16 -23 -13l-15 5c-9 3 -14 12 -10 22zM156 137l56 148c-36 -8 -68 -50 -68 -100c0 -19 4 -36 12 -48z" />
    <glyph glyph-name="sterling" unicode="&#xa3;" horiz-adv-x="447" 
d="M26 19l2 18c58 94 69 177 67 252h-38c-9 0 -15 9 -14 19l2 17c1 10 8 19 20 19h27c-4 35 -7 79 -7 107c0 167 85 259 222 259c77 0 132 -49 152 -71c6 -6 5 -18 -2 -26l-60 -73c-9 -9 -22 -7 -28 -1c-12 11 -39 34 -72 34c-29 0 -58 -31 -58 -88c0 -27 13 -78 18 -141h70
c10 0 15 -9 14 -19l-2 -18c-1 -10 -10 -18 -20 -18h-62c-4 -46 -11 -97 -27 -155h137c9 0 15 -8 13 -19l-13 -96c-2 -10 -10 -19 -19 -19h-308c-9 0 -15 9 -14 19z" />
    <glyph glyph-name="florin" unicode="&#x192;" horiz-adv-x="377" 
d="M59 -92l51 365h-77c-10 0 -16 9 -14 19l12 89c2 11 10 19 20 19h77l13 93c19 137 104 217 230 217c53 0 88 -24 99 -38c4 -6 6 -17 0 -25l-55 -76c-6 -8 -15 -11 -21 -7c-8 5 -22 8 -36 8c-25 0 -56 -25 -64 -80l-13 -92h78c10 0 16 -8 15 -19l-13 -89
c-1 -10 -10 -19 -20 -19h-78l-51 -366c-19 -137 -102 -217 -231 -217c-52 0 -86 25 -98 38c-5 6 -6 17 -1 25l52 75c5 8 15 10 21 7c11 -5 25 -7 39 -7c25 0 57 25 65 80z" />
    <glyph glyph-name="yen" unicode="&#xa5;" horiz-adv-x="590" 
d="M107 118c-9 0 -14 9 -13 19l2 17c1 10 10 19 19 19h85l9 65h-85c-9 0 -14 9 -13 19l2 17c1 10 10 19 19 19h85l6 44l-148 334c-5 13 4 29 18 29h126c8 0 12 -4 14 -9l83 -205l141 205c3 4 7 9 16 9h141c15 0 20 -16 11 -29l-245 -333l-7 -45h84c10 0 17 -9 15 -19l-3 -18
c-2 -10 -10 -18 -20 -18h-83l-9 -65h83c10 0 17 -9 15 -19l-3 -18c-2 -10 -10 -18 -20 -18h-83l-13 -99c-1 -10 -11 -19 -20 -19h-124c-10 0 -15 9 -14 19l14 99h-85z" />
    <glyph glyph-name="ordfeminine" unicode="&#xaa;" horiz-adv-x="299" 
d="M131 396c-52 0 -84 34 -84 87c0 63 48 110 122 110c26 0 43 -7 43 -7c6 28 -5 43 -30 43c-14 0 -47 -5 -66 -9c-11 -2 -15 4 -14 16l-1 42c1 24 39 32 105 32c85 0 115 -39 103 -127l-24 -166c-1 -7 -8 -14 -14 -14h-34c-4 0 -8 4 -10 10l-8 21c-19 -17 -44 -38 -88 -38z
M170 469c13 0 25 15 25 37c0 12 -4 27 -20 27c-15 0 -27 -18 -27 -37c0 -15 9 -27 22 -27z" />
    <glyph glyph-name="ordmasculine" unicode="&#xba;" horiz-adv-x="283" 
d="M159 394c-66 0 -102 49 -102 124c0 117 52 192 142 192c66 0 103 -48 103 -124c0 -116 -53 -192 -143 -192zM169 481c24 0 38 60 38 108c0 20 -8 34 -18 34c-20 0 -38 -46 -38 -106c0 -25 7 -36 18 -36z" />
    <glyph glyph-name="onesuperior" unicode="&#xb9;" horiz-adv-x="198" 
d="M115 504c-5 0 -8 4 -8 9l26 184h-51c-5 0 -6 5 -6 11l7 38c1 5 4 8 9 11l76 43h64c5 0 8 -4 7 -9l-39 -278c-1 -5 -5 -9 -10 -9h-75z" />
    <glyph glyph-name="twosuperior" unicode="&#xb2;" horiz-adv-x="248" 
d="M68 504c-5 0 -9 4 -8 9l3 18l106 130c12 14 21 34 21 46c0 17 -9 21 -18 21c-12 0 -29 -10 -34 -14c-6 -5 -14 -5 -17 4l-15 42c-4 12 -6 18 9 27c10 6 42 23 86 23c49 0 85 -32 85 -81c0 -32 -12 -64 -36 -97l-38 -53h42c5 0 9 -4 8 -9l-8 -57c0 -5 -7 -9 -10 -9h-176z
" />
    <glyph glyph-name="threesuperior" unicode="&#xb3;" horiz-adv-x="237" 
d="M142 494c-46 0 -68 23 -74 29c-7 7 -8 13 -1 22l24 32c6 7 12 10 21 4c6 -4 13 -9 29 -9c14 0 25 9 25 29c0 11 -5 20 -18 20h-32c-6 0 -10 3 -8 16l4 34c1 12 9 17 20 17h25c9 0 21 10 21 28c0 10 -5 18 -16 18c-10 0 -18 -6 -26 -12c-6 -4 -10 -6 -16 4l-21 39
c-5 10 -2 16 4 21c13 10 37 24 81 24c57 0 92 -29 92 -72c0 -45 -30 -69 -57 -82c18 -8 44 -26 44 -65c0 -65 -59 -97 -121 -97z" />
    <glyph glyph-name="fraction" unicode="&#x2044;" horiz-adv-x="113" 
d="M-68 10c-3 -4 -8 -10 -16 -10h-59c-14 0 -20 14 -12 27l404 663c3 6 8 10 17 10h59c13 0 19 -14 11 -27z" />
    <glyph glyph-name="uni2215" unicode="&#x2215;" horiz-adv-x="113" 
d="M-68 10c-3 -4 -8 -10 -16 -10h-59c-14 0 -20 14 -12 27l404 663c3 6 8 10 17 10h59c13 0 19 -14 11 -27z" />
    <glyph glyph-name="onehalf" unicode="&#xbd;" horiz-adv-x="591" 
d="M32 27l404 663c3 6 8 10 17 10h59c13 0 19 -14 11 -27l-404 -663c-3 -4 -8 -10 -16 -10h-59c-14 0 -20 14 -12 27zM105 404c-5 0 -8 4 -8 9l26 184h-51c-5 0 -6 5 -6 11l7 38c1 5 4 8 9 11l76 43h64c5 0 8 -4 7 -9l-39 -278c-1 -5 -5 -9 -10 -9h-75zM309 9l3 18l106 130
c12 14 21 34 21 46c0 17 -9 21 -18 21c-12 0 -29 -10 -34 -14c-6 -5 -14 -5 -17 4l-15 42c-4 12 -6 18 9 27c10 6 42 23 86 23c49 0 85 -32 85 -81c0 -32 -12 -64 -36 -97l-38 -53h42c5 0 9 -4 8 -9l-8 -57c0 -5 -7 -9 -10 -9h-176c-5 0 -9 4 -8 9z" />
    <glyph glyph-name="onethird" unicode="&#x2153;" horiz-adv-x="600" 
d="M10 0c-14 0 -20 14 -12 27l404 663c3 6 8 10 17 10h59c13 0 19 -14 11 -27l-404 -663c-3 -4 -8 -10 -16 -10h-59zM71 404c-5 0 -8 4 -8 9l26 184h-51c-5 0 -6 5 -6 11l7 38c1 5 4 8 9 11l76 43h64c5 0 8 -4 7 -9l-39 -278c-1 -5 -5 -9 -10 -9h-75zM296 19
c-7 7 -8 13 -1 22l24 32c6 7 12 10 21 4c6 -4 13 -9 29 -9c14 0 25 9 25 29c0 11 -5 20 -18 20h-32c-6 0 -10 3 -8 16l4 34c1 12 9 17 20 17h25c9 0 21 10 21 28c0 10 -5 18 -16 18c-10 0 -18 -6 -26 -12c-6 -4 -10 -6 -16 4l-21 39c-5 10 -2 16 4 21c13 10 37 24 81 24
c57 0 92 -29 92 -72c0 -45 -30 -69 -57 -82c18 -8 44 -26 44 -65c0 -65 -59 -97 -121 -97c-46 0 -68 23 -74 29z" />
    <glyph glyph-name="onequarter" unicode="&#xbc;" horiz-adv-x="621" 
d="M32 27l404 663c3 6 8 10 17 10h59c13 0 19 -14 11 -27l-404 -663c-3 -4 -8 -10 -16 -10h-59c-14 0 -20 14 -12 27zM105 404c-5 0 -8 4 -8 9l26 184h-51c-5 0 -6 5 -6 11l7 38c1 5 4 8 9 11l76 43h64c5 0 8 -4 7 -9l-39 -278c-1 -5 -5 -9 -10 -9h-75zM305 64l9 62l164 167
c2 2 4 3 8 3h50c4 0 8 -4 7 -9l-23 -163h34c5 0 8 -4 7 -8l-7 -51c-1 -5 -5 -9 -9 -9h-35l-6 -47c-1 -5 -5 -9 -10 -9h-68c-5 0 -9 4 -8 9l7 47h-113c-5 0 -8 4 -7 8zM389 122h46l9 56z" />
    <glyph glyph-name="oneeighth" unicode="&#x215b;" horiz-adv-x="600" 
d="M10 0c-14 0 -20 14 -12 27l404 663c3 6 8 10 17 10h59c13 0 19 -14 11 -27l-404 -663c-3 -4 -8 -10 -16 -10h-59zM71 404c-5 0 -8 4 -8 9l26 184h-51c-5 0 -6 5 -6 11l7 38c1 5 4 8 9 11l76 43h64c5 0 8 -4 7 -9l-39 -278c-1 -5 -5 -9 -10 -9h-75zM288 67
c0 57 65 84 67 85v1c-14 6 -38 26 -38 61c0 57 59 92 120 92c55 0 98 -29 98 -74c0 -46 -37 -72 -58 -79v-1c20 -5 47 -25 47 -65c0 -56 -56 -97 -132 -97c-64 0 -104 33 -104 77zM402 209c-1 -12 6 -21 18 -21c13 0 24 9 25 21c2 13 -5 22 -18 22c-12 0 -23 -9 -25 -22z
M383 89c-2 -14 7 -25 21 -25s27 11 29 25c1 14 -8 25 -22 25s-27 -11 -28 -25z" />
    <glyph glyph-name="twothirds" unicode="&#x2154;" horiz-adv-x="600" 
d="M-25 404c-5 0 -9 4 -8 9l3 18l106 130c12 14 21 34 21 46c0 17 -9 21 -18 21c-12 0 -29 -10 -34 -14c-6 -5 -14 -5 -17 4l-15 42c-4 12 -6 18 9 27c10 6 42 23 86 23c49 0 85 -32 85 -81c0 -32 -12 -64 -36 -97l-38 -53h42c5 0 9 -4 8 -9l-8 -57c0 -5 -7 -9 -10 -9h-176z
M10 0c-14 0 -20 14 -12 27l404 663c3 6 8 10 17 10h59c13 0 19 -14 11 -27l-404 -663c-3 -4 -8 -10 -16 -10h-59zM296 19c-7 7 -8 13 -1 22l24 32c6 7 12 10 21 4c6 -4 13 -9 29 -9c14 0 25 9 25 29c0 11 -5 20 -18 20h-32c-6 0 -10 3 -8 16l4 34c1 12 9 17 20 17h25
c9 0 21 10 21 28c0 10 -5 18 -16 18c-10 0 -18 -6 -26 -12c-6 -4 -10 -6 -16 4l-21 39c-5 10 -2 16 4 21c13 10 37 24 81 24c57 0 92 -29 92 -72c0 -45 -30 -69 -57 -82c18 -8 44 -26 44 -65c0 -65 -59 -97 -121 -97c-46 0 -68 23 -74 29z" />
    <glyph glyph-name="threequarters" unicode="&#xbe;" horiz-adv-x="659" 
d="M127 394c-46 0 -68 23 -74 29c-7 7 -8 13 -1 22l24 32c6 7 12 10 21 4c6 -4 13 -9 29 -9c14 0 25 9 25 29c0 11 -5 20 -18 20h-32c-6 0 -10 3 -8 16l4 34c1 12 9 17 20 17h25c9 0 21 10 21 28c0 10 -5 18 -16 18c-10 0 -18 -6 -26 -12c-6 -4 -10 -6 -16 4l-21 39
c-5 10 -2 16 4 21c13 10 37 24 81 24c57 0 92 -29 92 -72c0 -45 -30 -69 -57 -82c18 -8 44 -26 44 -65c0 -65 -59 -97 -121 -97zM70 27l404 663c3 6 8 10 17 10h59c13 0 19 -14 11 -27l-404 -663c-3 -4 -8 -10 -16 -10h-59c-14 0 -20 14 -12 27zM343 64l9 62l164 167
c2 2 4 3 8 3h50c4 0 8 -4 7 -9l-23 -163h34c5 0 8 -4 7 -8l-7 -51c-1 -5 -5 -9 -9 -9h-35l-6 -47c-1 -5 -5 -9 -10 -9h-68c-5 0 -9 4 -8 9l7 47h-113c-5 0 -8 4 -7 8zM427 122h46l9 56z" />
    <glyph glyph-name="threeeighths" unicode="&#x215c;" horiz-adv-x="600" 
d="M55 394c-46 0 -68 23 -74 29c-7 7 -8 13 -1 22l24 32c6 7 12 10 21 4c6 -4 13 -9 29 -9c14 0 25 9 25 29c0 11 -5 20 -18 20h-32c-6 0 -10 3 -8 16l4 34c1 12 9 17 20 17h25c9 0 21 10 21 28c0 10 -5 18 -16 18c-10 0 -18 -6 -26 -12c-6 -4 -10 -6 -16 4l-21 39
c-5 10 -2 16 4 21c13 10 37 24 81 24c57 0 92 -29 92 -72c0 -45 -30 -69 -57 -82c18 -8 44 -26 44 -65c0 -65 -59 -97 -121 -97zM10 0c-14 0 -20 14 -12 27l404 663c3 6 8 10 17 10h59c13 0 19 -14 11 -27l-404 -663c-3 -4 -8 -10 -16 -10h-59zM288 67c0 57 65 84 67 85v1
c-14 6 -38 26 -38 61c0 57 59 92 120 92c55 0 98 -29 98 -74c0 -46 -37 -72 -58 -79v-1c20 -5 47 -25 47 -65c0 -56 -56 -97 -132 -97c-64 0 -104 33 -104 77zM402 209c-1 -12 6 -21 18 -21c13 0 24 9 25 21c2 13 -5 22 -18 22c-12 0 -23 -9 -25 -22zM383 89
c-2 -14 7 -25 21 -25s27 11 29 25c1 14 -8 25 -22 25s-27 -11 -28 -25z" />
    <glyph glyph-name="fiveeighths" unicode="&#x215d;" horiz-adv-x="600" 
d="M10 0c-14 0 -20 14 -12 27l404 663c3 6 8 10 17 10h59c13 0 19 -14 11 -27l-404 -663c-3 -4 -8 -10 -16 -10h-59zM53 394c-41 0 -74 24 -83 38c-3 4 -4 10 1 15l32 37c8 9 13 6 18 2c9 -8 18 -14 37 -14c15 0 34 11 34 32c0 15 -11 25 -24 25h-64c-9 0 -14 8 -13 15
l21 147c1 5 5 9 11 9h145c6 0 9 -4 8 -9l-7 -53c-1 -5 -5 -9 -11 -9h-82l-4 -29h22c49 0 90 -30 90 -83c0 -72 -47 -123 -131 -123zM288 67c0 57 65 84 67 85v1c-14 6 -38 26 -38 61c0 57 59 92 120 92c55 0 98 -29 98 -74c0 -46 -37 -72 -58 -79v-1c20 -5 47 -25 47 -65
c0 -56 -56 -97 -132 -97c-64 0 -104 33 -104 77zM402 209c-1 -12 6 -21 18 -21c13 0 24 9 25 21c2 13 -5 22 -18 22c-12 0 -23 -9 -25 -22zM383 89c-2 -14 7 -25 21 -25s27 11 29 25c1 14 -8 25 -22 25s-27 -11 -28 -25z" />
    <glyph glyph-name="seveneighths" unicode="&#x215e;" horiz-adv-x="600" 
d="M10 0c-14 0 -20 14 -12 27l404 663c3 6 8 10 17 10h59c13 0 19 -14 11 -27l-404 -663c-3 -4 -8 -10 -16 -10h-59zM-1 404c-8 0 -13 2 -12 9l1 5l121 208h-72c-5 0 -9 4 -8 8l8 57c1 5 6 9 10 9h178c4 0 9 -4 8 -9l-2 -16l-148 -262c-5 -7 -10 -9 -16 -9h-68zM288 67
c0 57 65 84 67 85v1c-14 6 -38 26 -38 61c0 57 59 92 120 92c55 0 98 -29 98 -74c0 -46 -37 -72 -58 -79v-1c20 -5 47 -25 47 -65c0 -56 -56 -97 -132 -97c-64 0 -104 33 -104 77zM402 209c-1 -12 6 -21 18 -21c13 0 24 9 25 21c2 13 -5 22 -18 22c-12 0 -23 -9 -25 -22z
M383 89c-2 -14 7 -25 21 -25s27 11 29 25c1 14 -8 25 -22 25s-27 -11 -28 -25z" />
    <glyph glyph-name="perthousand" unicode="&#x2030;" horiz-adv-x="887" 
d="M126 441c-58 0 -105 52 -105 117c0 84 61 152 142 152c57 0 104 -51 104 -116c0 -85 -63 -153 -141 -153zM29 0c-14 0 -20 14 -12 27l404 663c3 6 8 10 17 10h59c13 0 19 -14 11 -27l-404 -663c-3 -4 -8 -10 -16 -10h-59zM140 538c18 0 29 18 29 43c0 19 -6 32 -22 32
c-18 0 -29 -20 -29 -44c0 -17 7 -31 22 -31zM532 107c0 84 61 152 142 152c57 0 104 -51 104 -116c0 -85 -63 -153 -141 -153c-58 0 -105 52 -105 117zM263 107c0 84 61 152 142 152c57 0 104 -51 104 -116c0 -85 -63 -153 -141 -153c-58 0 -105 52 -105 117zM629 118
c0 -17 7 -31 22 -31c18 0 29 18 29 43c0 19 -6 32 -22 32c-18 0 -29 -20 -29 -44zM360 118c0 -17 7 -31 22 -31c18 0 29 18 29 43c0 19 -6 32 -22 32c-18 0 -29 -20 -29 -44z" />
    <glyph glyph-name="minus" unicode="&#x2212;" horiz-adv-x="485" 
d="M6 293c-9 0 -15 9 -14 19l10 70c1 10 10 19 19 19h366c9 0 14 -9 13 -19l-10 -70c-1 -10 -10 -19 -19 -19h-365z" />
    <glyph glyph-name="plusminus" unicode="&#xb1;" horiz-adv-x="539" 
d="M227 239c-9 0 -16 8 -15 18l15 96h-126c-9 0 -16 9 -15 19l10 70c1 10 11 19 20 19h126l21 147c1 10 10 18 19 18h78c9 0 16 -8 14 -18l-20 -147h127c9 0 15 -9 14 -19l-10 -70c-1 -10 -10 -19 -19 -19h-128l-14 -96c-1 -10 -11 -18 -20 -18h-77zM51 39
c-9 0 -16 9 -14 19l9 70c2 10 11 19 20 19h365c9 0 15 -9 14 -19l-10 -70c-1 -10 -10 -19 -19 -19h-365z" />
    <glyph glyph-name="multiply" unicode="&#xd7;" horiz-adv-x="433" 
d="M87 167l-46 52c-6 6 -4 19 4 26l107 105l-75 103c-5 7 -4 20 3 26l54 47c7 6 19 7 24 0l75 -102l109 105c8 7 18 6 24 -1l46 -52c6 -6 4 -19 -3 -26l-109 -105l77 -103c5 -7 3 -20 -5 -26l-54 -46c-8 -6 -18 -8 -23 -1l-77 103l-108 -105c-7 -7 -17 -6 -23 0z" />
    <glyph glyph-name="divide" unicode="&#xf7;" horiz-adv-x="456" 
d="M252 471c-35 0 -59 30 -59 65c0 47 38 84 80 84c36 0 62 -29 62 -65c0 -46 -40 -84 -83 -84zM48 292c-9 0 -15 9 -14 19l10 70c1 10 10 19 19 19h365c9 0 15 -9 14 -19l-10 -70c-1 -10 -10 -19 -19 -19h-365zM136 145c0 46 39 83 81 83c36 0 62 -29 62 -65
c0 -46 -40 -84 -83 -84c-35 0 -60 30 -60 66z" />
    <glyph glyph-name="notequal" unicode="&#x2260;" horiz-adv-x="429" 
d="M70 48c-8 4 -11 15 -6 24l26 48h-60c-10 0 -15 9 -14 19l10 71c1 10 9 19 19 19h110l53 102h-148c-10 0 -16 9 -15 19l10 70c1 10 10 19 20 19h196l42 74c5 10 16 13 24 9l14 -8c8 -5 10 -14 5 -24l-28 -51h60c10 0 15 -9 14 -19l-10 -70c-1 -10 -9 -19 -19 -19h-109
l-53 -102h147c10 0 16 -9 15 -19l-10 -71c-1 -10 -10 -19 -20 -19h-196l-39 -72c-5 -9 -16 -12 -24 -8z" />
    <glyph glyph-name="approxequal" unicode="&#x2248;" horiz-adv-x="429" 
d="M85 309l-40 41c-4 5 -3 14 2 19c10 12 52 83 124 83c29 0 49 -18 68 -34c14 -11 28 -27 49 -27c20 0 40 28 52 44c7 8 15 8 21 1l38 -40c2 -5 3 -14 -2 -20c-6 -9 -54 -82 -122 -82c-36 0 -52 22 -73 39c-13 11 -24 21 -41 21c-20 0 -43 -27 -55 -43c-7 -9 -17 -9 -21 -2
zM58 113l-40 41c-4 5 -3 14 2 19c10 12 52 83 124 83c29 0 49 -18 68 -34c14 -11 28 -27 49 -27c20 0 40 28 52 44c7 8 15 8 21 1l38 -40c2 -5 3 -14 -2 -20c-6 -9 -54 -82 -122 -82c-36 0 -52 22 -73 39c-13 11 -24 21 -41 21c-20 0 -43 -27 -55 -43c-7 -9 -17 -9 -21 -2z
" />
    <glyph glyph-name="lessequal" unicode="&#x2264;" horiz-adv-x="458" 
d="M53 383c-5 3 -8 6 -7 17l2 15c1 9 6 14 12 17l364 182c14 7 25 0 23 -16l-13 -92c-1 -7 -5 -12 -9 -14l-199 -88l175 -84c4 -2 6 -7 5 -14l-11 -82c-2 -16 -17 -24 -28 -16zM16 39c-9 0 -16 9 -15 19l10 70c1 10 11 19 20 19h337c9 0 14 -9 13 -19l-10 -70
c-1 -10 -9 -19 -18 -19h-337z" />
    <glyph glyph-name="greaterequal" unicode="&#x2265;" horiz-adv-x="458" 
d="M44 208c-14 -7 -25 0 -22 16l13 92c1 7 5 12 9 14l199 84l-175 88c-4 2 -6 7 -5 14l11 82c2 16 15 23 27 16l314 -182c4 -3 7 -8 6 -17l-2 -15c-1 -11 -6 -14 -11 -17zM12 39c-9 0 -14 9 -13 19l9 70c1 10 10 19 19 19h337c9 0 15 -9 14 -19l-10 -70
c-1 -10 -10 -19 -19 -19h-337z" />
    <glyph glyph-name="logicalnot" unicode="&#xac;" horiz-adv-x="505" 
d="M51 293c-9 0 -16 9 -14 19l10 70c1 10 10 19 19 19h365c10 0 15 -10 14 -19l-33 -236c-1 -10 -11 -18 -20 -18h-71c-9 0 -16 8 -15 18l21 147h-276z" />
    <glyph glyph-name="Delta" unicode="&#x2206;" horiz-adv-x="710" 
d="M-2 0c-23 0 -37 13 -20 45l367 654c4 6 10 11 16 11h9c6 0 13 -5 14 -11l182 -656c6 -22 -3 -43 -24 -43h-544zM195 144l194 1l-62 250h-1z" />
    <glyph glyph-name="uni0394" unicode="&#x394;" horiz-adv-x="710" 
d="M-2 0c-23 0 -37 13 -20 45l367 654c4 6 10 11 16 11h9c6 0 13 -5 14 -11l182 -656c6 -22 -3 -43 -24 -43h-544zM195 144l194 1l-62 250h-1z" />
    <glyph glyph-name="Omega" unicode="&#x2126;" horiz-adv-x="781" 
d="M-10 0c-10 0 -16 9 -15 19l16 109c1 10 10 19 19 19h75c-32 31 -61 103 -61 170c0 220 183 393 376 393c158 0 279 -124 279 -302c0 -88 -48 -210 -114 -261h66c11 0 17 -9 16 -19l-16 -109c-1 -10 -10 -19 -20 -19h-253c-11 0 -16 9 -15 19l9 65c4 32 16 35 34 46
c94 56 133 170 133 254c0 94 -53 166 -141 166c-118 0 -199 -121 -199 -253c0 -64 18 -128 72 -167c13 -9 22 -12 22 -30c0 -5 0 -10 -10 -81c-1 -10 -10 -19 -19 -19h-254z" />
    <glyph glyph-name="uni03A9" unicode="&#x3a9;" horiz-adv-x="781" 
d="M-10 0c-10 0 -16 9 -15 19l16 109c1 10 10 19 19 19h75c-32 31 -61 103 -61 170c0 220 183 393 376 393c158 0 279 -124 279 -302c0 -88 -48 -210 -114 -261h66c11 0 17 -9 16 -19l-16 -109c-1 -10 -10 -19 -20 -19h-253c-11 0 -16 9 -15 19l9 65c4 32 16 35 34 46
c94 56 133 170 133 254c0 94 -53 166 -141 166c-118 0 -199 -121 -199 -253c0 -64 18 -128 72 -167c13 -9 22 -12 22 -30c0 -5 0 -10 -10 -81c-1 -10 -10 -19 -19 -19h-254z" />
    <glyph glyph-name="mu" unicode="&#xb5;" horiz-adv-x="487" 
d="M156 -9l-38 -271c-1 -10 -11 -19 -20 -19h-110c-9 0 -16 9 -15 19l94 661c1 11 10 19 19 19h111c9 0 16 -8 15 -19l-29 -202c-6 -40 10 -59 36 -59c33 0 55 30 60 67l28 194c2 13 6 19 26 19h101c9 0 16 -8 15 -19l-51 -362c-1 -10 -11 -19 -20 -19h-48
c-8 0 -12 6 -14 12l-11 39c-20 -24 -66 -61 -135 -61c-5 0 -9 0 -14 1z" />
    <glyph glyph-name="uni03BC" unicode="&#x3bc;" horiz-adv-x="487" 
d="M156 -9l-38 -271c-1 -10 -11 -19 -20 -19h-110c-9 0 -16 9 -15 19l94 661c1 11 10 19 19 19h111c9 0 16 -8 15 -19l-29 -202c-6 -40 10 -59 36 -59c33 0 55 30 60 67l28 194c2 13 6 19 26 19h101c9 0 16 -8 15 -19l-51 -362c-1 -10 -11 -19 -20 -19h-48
c-8 0 -12 6 -14 12l-11 39c-20 -24 -66 -61 -135 -61c-5 0 -9 0 -14 1z" />
    <glyph glyph-name="pi" unicode="&#x3c0;" horiz-adv-x="703" 
d="M107 19l36 254h-55c-10 0 -16 9 -15 19l13 89c2 11 10 19 20 19h519c10 0 16 -8 14 -19l-13 -89c-1 -10 -9 -19 -19 -19h-56l-36 -254c-1 -10 -11 -19 -20 -19h-115c-9 0 -15 9 -14 19l36 254h-109l-36 -254c-1 -10 -11 -19 -20 -19h-116c-9 0 -15 9 -14 19z" />
    <glyph glyph-name="degree" unicode="&#xb0;" horiz-adv-x="278" 
d="M162 441c-58 0 -105 52 -105 117c0 84 61 152 142 152c57 0 104 -51 104 -116c0 -85 -63 -153 -141 -153zM176 538c18 0 29 18 29 43c0 19 -6 32 -22 32c-18 0 -29 -20 -29 -44c0 -17 7 -31 22 -31z" />
    <glyph glyph-name="afii61289" unicode="&#x2113;" horiz-adv-x="505" 
d="M147 -10c-84 0 -124 80 -112 166c2 17 6 33 10 49c-11 -3 -27 -9 -36 -10c-9 -2 -14 3 -13 12l3 45c0 7 3 18 17 21c19 4 35 8 54 15c9 28 15 53 25 81c67 218 136 341 239 341c65 0 99 -54 87 -139c-26 -187 -160 -289 -297 -344c-9 -25 -12 -44 -16 -69
c-6 -47 1 -92 46 -92c44 0 86 15 134 43c18 10 20 8 26 -5l11 -24c7 -16 8 -18 -6 -30c-13 -10 -88 -60 -172 -60zM151 310c104 49 181 142 198 261c6 40 -1 63 -25 63c-50 0 -109 -106 -160 -278z" />
    <glyph glyph-name="estimated" unicode="&#x212e;" horiz-adv-x="823" 
d="M116 172c34 -68 104 -109 186 -109c60 0 129 30 187 79c12 10 20 16 29 3l18 -26c7 -10 2 -19 -10 -32c-73 -65 -153 -97 -234 -97c-183 0 -306 157 -278 359c29 203 196 361 379 361c181 0 302 -162 276 -365c-4 -25 -11 -32 -29 -32h-504zM146 384h403l20 142
c-32 67 -101 110 -186 110c-87 0 -165 -39 -216 -108z" />
    <glyph glyph-name="eng" unicode="&#x14b;" horiz-adv-x="497" 
d="M17 19l50 361c2 11 11 19 20 19h48c5 0 12 -5 14 -12l11 -40c26 27 71 62 135 62c104 0 165 -95 149 -209l-41 -292c-20 -140 -99 -218 -223 -218c-46 0 -94 22 -107 38c-4 5 -4 16 0 23l47 80c5 9 16 10 22 7c10 -5 30 -13 47 -13c40 0 63 34 70 83l41 300
c5 40 -8 71 -47 71c-29 0 -61 -25 -67 -66l-27 -194c-2 -14 -9 -19 -24 -19h-104c-9 0 -16 9 -14 19z" />
    <glyph glyph-name="Eng" unicode="&#x14a;" horiz-adv-x="713" 
d="M47 17l94 675c1 10 11 18 20 18h22l298 -386h1l48 357c1 10 9 19 19 19h122c9 0 17 -8 16 -17l-110 -775c-20 -140 -99 -218 -223 -218c-46 0 -94 22 -107 38c-4 5 -4 16 0 23l47 80c5 9 16 10 22 7c10 -5 30 -13 47 -13c40 0 55 34 62 83l29 206l-203 274h-1l-45 -369
c-2 -10 -10 -19 -20 -19h-123c-8 0 -16 8 -15 17z" />
    <glyph glyph-name="infinity" unicode="&#x221e;" horiz-adv-x="586" 
d="M184 156c-65 0 -121 63 -110 140c10 78 57 140 141 140c36 0 71 -23 89 -50c22 27 56 50 96 50c70 0 122 -62 112 -140c-11 -77 -62 -140 -143 -140c-36 0 -71 22 -90 50c-22 -28 -52 -50 -95 -50zM374 258c20 0 38 17 41 38c3 22 -10 39 -30 39c-19 0 -36 -17 -39 -39
c-3 -21 9 -38 28 -38zM199 258c20 0 38 17 41 38c3 22 -10 39 -30 39c-19 0 -36 -17 -39 -39c-3 -21 9 -38 28 -38z" />
    <glyph glyph-name="partialdiff" unicode="&#x2202;" horiz-adv-x="570" 
d="M52 185c0 171 108 251 213 251c24 0 58 -9 76 -24c-5 103 -110 159 -150 174c-13 4 -20 15 -13 29l35 71c5 11 17 20 30 16c66 -22 245 -119 245 -365c0 -159 -67 -347 -259 -347c-97 0 -177 85 -177 195zM188 206c0 -44 20 -78 62 -78c55 0 89 58 89 115
c0 44 -20 78 -62 78c-52 0 -89 -55 -89 -115z" />
    <glyph glyph-name="integral" unicode="&#x222b;" horiz-adv-x="354" 
d="M48 -92l82 585c19 137 104 217 230 217c53 0 88 -24 99 -38c4 -6 6 -17 0 -25l-55 -76c-6 -8 -15 -11 -21 -7c-8 5 -22 8 -36 8c-25 0 -56 -25 -64 -80l-82 -585c-19 -137 -102 -217 -231 -217c-52 0 -86 25 -98 38c-5 6 -6 17 -1 25l52 75c5 8 15 10 21 7
c11 -5 25 -7 39 -7c25 0 57 25 65 80z" />
    <glyph glyph-name="radical" unicode="&#x221a;" horiz-adv-x="696" 
d="M207 1l-104 373c-4 13 5 26 18 26h99c7 0 13 -6 14 -11l28 -106h5l213 406c3 5 10 11 17 11h197c10 0 17 -8 15 -19l-13 -89c-1 -10 -9 -19 -19 -19h-110l-321 -572c-4 -6 -9 -11 -16 -11h-9c-8 0 -12 5 -14 11z" />
    <glyph glyph-name="summation" unicode="&#x2211;" horiz-adv-x="552" 
d="M26 19l7 49l264 297l-184 275l6 41c1 10 10 19 20 19h372c10 0 15 -9 14 -19l-15 -109c-1 -10 -10 -19 -20 -19h-154l93 -124c5 -7 14 -19 9 -56l-7 -44c-4 -29 -16 -40 -23 -47l-125 -135h150c10 0 15 -9 14 -19l-15 -109c-1 -10 -10 -19 -20 -19h-372
c-10 0 -15 9 -14 19z" />
    <glyph glyph-name="product" unicode="&#x220f;" horiz-adv-x="698" 
d="M32 19l93 662c1 10 11 19 20 19h506c9 0 15 -9 14 -19l-93 -662c-1 -10 -11 -19 -20 -19h-119c-10 0 -15 9 -14 19l75 534h-233l-75 -534c-1 -10 -10 -19 -20 -19h-120c-9 0 -15 9 -14 19z" />
    <glyph glyph-name="lozenge" unicode="&#x25ca;" horiz-adv-x="710" 
d="M287 11l-179 303c-13 22 -8 57 17 86l259 299c5 5 10 11 17 11h9c6 0 11 -6 14 -11l176 -299c16 -28 15 -58 -14 -91l-259 -298c-5 -5 -10 -11 -16 -11h-9c-7 0 -12 6 -15 11zM332 204h1l129 158l-84 144h-1l-127 -157z" />
    <glyph glyph-name="uniF8FF" unicode="&#xf8ff;" horiz-adv-x="599" 
d="M50 30v640c0 21 9 30 30 30h439c21 0 30 -9 30 -30v-640c0 -21 -9 -30 -30 -30h-439c-21 0 -30 9 -30 30zM262 314c0 -7 7 -12 14 -12h36c9 0 15 4 15 13v26c0 48 105 63 105 150c0 65 -54 111 -125 111c-87 0 -130 -61 -130 -61c-4 -6 -6 -13 0 -18l22 -22
c6 -4 11 -4 17 0c13 12 36 41 84 41c40 0 61 -25 61 -52c0 -63 -99 -72 -99 -147v-29zM245 156c0 -26 22 -48 48 -48c27 0 49 22 49 48s-22 48 -49 48c-26 0 -48 -22 -48 -48z" />
    <glyph glyph-name="zero.tf" horiz-adv-x="560" 
d="M242 -10c-117 0 -193 105 -193 267c0 261 106 434 287 434c116 0 193 -104 193 -266c0 -261 -111 -435 -287 -435zM260 143c68 0 108 128 108 274c0 74 -17 121 -50 121c-66 0 -108 -126 -108 -274c0 -73 18 -121 50 -121z" />
    <glyph glyph-name="one.tf" horiz-adv-x="560" 
d="M91 0c-10 0 -15 8 -14 18l12 91c1 11 10 19 20 19h99l48 341h-91c-9 0 -15 9 -12 19l11 67c1 5 6 12 10 15l148 110h95c9 0 14 -9 13 -19l-75 -533h78c10 0 15 -8 14 -19l-12 -91c-1 -10 -10 -18 -20 -18h-324z" />
    <glyph glyph-name="two.tf" horiz-adv-x="560" 
d="M31 19l2 20l266 339c43 55 56 85 56 114c0 40 -31 60 -62 60c-40 0 -72 -29 -90 -50c-8 -8 -19 -8 -25 0l-58 66c-6 6 -5 18 3 26c0 0 71 96 194 96c118 0 188 -75 188 -184c0 -58 -37 -130 -83 -191l-138 -187h143c9 0 15 -9 14 -19l-12 -90c-1 -10 -11 -19 -20 -19
h-364c-10 0 -15 9 -14 19z" />
    <glyph glyph-name="three.tf" horiz-adv-x="560" 
d="M45 79c-5 8 -2 19 5 25l62 59c7 7 17 7 24 0c5 -5 41 -40 84 -40c56 0 88 41 88 89c0 39 -33 72 -85 72h-50c-9 0 -15 9 -14 19l11 83c1 11 9 19 19 19h51c62 0 99 39 99 88c0 36 -22 64 -54 64c-39 0 -62 -25 -76 -40c-7 -8 -18 -8 -24 -1l-56 67c-6 7 -4 19 4 26
c21 20 82 81 185 81c95 0 176 -67 176 -160c0 -92 -68 -160 -117 -183v-3c36 -18 87 -69 87 -144c0 -117 -85 -210 -240 -210c-104 0 -162 63 -179 89z" />
    <glyph glyph-name="four.tf" horiz-adv-x="560" 
d="M20 141c-10 0 -16 9 -15 19l15 106l368 419c3 3 7 6 14 6h75c9 0 16 -8 14 -19l-56 -410h71c9 0 15 -8 14 -18l-11 -83c-1 -10 -11 -19 -20 -19h-71l-16 -123c-1 -10 -11 -19 -20 -19h-110c-9 0 -16 9 -14 19l17 122h-255zM168 265h127l26 179z" />
    <glyph glyph-name="five.tf" horiz-adv-x="560" 
d="M58 73c-10 15 -10 22 3 34c15 14 29 27 64 57c6 6 18 6 24 0c8 -8 40 -39 93 -39c45 0 97 46 97 109c0 46 -28 82 -73 82h-136c-18 0 -25 19 -23 35l44 310c1 10 10 19 20 19h294c9 0 15 -9 14 -19l-12 -88c-1 -10 -11 -19 -20 -19h-177l-15 -107h56
c106 0 175 -86 175 -196c0 -146 -87 -261 -256 -261c-84 0 -151 53 -172 83z" />
    <glyph glyph-name="six.tf" horiz-adv-x="560" 
d="M66 212c0 344 289 472 374 491c10 2 20 -3 23 -17l18 -74c3 -12 -3 -23 -21 -29c-46 -15 -170 -63 -205 -166c0 0 39 19 84 19c77 0 152 -73 152 -185c0 -144 -105 -261 -241 -261c-113 0 -184 96 -184 222zM267 128c52 0 91 51 91 110c0 45 -26 83 -64 83
c-42 0 -81 -31 -89 -97c-6 -52 25 -96 62 -96z" />
    <glyph glyph-name="seven.tf" horiz-adv-x="560" 
d="M47 17l2 13l293 522h-191c-9 0 -16 9 -15 19l13 90c1 10 11 19 20 19h384c9 0 15 -9 14 -19l-1 -7l-369 -642c-4 -7 -10 -12 -21 -12h-113c-11 0 -18 7 -16 17z" />
    <glyph glyph-name="eight.tf" horiz-adv-x="560" 
d="M41 158c0 113 120 186 136 194v3c-28 20 -72 66 -72 133c0 122 94 202 225 202c100 0 189 -63 189 -160c0 -92 -76 -153 -116 -180l-1 -4c33 -23 88 -72 88 -147c0 -116 -93 -209 -249 -209c-116 0 -200 73 -200 168zM299 418c41 19 67 52 67 88c0 27 -17 54 -45 54
c-35 0 -66 -35 -66 -75c0 -26 17 -52 44 -67zM204 181c0 -35 22 -59 53 -59c36 0 72 33 72 81c0 28 -16 61 -50 74c-46 -17 -75 -56 -75 -96z" />
    <glyph glyph-name="nine.tf" horiz-adv-x="560" 
d="M116 0l-18 74c-3 12 3 23 21 29c46 15 170 63 205 166c0 0 -39 -19 -84 -19c-77 0 -152 73 -152 185c0 144 105 261 241 261c113 0 184 -96 184 -222c0 -344 -289 -472 -374 -491c-10 -2 -20 3 -23 17zM285 365c42 0 81 31 89 97c6 52 -25 96 -62 96
c-52 0 -91 -51 -91 -110c0 -45 26 -83 64 -83z" />
    <glyph glyph-name="zerosuperior" unicode="&#x2070;" horiz-adv-x="326" 
d="M194 494c-66 0 -102 49 -102 124c0 117 52 192 142 192c66 0 103 -48 103 -124c0 -116 -53 -192 -143 -192zM204 581c24 0 38 60 38 108c0 20 -8 34 -18 34c-20 0 -38 -46 -38 -106c0 -25 7 -36 18 -36z" />
    <glyph glyph-name="foursuperior" unicode="&#x2074;" horiz-adv-x="337" 
d="M215 504c-5 0 -9 4 -8 9l7 47h-113c-5 0 -8 4 -7 8l9 62l164 167c2 2 4 3 8 3h50c4 0 8 -4 7 -9l-23 -163h34c5 0 8 -4 7 -8l-7 -51c-1 -5 -5 -9 -9 -9h-35l-6 -47c-1 -5 -5 -9 -10 -9h-68zM178 626h46l9 56z" />
    <glyph glyph-name="fivesuperior" unicode="&#x2075;" horiz-adv-x="295" 
d="M178 494c-41 0 -74 24 -83 38c-3 4 -4 10 1 15l32 37c8 9 13 6 18 2c9 -8 18 -14 37 -14c15 0 34 11 34 32c0 15 -11 25 -24 25h-64c-9 0 -14 8 -13 15l21 147c1 5 5 9 11 9h145c6 0 9 -4 8 -9l-7 -53c-1 -5 -5 -9 -11 -9h-82l-4 -29h22c49 0 90 -30 90 -83
c0 -72 -47 -123 -131 -123z" />
    <glyph glyph-name="sixsuperior" unicode="&#x2076;" horiz-adv-x="305" 
d="M187 494c-58 0 -97 43 -97 101c0 159 147 207 183 219c11 3 17 -1 18 -9l10 -40c0 -6 -2 -14 -11 -17c-23 -7 -74 -31 -92 -65c-1 0 13 12 44 12c33 0 67 -28 67 -81c0 -67 -49 -120 -122 -120zM198 571c15 0 26 17 26 39c0 16 -7 26 -17 26c-14 0 -27 -13 -27 -40
c0 -11 5 -25 18 -25z" />
    <glyph glyph-name="sevensuperior" unicode="&#x2077;" horiz-adv-x="292" 
d="M98 504c-8 0 -13 2 -12 9l1 5l121 208h-72c-5 0 -9 4 -8 8l8 57c1 5 6 9 10 9h178c4 0 9 -4 8 -9l-2 -16l-148 -262c-5 -7 -10 -9 -16 -9h-68z" />
    <glyph glyph-name="eightsuperior" unicode="&#x2078;" horiz-adv-x="318" 
d="M192 494c-64 0 -104 33 -104 77c0 57 65 84 67 85v1c-14 6 -38 26 -38 61c0 57 59 92 120 92c55 0 98 -29 98 -74c0 -46 -37 -72 -58 -79v-1c20 -5 47 -25 47 -65c0 -56 -56 -97 -132 -97zM220 690c14 0 26 10 27 23c2 14 -5 24 -20 24c-13 0 -25 -10 -27 -24
c-1 -13 6 -23 20 -23zM204 565c15 0 29 13 32 28c1 15 -9 27 -25 27c-15 0 -29 -12 -30 -27c-3 -15 7 -28 23 -28z" />
    <glyph glyph-name="ninesuperior" unicode="&#x2079;" horiz-adv-x="305" 
d="M141 490c-11 -3 -17 1 -18 9l-10 40c0 6 2 14 11 17c23 7 74 31 92 65c1 0 -13 -12 -44 -12c-33 0 -67 28 -67 81c0 67 49 120 122 120c58 0 97 -43 97 -101c0 -159 -147 -207 -183 -219zM207 668c14 0 27 13 27 40c0 11 -5 25 -18 25c-15 0 -26 -17 -26 -39
c0 -16 7 -26 17 -26z" />
    <glyph glyph-name="zeroinferior" unicode="&#x2080;" horiz-adv-x="326" 
d="M-8 -36c0 117 52 192 142 192c66 0 103 -48 103 -124c0 -116 -53 -192 -143 -192c-66 0 -102 49 -102 124zM86 -37c0 -25 7 -36 18 -36c24 0 38 60 38 108c0 20 -8 34 -18 34c-20 0 -38 -46 -38 -106z" />
    <glyph glyph-name="oneinferior" unicode="&#x2081;" horiz-adv-x="230" 
d="M19 43c-5 0 -6 5 -6 11l7 38c1 5 4 8 9 11l76 43h64c5 0 8 -4 7 -9l-39 -278c-1 -5 -5 -9 -10 -9h-75c-5 0 -8 4 -8 9l26 184h-51z" />
    <glyph glyph-name="twoinferior" unicode="&#x2082;" horiz-adv-x="285" 
d="M46 64l-15 42c-4 12 -6 18 9 27c10 6 42 23 86 23c49 0 85 -32 85 -81c0 -32 -12 -64 -36 -97l-38 -53h42c5 0 9 -4 8 -9l-8 -57c0 -5 -7 -9 -10 -9h-176c-5 0 -9 4 -8 9l3 18l106 130c12 14 21 34 21 46c0 17 -9 21 -18 21c-12 0 -29 -10 -34 -14c-6 -5 -14 -5 -17 4z
" />
    <glyph glyph-name="threeinferior" unicode="&#x2083;" horiz-adv-x="284" 
d="M38 -17l4 34c1 12 9 17 20 17h25c9 0 21 10 21 28c0 10 -5 18 -16 18c-10 0 -18 -6 -26 -12c-6 -4 -10 -6 -16 4l-21 39c-5 10 -2 16 4 21c13 10 37 24 81 24c57 0 92 -29 92 -72c0 -45 -30 -69 -57 -82c18 -8 44 -26 44 -65c0 -65 -59 -97 -121 -97c-46 0 -68 23 -74 29
c-7 7 -8 13 -1 22l24 32c6 7 12 10 21 4c6 -4 13 -9 29 -9c14 0 25 9 25 29c0 11 -5 20 -18 20h-32c-6 0 -10 3 -8 16z" />
    <glyph glyph-name="fourinferior" unicode="&#x2084;" horiz-adv-x="337" 
d="M3 -24l164 167c2 2 4 3 8 3h50c4 0 8 -4 7 -9l-23 -163h34c5 0 8 -4 7 -8l-7 -51c-1 -5 -5 -9 -9 -9h-35l-6 -47c-1 -5 -5 -9 -10 -9h-68c-5 0 -9 4 -8 9l7 47h-113c-5 0 -8 4 -7 8zM78 -28h46l9 56z" />
    <glyph glyph-name="fiveinferior" unicode="&#x2085;" horiz-adv-x="295" 
d="M16 -10l21 147c1 5 5 9 11 9h145c6 0 9 -4 8 -9l-7 -53c-1 -5 -5 -9 -11 -9h-82l-4 -29h22c49 0 90 -30 90 -83c0 -72 -47 -123 -131 -123c-41 0 -74 24 -83 38c-3 4 -4 10 1 15l32 37c8 9 13 6 18 2c9 -8 18 -14 37 -14c15 0 34 11 34 32c0 15 -11 25 -24 25h-64
c-9 0 -14 8 -13 15z" />
    <glyph glyph-name="sixinferior" unicode="&#x2086;" horiz-adv-x="305" 
d="M-10 -59c0 159 147 207 183 219c11 3 17 -1 18 -9l10 -40c0 -6 -2 -14 -11 -17c-23 -7 -74 -31 -92 -65c-1 0 13 12 44 12c33 0 67 -28 67 -81c0 -67 -49 -120 -122 -120c-58 0 -97 43 -97 101zM80 -58c0 -11 5 -25 18 -25c15 0 26 17 26 39c0 16 -7 26 -17 26
c-14 0 -27 -13 -27 -40z" />
    <glyph glyph-name="seveninferior" unicode="&#x2087;" horiz-adv-x="292" 
d="M36 72c-5 0 -9 4 -8 8l8 57c1 5 6 9 10 9h178c4 0 9 -4 8 -9l-2 -16l-148 -262c-5 -7 -10 -9 -16 -9h-68c-8 0 -13 2 -12 9l1 5l121 208h-72z" />
    <glyph glyph-name="eightinferior" unicode="&#x2088;" horiz-adv-x="318" 
d="M55 2v1c-14 6 -38 26 -38 61c0 57 59 92 120 92c55 0 98 -29 98 -74c0 -46 -37 -72 -58 -79v-1c20 -5 47 -25 47 -65c0 -56 -56 -97 -132 -97c-64 0 -104 33 -104 77c0 57 65 84 67 85zM100 59c-1 -13 6 -23 20 -23s26 10 27 23c2 14 -5 24 -20 24c-13 0 -25 -10 -27 -24
zM81 -61c-3 -15 7 -28 23 -28c15 0 29 13 32 28c1 15 -9 27 -25 27c-15 0 -29 -12 -30 -27z" />
    <glyph glyph-name="nineinferior" unicode="&#x2089;" horiz-adv-x="305" 
d="M5 36c0 67 49 120 122 120c58 0 97 -43 97 -101c0 -159 -147 -207 -183 -219c-11 -3 -17 1 -18 9l-10 40c0 6 2 14 11 17c23 7 74 31 92 65c1 0 -13 -12 -44 -12c-33 0 -67 28 -67 81zM90 40c0 -16 7 -26 17 -26c14 0 27 13 27 40c0 11 -5 25 -18 25
c-15 0 -26 -17 -26 -39z" />
    <glyph glyph-name="zero.denom" horiz-adv-x="326" 
d="M22 114c0 117 52 192 142 192c66 0 103 -48 103 -124c0 -116 -53 -192 -143 -192c-66 0 -102 49 -102 124zM134 77c24 0 38 60 38 108c0 20 -8 34 -18 34c-20 0 -38 -46 -38 -106c0 -25 7 -36 18 -36z" />
    <glyph glyph-name="one.denom" horiz-adv-x="230" 
d="M74 9l26 184h-51c-5 0 -6 5 -6 11l7 38c1 5 4 8 9 11l76 43h64c5 0 8 -4 7 -9l-39 -278c-1 -5 -5 -9 -10 -9h-75c-5 0 -8 4 -8 9z" />
    <glyph glyph-name="two.denom" horiz-adv-x="285" 
d="M15 9l3 18l106 130c12 14 21 34 21 46c0 17 -9 21 -18 21c-12 0 -29 -10 -34 -14c-6 -5 -14 -5 -17 4l-15 42c-4 12 -6 18 9 27c10 6 42 23 86 23c49 0 85 -32 85 -81c0 -32 -12 -64 -36 -97l-38 -53h42c5 0 9 -4 8 -9l-8 -57c0 -5 -7 -9 -10 -9h-176c-5 0 -9 4 -8 9z
" />
    <glyph glyph-name="three.denom" horiz-adv-x="284" 
d="M28 19c-7 7 -8 13 -1 22l24 32c6 7 12 10 21 4c6 -4 13 -9 29 -9c14 0 25 9 25 29c0 11 -5 20 -18 20h-32c-6 0 -10 3 -8 16l4 34c1 12 9 17 20 17h25c9 0 21 10 21 28c0 10 -5 18 -16 18c-10 0 -18 -6 -26 -12c-6 -4 -10 -6 -16 4l-21 39c-5 10 -2 16 4 21
c13 10 37 24 81 24c57 0 92 -29 92 -72c0 -45 -30 -69 -57 -82c18 -8 44 -26 44 -65c0 -65 -59 -97 -121 -97c-46 0 -68 23 -74 29z" />
    <glyph glyph-name="four.denom" horiz-adv-x="337" 
d="M31 56c-5 0 -8 4 -7 8l9 62l164 167c2 2 4 3 8 3h50c4 0 8 -4 7 -9l-23 -163h34c5 0 8 -4 7 -8l-7 -51c-1 -5 -5 -9 -9 -9h-35l-6 -47c-1 -5 -5 -9 -10 -9h-68c-5 0 -9 4 -8 9l7 47h-113zM108 122h46l9 56z" />
    <glyph glyph-name="five.denom" horiz-adv-x="295" 
d="M25 28c-3 4 -4 10 1 15l32 37c8 9 13 6 18 2c9 -8 18 -14 37 -14c15 0 34 11 34 32c0 15 -11 25 -24 25h-64c-9 0 -14 8 -13 15l21 147c1 5 5 9 11 9h145c6 0 9 -4 8 -9l-7 -53c-1 -5 -5 -9 -11 -9h-82l-4 -29h22c49 0 90 -30 90 -83c0 -72 -47 -123 -131 -123
c-41 0 -74 24 -83 38z" />
    <glyph glyph-name="six.denom" horiz-adv-x="305" 
d="M20 91c0 159 147 207 183 219c11 3 17 -1 18 -9l10 -40c0 -6 -2 -14 -11 -17c-23 -7 -74 -31 -92 -65c-1 0 13 12 44 12c33 0 67 -28 67 -81c0 -67 -49 -120 -122 -120c-58 0 -97 43 -97 101zM110 92c0 -11 5 -25 18 -25c15 0 26 17 26 39c0 16 -7 26 -17 26
c-14 0 -27 -13 -27 -40z" />
    <glyph glyph-name="seven.denom" horiz-adv-x="292" 
d="M16 9l1 5l121 208h-72c-5 0 -9 4 -8 8l8 57c1 5 6 9 10 9h178c4 0 9 -4 8 -9l-2 -16l-148 -262c-5 -7 -10 -9 -16 -9h-68c-8 0 -13 2 -12 9z" />
    <glyph glyph-name="eight.denom" horiz-adv-x="318" 
d="M18 67c0 57 65 84 67 85v1c-14 6 -38 26 -38 61c0 57 59 92 120 92c55 0 98 -29 98 -74c0 -46 -37 -72 -58 -79v-1c20 -5 47 -25 47 -65c0 -56 -56 -97 -132 -97c-64 0 -104 33 -104 77zM150 186c14 0 26 10 27 23c2 14 -5 24 -20 24c-13 0 -25 -10 -27 -24
c-1 -13 6 -23 20 -23zM111 89c-3 -15 7 -28 23 -28c15 0 29 13 32 28c1 15 -9 27 -25 27c-15 0 -29 -12 -30 -27z" />
    <glyph glyph-name="nine.denom" horiz-adv-x="305" 
d="M53 -5l-10 40c0 6 2 14 11 17c23 7 74 31 92 65c1 0 -13 -12 -44 -12c-33 0 -67 28 -67 81c0 67 49 120 122 120c58 0 97 -43 97 -101c0 -159 -147 -207 -183 -219c-11 -3 -17 1 -18 9zM137 164c14 0 27 13 27 40c0 11 -5 25 -18 25c-15 0 -26 -17 -26 -39
c0 -16 7 -26 17 -26z" />
    <glyph glyph-name="zero.num" horiz-adv-x="326" 
d="M174 394c-66 0 -102 49 -102 124c0 117 52 192 142 192c66 0 103 -48 103 -124c0 -116 -53 -192 -143 -192zM184 481c24 0 38 60 38 108c0 20 -8 34 -18 34c-20 0 -38 -46 -38 -106c0 -25 7 -36 18 -36z" />
    <glyph glyph-name="one.num" horiz-adv-x="230" 
d="M132 404c-5 0 -8 4 -8 9l26 184h-51c-5 0 -6 5 -6 11l7 38c1 5 4 8 9 11l76 43h64c5 0 8 -4 7 -9l-39 -278c-1 -5 -5 -9 -10 -9h-75z" />
    <glyph glyph-name="two.num" horiz-adv-x="285" 
d="M73 404c-5 0 -9 4 -8 9l3 18l106 130c12 14 21 34 21 46c0 17 -9 21 -18 21c-12 0 -29 -10 -34 -14c-6 -5 -14 -5 -17 4l-15 42c-4 12 -6 18 9 27c10 6 42 23 86 23c49 0 85 -32 85 -81c0 -32 -12 -64 -36 -97l-38 -53h42c5 0 9 -4 8 -9l-8 -57c0 -5 -7 -9 -10 -9h-176z
" />
    <glyph glyph-name="three.num" horiz-adv-x="284" 
d="M152 394c-46 0 -68 23 -74 29c-7 7 -8 13 -1 22l24 32c6 7 12 10 21 4c6 -4 13 -9 29 -9c14 0 25 9 25 29c0 11 -5 20 -18 20h-32c-6 0 -10 3 -8 16l4 34c1 12 9 17 20 17h25c9 0 21 10 21 28c0 10 -5 18 -16 18c-10 0 -18 -6 -26 -12c-6 -4 -10 -6 -16 4l-21 39
c-5 10 -2 16 4 21c13 10 37 24 81 24c57 0 92 -29 92 -72c0 -45 -30 -69 -57 -82c18 -8 44 -26 44 -65c0 -65 -59 -97 -121 -97z" />
    <glyph glyph-name="four.num" horiz-adv-x="337" 
d="M195 404c-5 0 -9 4 -8 9l7 47h-113c-5 0 -8 4 -7 8l9 62l164 167c2 2 4 3 8 3h50c4 0 8 -4 7 -9l-23 -163h34c5 0 8 -4 7 -8l-7 -51c-1 -5 -5 -9 -9 -9h-35l-6 -47c-1 -5 -5 -9 -10 -9h-68zM158 526h46l9 56z" />
    <glyph glyph-name="five.num" horiz-adv-x="295" 
d="M158 394c-41 0 -74 24 -83 38c-3 4 -4 10 1 15l32 37c8 9 13 6 18 2c9 -8 18 -14 37 -14c15 0 34 11 34 32c0 15 -11 25 -24 25h-64c-9 0 -14 8 -13 15l21 147c1 5 5 9 11 9h145c6 0 9 -4 8 -9l-7 -53c-1 -5 -5 -9 -11 -9h-82l-4 -29h22c49 0 90 -30 90 -83
c0 -72 -47 -123 -131 -123z" />
    <glyph glyph-name="six.num" horiz-adv-x="305" 
d="M167 394c-58 0 -97 43 -97 101c0 159 147 207 183 219c11 3 17 -1 18 -9l10 -40c0 -6 -2 -14 -11 -17c-23 -7 -74 -31 -92 -65c-1 0 13 12 44 12c33 0 67 -28 67 -81c0 -67 -49 -120 -122 -120zM178 471c15 0 26 17 26 39c0 16 -7 26 -17 26c-14 0 -27 -13 -27 -40
c0 -11 5 -25 18 -25z" />
    <glyph glyph-name="seven.num" horiz-adv-x="292" 
d="M78 404c-8 0 -13 2 -12 9l1 5l121 208h-72c-5 0 -9 4 -8 8l8 57c1 5 6 9 10 9h178c4 0 9 -4 8 -9l-2 -16l-148 -262c-5 -7 -10 -9 -16 -9h-68z" />
    <glyph glyph-name="eight.num" horiz-adv-x="318" 
d="M172 394c-64 0 -104 33 -104 77c0 57 65 84 67 85v1c-14 6 -38 26 -38 61c0 57 59 92 120 92c55 0 98 -29 98 -74c0 -46 -37 -72 -58 -79v-1c20 -5 47 -25 47 -65c0 -56 -56 -97 -132 -97zM200 590c14 0 26 10 27 23c2 14 -5 24 -20 24c-13 0 -25 -10 -27 -24
c-1 -13 6 -23 20 -23zM184 465c15 0 29 13 32 28c1 15 -9 27 -25 27c-15 0 -29 -12 -30 -27c-3 -15 7 -28 23 -28z" />
    <glyph glyph-name="nine.num" horiz-adv-x="305" 
d="M121 390c-11 -3 -17 1 -18 9l-10 40c0 6 2 14 11 17c23 7 74 31 92 65c1 0 -13 -12 -44 -12c-33 0 -67 28 -67 81c0 67 49 120 122 120c58 0 97 -43 97 -101c0 -159 -147 -207 -183 -219zM187 568c14 0 27 13 27 40c0 11 -5 25 -18 25c-15 0 -26 -17 -26 -39
c0 -16 7 -26 17 -26z" />
    <glyph glyph-name="parenleft.case" horiz-adv-x="329" 
d="M60 236c0 420 171 496 298 503c10 1 16 -8 15 -18l-8 -85c-1 -7 -8 -17 -15 -19c-71 -26 -140 -121 -140 -375c0 -84 19 -150 64 -169c6 -3 10 -12 9 -19l-15 -84c-2 -11 -10 -19 -21 -19c-87 7 -187 72 -187 285z" />
    <glyph glyph-name="parenright.case" horiz-adv-x="331" 
d="M16 55c1 7 6 15 15 18c71 27 140 120 140 373c0 85 -18 155 -64 172c-6 2 -12 10 -10 19l16 84c2 10 12 19 22 18c86 -7 186 -74 186 -285c0 -428 -172 -493 -297 -503c-10 0 -18 8 -17 18z" />
    <glyph glyph-name="hyphen.case" horiz-adv-x="337" 
d="M69 268c-10 0 -15 8 -14 18l12 91c1 11 10 19 20 19h210c10 0 15 -8 14 -19l-12 -91c-1 -10 -10 -18 -20 -18h-210z" />
    <glyph glyph-name="bracketleft.case" horiz-adv-x="344" 
d="M152 -62h113c9 0 16 -8 15 -18l-12 -81c-1 -10 -11 -19 -20 -19h-233c-9 0 -16 9 -15 19l136 962c1 10 10 19 19 19h234c9 0 15 -9 14 -19l-11 -80c-2 -11 -11 -19 -20 -19h-112z" />
    <glyph glyph-name="bracketright.case" horiz-adv-x="344" 
d="M-10 -62h113l107 764h-112c-9 0 -17 8 -15 19l12 80c1 10 10 19 19 19h234c9 0 16 -9 14 -19l-135 -962c-1 -10 -11 -19 -20 -19h-233c-9 0 -16 9 -15 19l12 81c1 10 10 18 19 18z" />
    <glyph glyph-name="braceleft.case" horiz-adv-x="358" 
d="M72 101l14 104c6 45 -32 60 -54 64c-7 1 -11 8 -10 18l8 58c1 8 8 16 15 18c0 0 67 23 73 64l15 111c37 259 172 287 266 292c10 1 17 -6 16 -17l-8 -85c-1 -13 -9 -17 -15 -19c-65 -18 -108 -73 -123 -171l-14 -91c-12 -79 -94 -128 -94 -128v-4c21 -11 68 -48 59 -120
l-12 -94c-13 -98 14 -153 75 -171c5 -2 11 -6 9 -19l-16 -84c-2 -10 -11 -18 -20 -17c-92 6 -212 78 -184 291z" />
    <glyph glyph-name="bar.case" horiz-adv-x="167" 
d="M-1 -162l144 1023c1 11 10 19 19 19h18c9 0 15 -8 14 -19l-144 -1023c-1 -10 -11 -18 -20 -18h-16c-9 0 -16 8 -15 18z" />
    <glyph glyph-name="braceright.case" horiz-adv-x="357" 
d="M107 101l13 94c10 72 68 109 93 120v4s-69 49 -58 128l13 91c14 98 -14 153 -75 171c-7 2 -11 11 -10 19l16 85c2 11 11 18 20 17c92 -6 214 -76 185 -292l-15 -111c-6 -41 54 -64 54 -64c5 -2 10 -10 9 -18l-8 -58c-1 -8 -9 -17 -16 -18c-22 -4 -65 -19 -71 -64
l-14 -104c-35 -262 -173 -285 -266 -291c-9 -1 -17 7 -16 17l8 84c1 8 8 17 16 19c64 18 108 73 122 171z" />
    <glyph glyph-name="guilsinglleft.case" horiz-adv-x="270" 
d="M104 159l-72 155c-4 8 -1 18 3 24l114 148c4 5 11 12 18 12h89c16 0 19 -15 10 -31l-80 -149l29 -137c3 -16 -3 -30 -18 -30h-81c-6 0 -10 4 -12 8z" />
    <glyph glyph-name="guilsinglright.case" horiz-adv-x="271" 
d="M34 151c-16 0 -19 15 -10 31l80 149l-29 137c-3 16 3 30 18 30h81c6 0 10 -4 12 -8l72 -155c4 -8 1 -18 -3 -24l-114 -148c-4 -5 -11 -12 -18 -12h-89z" />
    <glyph glyph-name="guillemotleft.case" horiz-adv-x="478" 
d="M240 314c-4 8 -1 18 3 24l114 148c4 5 11 12 18 12h89c16 0 19 -15 10 -31l-80 -149l29 -137c3 -16 -3 -30 -18 -30h-81c-6 0 -10 4 -12 8zM104 159l-72 155c-4 8 -1 18 3 24l114 148c4 5 11 12 18 12h89c16 0 19 -15 10 -31l-80 -149l29 -137c3 -16 -3 -30 -18 -30h-81
c-6 0 -10 4 -12 8z" />
    <glyph glyph-name="guillemotright.case" horiz-adv-x="479" 
d="M232 182l80 149l-29 137c-3 16 3 30 18 30h81c6 0 10 -4 12 -8l72 -155c4 -8 1 -18 -3 -24l-114 -148c-4 -5 -11 -12 -18 -12h-89c-16 0 -19 15 -10 31zM34 151c-16 0 -19 15 -10 31l80 149l-29 137c-3 16 3 30 18 30h81c6 0 10 -4 12 -8l72 -155c4 -8 1 -18 -3 -24
l-114 -148c-4 -5 -11 -12 -18 -12h-89z" />
    <glyph glyph-name="endash.case" horiz-adv-x="499" 
d="M78 293c-10 0 -16 8 -15 18l7 51c2 11 10 19 20 19h377c10 0 16 -8 14 -19l-7 -51c-1 -10 -10 -18 -20 -18h-376z" />
    <glyph glyph-name="emdash.case" horiz-adv-x="697" 
d="M78 293c-10 0 -16 8 -15 18l7 51c2 11 10 19 20 19h575c10 0 16 -8 14 -19l-7 -51c-1 -10 -10 -18 -20 -18h-574z" />
    <glyph glyph-name="bullet.case" horiz-adv-x="365" 
d="M130 173c-66 0 -115 57 -115 124c0 87 77 162 156 162c68 0 119 -58 119 -128c0 -85 -79 -158 -160 -158z" />
    <glyph glyph-name="periodcentered.case" horiz-adv-x="275" 
d="M145 239c-52 0 -90 43 -90 93c0 66 58 121 120 121c55 0 94 -43 94 -96c0 -64 -60 -118 -124 -118z" />
    <glyph glyph-name="brokenbar" unicode="&#xa6;" horiz-adv-x="295" 
d="M157 392c-9 0 -16 8 -15 18l47 331c1 11 10 19 19 19h18c9 0 15 -8 14 -19l-47 -331c-1 -10 -10 -18 -19 -18h-17zM91 49c2 11 11 19 20 19h18c9 0 15 -8 14 -19l-47 -331c-1 -10 -11 -18 -20 -18h-16c-9 0 -16 8 -15 18z" />
    </font>
</defs>
</svg>
